<svg width="1056" height="774" viewBox="0 0 1056 774" fill="none" xmlns="http://www.w3.org/2000/svg">
<g clip-path="url(#clip0)">
<path opacity="0.1" d="M344.712 505.833C379.625 492.816 434.429 490.162 484.313 491.205C641.005 494.457 782.446 526.093 904.786 561.881C949.079 574.841 992.683 588.805 1021.44 606.647C1079.96 642.966 1062.6 693.279 981.222 723.199C953.53 733.381 919.967 741.212 885.505 748.094C824.22 760.4 758.134 770.269 688.589 773.113C639.005 775.113 588.801 773.483 539.507 770.686C401.766 762.846 266.576 745.62 153.257 716.013C103.553 703.053 56.7091 686.936 36.2474 665.956C15.7858 644.976 28.8669 618.412 79.6209 605.993C100.623 600.864 125.705 598.541 150.276 596.37C186.439 593.166 223.182 590 255.815 583.487C289.527 576.756 329.441 563.739 322.77 548.845C315.579 532.861 309.839 518.831 344.712 505.833Z" fill="#6C63FF"/>
<path opacity="0.1" d="M503.38 30.13L499.57 251.13C499.57 251.13 637.49 251.13 754.83 289.23L757.12 65.91C757.12 65.91 568.91 20.99 503.38 30.13Z" fill="black"/>
<path d="M501.38 27.13L497.57 248.13C497.57 248.13 635.49 248.13 752.83 286.23L755.12 62.91C755.12 62.91 566.91 17.99 501.38 27.13Z" fill="white"/>
<path opacity="0.1" d="M444.64 29.96L448.45 250.96C448.45 250.96 310.53 250.96 193.19 289.06L190.9 65.8C190.9 65.8 379.11 20.82 444.64 29.96Z" fill="black"/>
<path d="M446.64 26.96L450.45 247.96C450.45 247.96 312.53 247.96 195.19 286.06L192.9 62.8C192.9 62.8 381.11 17.82 446.64 26.96Z" fill="white"/>
<path opacity="0.1" d="M790.41 97.42V316.11C790.41 316.11 835.41 310.78 929.85 427.36L938.24 208.67C938.24 208.67 839.94 102.76 790.41 97.42Z" fill="black"/>
<path d="M788.41 95.42V314.11C788.41 314.11 833.41 308.78 927.85 425.36L936.24 206.67C936.24 206.67 837.94 100.76 788.41 95.42Z" fill="white"/>
<path opacity="0.1" d="M160.06 103.91V322.61C160.06 322.61 115.06 317.28 20.62 433.86L12.24 215.17C12.24 215.17 110.53 109.26 160.06 103.91Z" fill="black"/>
<path d="M162.06 100.91V319.61C162.06 319.61 117.06 314.28 22.62 430.86L14.24 212.17C14.24 212.17 112.53 106.26 162.06 100.91Z" fill="white"/>
<path d="M655 489.07C655 496.52 607.69 539.57 500 539.57C392.31 539.57 334 498.02 334 490.57C334 483.12 394.31 501.57 502 501.57C609.69 501.57 655 481.61 655 489.07Z" fill="white"/>
<path opacity="0.1" d="M316.11 367.07C322.439 367.07 327.57 366.367 327.57 365.5C327.57 364.633 322.439 363.93 316.11 363.93C309.781 363.93 304.65 364.633 304.65 365.5C304.65 366.367 309.781 367.07 316.11 367.07Z" fill="#6C63FF"/>
<path opacity="0.1" d="M272.22 371.52C278.549 371.52 283.68 370.817 283.68 369.95C283.68 369.083 278.549 368.38 272.22 368.38C265.891 368.38 260.76 369.083 260.76 369.95C260.76 370.817 265.891 371.52 272.22 371.52Z" fill="#6C63FF"/>
<path opacity="0.1" d="M220.54 365.5C226.869 365.5 232 364.797 232 363.93C232 363.063 226.869 362.36 220.54 362.36C214.211 362.36 209.08 363.063 209.08 363.93C209.08 364.797 214.211 365.5 220.54 365.5Z" fill="#6C63FF"/>
<path opacity="0.1" d="M289.79 383.74C294.286 383.74 297.93 383.239 297.93 382.62C297.93 382.001 294.286 381.5 289.79 381.5C285.294 381.5 281.65 382.001 281.65 382.62C281.65 383.239 285.294 383.74 289.79 383.74Z" fill="#6C63FF"/>
<path opacity="0.1" d="M244.24 382.62C248.736 382.62 252.38 382.119 252.38 381.5C252.38 380.881 248.736 380.38 244.24 380.38C239.744 380.38 236.1 380.881 236.1 381.5C236.1 382.119 239.744 382.62 244.24 382.62Z" fill="#6C63FF"/>
<path d="M271.98 369.6C271.98 369.6 288.04 316.93 269.46 295.84C255.56 280.06 239.76 281.91 232.76 283.91C230.932 284.397 229.231 285.275 227.775 286.483C226.32 287.692 225.144 289.202 224.33 290.91C221.86 296.24 222.33 304.91 239.75 314.99C268.94 331.89 270.75 355.08 270.75 355.08L271.98 369.6Z" fill="#6C63FF"/>
<path d="M235.24 291.37C235.24 291.37 282.6 306.18 271.98 369.6" stroke="#565987" stroke-miterlimit="10"/>
<path d="M262.9 296.68C262.9 296.68 256.38 301.07 258.45 307.68" stroke="#565987" stroke-miterlimit="10"/>
<path d="M239.99 300.59C239.99 300.59 243.99 296.53 248.82 298.77" stroke="#565987" stroke-miterlimit="10"/>
<path d="M258.76 320.98C258.76 320.98 265.76 317.43 267.57 321.88" stroke="#565987" stroke-miterlimit="10"/>
<path d="M276.03 328.39C276.03 328.39 270.77 327.97 270.68 330.48" stroke="#565987" stroke-miterlimit="10"/>
<path d="M272.63 370.02C272.63 370.02 253.81 331.74 248.63 332.58C246.18 332.98 245.05 335.39 244.53 337.82C243.887 340.955 244.236 344.213 245.53 347.14C248.24 353.26 255.41 364.91 272.63 370.02Z" fill="#6C63FF"/>
<path d="M248.76 339.84C248.76 339.84 268.51 368.48 272.33 369.74" stroke="#565987" stroke-miterlimit="10"/>
<path d="M246.97 344.31H251.58" stroke="#565987" stroke-miterlimit="10"/>
<path d="M252.49 354.79L259.71 355.1" stroke="#565987" stroke-miterlimit="10"/>
<path d="M256.89 346.41L256.1 350.17" stroke="#565987" stroke-miterlimit="10"/>
<path d="M264.57 357.86L264.43 361.28" stroke="#565987" stroke-miterlimit="10"/>
<path d="M272.07 370.02C272.07 370.02 290.88 331.74 296.07 332.58C298.53 332.98 299.66 335.39 300.17 337.82C300.809 340.955 300.459 344.212 299.17 347.14C296.46 353.26 289.29 364.91 272.07 370.02Z" fill="#6C63FF"/>
<path d="M295.91 339.84C295.91 339.84 276.16 368.48 272.35 369.74" stroke="#565987" stroke-miterlimit="10"/>
<path d="M297.73 344.31H293.12" stroke="#565987" stroke-miterlimit="10"/>
<path d="M292.21 354.79L284.98 355.1" stroke="#565987" stroke-miterlimit="10"/>
<path d="M287.81 346.41L288.6 350.17" stroke="#565987" stroke-miterlimit="10"/>
<path d="M280.13 357.86L280.27 361.28" stroke="#565987" stroke-miterlimit="10"/>
<path d="M239.76 378.96C239.247 378.541 238.874 377.976 238.69 377.34C238.606 377.022 238.634 376.685 238.771 376.386C238.908 376.087 239.144 375.844 239.44 375.7C240.12 375.43 240.86 375.91 241.44 376.39C241.678 376.67 241.971 376.897 242.302 377.058C242.632 377.218 242.993 377.307 243.36 377.32C242.985 376.98 242.705 376.549 242.545 376.069C242.386 375.589 242.353 375.076 242.45 374.58C242.489 374.375 242.578 374.182 242.71 374.02C243.09 373.61 243.78 373.79 244.24 374.11C245.69 375.11 246.09 377.11 246.1 378.88C246.178 378.216 246.178 377.544 246.1 376.88C246.07 376.551 246.122 376.221 246.251 375.917C246.38 375.613 246.583 375.347 246.84 375.14C247.184 374.955 247.57 374.862 247.96 374.87C248.284 374.824 248.615 374.846 248.93 374.936C249.245 375.025 249.538 375.18 249.79 375.39C250.029 375.72 250.152 376.12 250.139 376.527C250.127 376.934 249.979 377.326 249.72 377.64C249.18 378.247 248.541 378.758 247.83 379.15C247.286 379.47 246.824 379.911 246.48 380.44C246.437 380.512 246.403 380.589 246.38 380.67H242.28C241.37 380.21 240.523 379.636 239.76 378.96V378.96Z" fill="#6C63FF"/>
<path d="M311.46 363.54C310.948 363.125 310.575 362.563 310.39 361.93C310.305 361.611 310.333 361.272 310.47 360.971C310.607 360.67 310.844 360.426 311.14 360.28C311.506 360.209 311.883 360.236 312.235 360.359C312.586 360.482 312.899 360.697 313.14 360.98C313.377 361.261 313.67 361.488 314.001 361.646C314.332 361.805 314.693 361.891 315.06 361.9C314.685 361.561 314.404 361.13 314.244 360.65C314.085 360.17 314.052 359.656 314.15 359.16C314.184 358.956 314.274 358.766 314.41 358.61C314.79 358.2 315.48 358.37 315.94 358.69C317.39 359.69 317.79 361.69 317.8 363.47C317.877 362.806 317.877 362.134 317.8 361.47C317.77 361.141 317.822 360.811 317.951 360.507C318.08 360.203 318.283 359.937 318.54 359.73C318.883 359.543 319.27 359.453 319.66 359.47C319.984 359.421 320.316 359.442 320.631 359.532C320.947 359.622 321.24 359.778 321.49 359.99C321.73 360.318 321.853 360.716 321.841 361.122C321.828 361.528 321.68 361.918 321.42 362.23C320.88 362.837 320.241 363.348 319.53 363.74C318.988 364.062 318.527 364.504 318.18 365.03C318.137 365.102 318.103 365.179 318.08 365.26H313.98C313.068 364.801 312.22 364.222 311.46 363.54V363.54Z" fill="#6C63FF"/>
<path d="M287.56 378.96C287.047 378.541 286.674 377.976 286.49 377.34C286.408 377.022 286.437 376.686 286.574 376.387C286.71 376.088 286.946 375.846 287.24 375.7C287.93 375.43 288.66 375.91 289.24 376.39C289.478 376.67 289.772 376.897 290.102 377.057C290.433 377.217 290.793 377.307 291.16 377.32C290.786 376.98 290.507 376.549 290.35 376.068C290.192 375.588 290.161 375.076 290.26 374.58C290.291 374.374 290.377 374.18 290.51 374.02C290.89 373.61 291.58 373.79 292.04 374.11C293.49 375.11 293.9 377.11 293.91 378.88C293.983 378.215 293.983 377.545 293.91 376.88C293.88 376.551 293.932 376.221 294.061 375.917C294.19 375.613 294.393 375.347 294.65 375.14C295.121 374.923 295.641 374.832 296.158 374.876C296.675 374.92 297.172 375.097 297.6 375.39C297.842 375.719 297.967 376.119 297.955 376.527C297.942 376.935 297.792 377.327 297.53 377.64C296.992 378.249 296.353 378.76 295.64 379.15C295.1 379.475 294.639 379.915 294.29 380.44C294.251 380.514 294.217 380.591 294.19 380.67H290.1C289.182 380.214 288.328 379.639 287.56 378.96V378.96Z" fill="#6C63FF"/>
<path d="M219.76 347.8C219.76 347.8 218.23 349.8 220.47 352.8C222.71 355.8 224.57 358.39 223.82 360.28C223.82 360.28 220.43 354.65 217.68 354.57C214.93 354.49 216.76 351.18 219.76 347.8Z" fill="#6C63FF"/>
<path opacity="0.1" d="M219.76 347.8C219.626 347.993 219.521 348.206 219.45 348.43C216.76 351.58 215.33 354.53 217.91 354.6C220.32 354.67 223.21 358.98 223.91 360.06C223.889 360.145 223.863 360.229 223.83 360.31C223.83 360.31 220.44 354.68 217.69 354.6C214.94 354.52 216.76 351.18 219.76 347.8Z" fill="black"/>
<path d="M216.94 350.35C216.94 351.06 217.02 351.63 217.12 351.63C217.22 351.63 217.29 351.06 217.29 350.35C217.29 349.64 217.2 349.98 217.1 349.98C217 349.98 216.94 349.65 216.94 350.35Z" fill="#FFD037"/>
<path d="M215.96 351.2C216.58 351.54 217.12 351.74 217.17 351.65C217.22 351.56 216.75 351.22 216.17 350.89C215.59 350.56 215.79 350.79 215.75 350.89C215.71 350.99 215.34 350.91 215.96 351.2Z" fill="#FFD037"/>
<path d="M227.9 347.8C227.9 347.8 229.44 349.8 227.19 352.8C224.94 355.8 223.1 358.39 223.85 360.28C223.85 360.28 227.23 354.65 229.99 354.57C232.75 354.49 230.93 351.18 227.9 347.8Z" fill="#6C63FF"/>
<path opacity="0.1" d="M227.9 347.8C228.034 347.993 228.139 348.206 228.21 348.43C230.9 351.58 232.33 354.53 229.75 354.6C227.34 354.67 224.46 358.98 223.75 360.06C223.771 360.145 223.797 360.229 223.83 360.31C223.83 360.31 227.21 354.68 229.97 354.6C232.73 354.52 230.93 351.18 227.9 347.8Z" fill="black"/>
<path d="M230.76 350.35C230.76 351.06 230.69 351.63 230.59 351.63C230.49 351.63 230.41 351.06 230.41 350.35C230.41 349.64 230.51 349.98 230.61 349.98C230.71 349.98 230.76 349.65 230.76 350.35Z" fill="#FFD037"/>
<path d="M231.76 351.2C231.14 351.54 230.6 351.74 230.56 351.65C230.52 351.56 230.97 351.22 231.56 350.89C232.15 350.56 231.94 350.79 231.99 350.89C232.04 350.99 232.35 350.91 231.76 351.2Z" fill="#FFD037"/>
<path d="M230.27 360.05C230.27 360.05 225.97 359.92 224.68 359C223.39 358.08 218.08 357 217.76 358.45C217.44 359.9 211.31 365.8 216.15 365.84C220.99 365.88 227.41 365.08 228.7 364.3C229.99 363.52 230.27 360.05 230.27 360.05Z" fill="#A8A8A8"/>
<path opacity="0.2" d="M216.07 365.32C220.91 365.32 227.33 364.57 228.62 363.78C229.62 363.18 229.99 361.03 230.12 360.04H230.27C230.27 360.04 229.99 363.5 228.7 364.29C227.41 365.08 221 365.87 216.15 365.83C214.76 365.83 214.27 365.32 214.3 364.58C214.49 365.04 215.03 365.31 216.07 365.32Z" fill="black"/>
<path opacity="0.1" d="M195.17 501.52C214.345 501.52 229.89 499.223 229.89 496.39C229.89 493.557 214.345 491.26 195.17 491.26C175.995 491.26 160.45 493.557 160.45 496.39C160.45 499.223 175.995 501.52 195.17 501.52Z" fill="#6C63FF"/>
<path opacity="0.1" d="M292.15 544C311.325 544 326.87 541.703 326.87 538.87C326.87 536.037 311.325 533.74 292.15 533.74C272.975 533.74 257.43 536.037 257.43 538.87C257.43 541.703 272.975 544 292.15 544Z" fill="#6C63FF"/>
<path opacity="0.1" d="M149.49 592.33C168.665 592.33 184.21 590.033 184.21 587.2C184.21 584.367 168.665 582.07 149.49 582.07C130.315 582.07 114.77 584.367 114.77 587.2C114.77 590.033 130.315 592.33 149.49 592.33Z" fill="#6C63FF"/>
<path opacity="0.1" d="M885.14 698.49C904.315 698.49 919.86 696.193 919.86 693.36C919.86 690.527 904.315 688.23 885.14 688.23C865.965 688.23 850.42 690.527 850.42 693.36C850.42 696.193 865.965 698.49 885.14 698.49Z" fill="#6C63FF"/>
<path opacity="0.1" d="M491.09 577.89C503.787 577.89 514.08 576.739 514.08 575.32C514.08 573.901 503.787 572.75 491.09 572.75C478.393 572.75 468.1 573.901 468.1 575.32C468.1 576.739 478.393 577.89 491.09 577.89Z" fill="#6C63FF"/>
<path opacity="0.1" d="M820.09 445.89C832.787 445.89 843.08 444.739 843.08 443.32C843.08 441.901 832.787 440.75 820.09 440.75C807.393 440.75 797.1 441.901 797.1 443.32C797.1 444.739 807.393 445.89 820.09 445.89Z" fill="#6C63FF"/>
<path opacity="0.1" d="M641.08 640.89C653.777 640.89 664.07 639.739 664.07 638.32C664.07 636.901 653.777 635.75 641.08 635.75C628.383 635.75 618.09 636.901 618.09 638.32C618.09 639.739 628.383 640.89 641.08 640.89Z" fill="#6C63FF"/>
<path opacity="0.1" d="M442.64 623.93C455.337 623.93 465.63 622.779 465.63 621.36C465.63 619.941 455.337 618.79 442.64 618.79C429.943 618.79 419.65 619.941 419.65 621.36C419.65 622.779 429.943 623.93 442.64 623.93Z" fill="#6C63FF"/>
<path opacity="0.1" d="M256.67 617.26C269.367 617.26 279.66 616.109 279.66 614.69C279.66 613.271 269.367 612.12 256.67 612.12C243.973 612.12 233.68 613.271 233.68 614.69C233.68 616.109 243.973 617.26 256.67 617.26Z" fill="#6C63FF"/>
<path opacity="0.1" d="M208.21 663.3C220.907 663.3 231.2 662.149 231.2 660.73C231.2 659.311 220.907 658.16 208.21 658.16C195.513 658.16 185.22 659.311 185.22 660.73C185.22 662.149 195.513 663.3 208.21 663.3Z" fill="#6C63FF"/>
<g opacity="0.1">
<path opacity="0.1" d="M508.8 307.39C592.814 307.39 660.92 276.995 660.92 239.5C660.92 202.005 592.814 171.61 508.8 171.61C424.786 171.61 356.68 202.005 356.68 239.5C356.68 276.995 424.786 307.39 508.8 307.39Z" fill="black"/>
<path opacity="0.1" d="M663.56 263.77C656.83 299.17 590.33 326.96 509.27 326.96C427.5 326.96 360.54 298.68 354.8 262.85H354.23V320.54C380.97 348.48 440.17 367.91 508.89 367.91C577.61 367.91 636.81 348.48 663.56 320.54V263.77Z" fill="black"/>
<path opacity="0.1" d="M663.56 333.97C656.83 369.36 590.33 397.16 509.27 397.16C427.5 397.16 360.54 368.88 354.8 333.04H354.23V390.74C380.97 418.68 440.17 438.1 508.89 438.1C577.61 438.1 636.81 418.68 663.56 390.74V333.97Z" fill="black"/>
<path opacity="0.1" d="M663.56 411.18C656.83 446.58 590.33 474.37 509.27 474.37C427.5 474.37 360.54 446.1 354.8 410.26H354.23V472.48C354.227 473.806 354.5 475.118 355.03 476.333C355.56 477.548 356.336 478.64 357.31 479.54C385.31 505.25 442.7 515.32 508.89 515.32C575.08 515.32 632.44 505.25 660.48 479.54C661.453 478.64 662.23 477.548 662.76 476.333C663.29 475.118 663.563 473.806 663.56 472.48V411.18Z" fill="black"/>
</g>
<path d="M495.74 322.78C579.754 322.78 647.86 292.385 647.86 254.89C647.86 217.395 579.754 187 495.74 187C411.726 187 343.62 217.395 343.62 254.89C343.62 292.385 411.726 322.78 495.74 322.78Z" fill="#6C63FF"/>
<path d="M650.5 279.16C643.77 314.56 577.27 342.35 496.21 342.35C414.44 342.35 347.48 314.07 341.74 278.24H341.17V335.93C367.91 363.87 427.11 383.3 495.83 383.3C564.55 383.3 623.75 363.87 650.5 335.93V279.16Z" fill="#6C63FF"/>
<path d="M650.5 349.36C643.77 384.75 577.27 412.55 496.21 412.55C414.44 412.55 347.48 384.27 341.74 348.43H341.17V406.13C367.91 434.07 427.11 453.49 495.83 453.49C564.55 453.49 623.75 434.07 650.5 406.13V349.36Z" fill="#6C63FF"/>
<path d="M650.5 426.57C643.77 461.97 577.27 489.76 496.21 489.76C414.44 489.76 347.48 461.49 341.74 425.65H341.17V487.87C341.167 489.196 341.44 490.508 341.97 491.723C342.5 492.938 343.276 494.03 344.25 494.93C372.25 520.64 429.64 530.71 495.83 530.71C562.02 530.71 619.38 520.64 647.42 494.93C648.393 494.03 649.17 492.938 649.7 491.723C650.23 490.508 650.503 489.196 650.5 487.87V426.57Z" fill="#6C63FF"/>
<path opacity="0.1" d="M733.03 581.51C764.51 581.51 790.03 576.916 790.03 571.25C790.03 565.584 764.51 560.99 733.03 560.99C701.55 560.99 676.03 565.584 676.03 571.25C676.03 576.916 701.55 581.51 733.03 581.51Z" fill="#6C63FF"/>
<path d="M701.03 440.52C703.91 442.22 708.43 443.33 714.12 439.67L714.07 447.78C714.47 453.34 721.35 473.61 721.35 473.61L726.2 490.28C729.681 502.061 731.475 514.276 731.53 526.56C731.53 530.62 731.91 534.82 733.08 537.98C735.67 544.98 732.08 553.98 730.51 557.3C727.884 558.188 725.214 558.939 722.51 559.55C722.269 559.608 722.032 559.682 721.8 559.77V559.72C721.8 559.72 714.52 562.61 711.28 562.21C708.87 561.92 707.36 564.93 709.28 567.14C707.713 567.618 706.078 567.835 704.44 567.78C701.2 567.38 699.58 572.94 705.65 574.53C711.72 576.12 746.11 574.53 746.11 574.53C747.076 574.046 747.853 573.255 748.32 572.281C748.787 571.308 748.917 570.206 748.69 569.15L752.99 568.97C752.99 568.97 759.06 566.19 752.99 558.64L752.66 558.88L751.37 555.06V549.91C751.37 549.91 759.06 512.91 756.63 508.58C754.2 504.25 752.91 481.91 752.91 481.91L753.76 457.71C755.95 453.19 757.07 446.09 757.64 440.54C758.468 437.895 758.988 435.164 759.19 432.4C759.29 431.09 759.37 429.73 759.42 428.31C759.454 425.195 758.953 422.096 757.94 419.15C760.685 415.078 763.751 411.233 767.11 407.65C768.507 406.351 769.568 404.732 770.204 402.933C770.84 401.135 771.03 399.209 770.76 397.32L768.76 383.81L763.9 360.81C764.51 354.42 763.18 350.74 761.7 348.66C762.05 346.59 762.38 344.53 762.63 342.45C763.7 333.435 763.22 324.303 761.21 315.45C760.51 312.37 759.55 309.2 757.38 306.86C754.93 304.2 750.95 302.59 750.03 299.12C749.9 298.235 749.713 297.36 749.47 296.5C748.58 294.23 745.78 293.4 743.32 293.1C738.94 292.57 732.61 292.17 728.4 293.89C724.705 295.524 721.664 298.347 719.76 301.91C718.812 303.374 718.455 305.143 718.76 306.86C718.91 307.456 719.142 308.028 719.45 308.56C718.049 312.359 718.201 316.558 719.875 320.246C721.548 323.934 724.608 326.813 728.39 328.26C728.49 328.57 728.58 328.87 728.65 329.16C728.835 329.873 728.969 330.598 729.05 331.33C728.97 332.73 728.88 334.14 728.82 335.55L728.67 336.12C725.189 337.661 721.794 339.391 718.5 341.3C720.92 344.88 718.09 359.98 718.09 359.98C712.02 363.55 705.96 372.69 712.43 382.23C718.9 391.77 715.26 402.09 715.26 402.09L714.26 417.63L714.06 420.74H714.13L714.06 421.92H714.23V423.19C711.39 424.24 707.23 426.34 704.76 430.24C703.59 432.152 702.167 433.898 700.53 435.43C700.149 435.756 699.852 436.17 699.664 436.636C699.477 437.102 699.405 437.606 699.454 438.105C699.503 438.605 699.672 439.085 699.946 439.506C700.221 439.926 700.592 440.274 701.03 440.52V440.52ZM749.88 399.24C749.636 396.551 750.134 393.846 751.32 391.42H754.18C754.264 392.052 754.381 392.68 754.53 393.3C755.35 396.85 752.07 398.52 749.88 399.24V399.24Z" fill="url(#paint0_linear)"/>
<path d="M750.68 553.24L752.24 557.91L747.18 562.97L730.44 566.91L718.37 565.74L719.15 561.46C719.38 560.539 719.859 559.699 720.534 559.032C721.21 558.366 722.056 557.898 722.98 557.68C727.98 556.52 737.4 553.86 739.39 550.17L750.68 553.24Z" fill="#DB8B8B"/>
<path opacity="0.1" d="M750.68 553.24L752.24 557.91L747.18 562.97L730.44 566.91L718.37 565.74L719.15 561.46C719.38 560.539 719.859 559.699 720.534 559.032C721.21 558.366 722.056 557.898 722.98 557.68C727.98 556.52 737.4 553.86 739.39 550.17L750.68 553.24Z" fill="black"/>
<path d="M722.26 564.53L724.6 561.42L722.26 557.81C722.26 557.81 715.26 560.64 712.14 560.25C709.02 559.86 707.47 565.31 713.31 566.87C719.15 568.43 752.24 566.87 752.24 566.87C752.24 566.87 758.08 564.14 752.24 556.74L747.18 560.64C747.18 560.64 738.61 565.31 734.33 564.53H722.26Z" fill="#C17174"/>
<path d="M711.76 571.15L723.83 572.32L740.57 568.42L745.63 563.36L745.22 562.13L744.64 560.39L744.07 558.69L732.76 555.58C732.186 556.512 731.402 557.296 730.47 557.87C726.8 560.38 720.22 562.19 716.35 563.09C716.187 563.129 716.027 563.18 715.87 563.24C715.117 563.48 714.432 563.894 713.87 564.45C713.194 565.113 712.716 565.951 712.49 566.87L711.76 571.15Z" fill="#DB8B8B"/>
<path opacity="0.1" d="M711.76 571.15L723.83 572.32L740.57 568.42L745.63 563.36L745.22 562.13L740.57 565.7C740.57 565.7 732 570.37 727.72 569.59H715.64L717.98 566.48L715.88 563.24C715.127 563.48 714.442 563.894 713.88 564.45C713.204 565.113 712.727 565.951 712.5 566.87L711.76 571.15Z" fill="black"/>
<path d="M715.64 569.98L717.98 566.87L715.64 563.26C715.64 563.26 708.64 566.09 705.52 565.7C702.4 565.31 700.85 570.76 706.69 572.32C712.53 573.88 745.62 572.32 745.62 572.32C745.62 572.32 751.46 569.59 745.62 562.2L740.56 566.09C740.56 566.09 731.99 570.76 727.71 569.98H715.64Z" fill="#C17174"/>
<path d="M725.37 344.18C725.37 344.18 744.06 346.18 741.37 338.34C740.602 336.132 740.402 333.766 740.79 331.46C741.271 328.606 742.4 325.9 744.09 323.55L726.57 326.27C727.623 328.026 728.424 329.921 728.95 331.9C731 340.16 725.37 344.18 725.37 344.18Z" fill="#DB8B8B"/>
<path d="M757.3 432.91C757.3 432.91 756.91 449.65 753.02 457.83L752.24 481.58C752.24 481.58 753.4 503.38 755.74 507.66C758.08 511.94 750.68 548.15 750.68 548.15V554.38C750.68 554.38 738.22 559.05 734.68 553.6L738.18 507.27L736.62 443.04L757.3 432.91Z" fill="#474463"/>
<path opacity="0.1" d="M757.3 432.91C757.3 432.91 756.91 449.65 753.02 457.83L752.24 481.58C752.24 481.58 753.4 503.38 755.74 507.66C758.08 511.94 750.68 548.15 750.68 548.15V554.38C750.68 554.38 738.22 559.05 734.68 553.6L738.18 507.27L736.62 443.04L757.3 432.91Z" fill="black"/>
<path d="M765.08 379.22L767.42 385.45L769.42 398.68C769.68 400.526 769.498 402.407 768.888 404.169C768.277 405.93 767.257 407.521 765.91 408.81C761.24 413.48 755.01 423.21 755.01 423.21L747.62 401.02C747.62 401.02 755.01 399.85 753.84 394.79C752.67 389.73 753.07 380.39 753.07 380.39L765.08 379.22Z" fill="#FF748E"/>
<path opacity="0.05" d="M765.17 379.13L767.5 385.36L769.5 398.6C769.764 400.444 769.584 402.324 768.976 404.084C768.367 405.844 767.347 407.434 766 408.72C761.32 413.39 755.1 423.13 755.1 423.13L747.65 400.91C747.65 400.91 755.05 399.74 753.88 394.68C752.71 389.62 753.1 380.27 753.1 380.27L765.17 379.13Z" fill="black"/>
<path opacity="0.1" d="M730.48 557.91C735.48 565.77 743.25 561.31 744.63 560.43L744.06 558.73L732.76 555.58C732.194 556.525 731.413 557.324 730.48 557.91V557.91Z" fill="black"/>
<path d="M714.86 448.13C715.25 453.58 721.86 473.43 721.86 473.43L726.53 489.77C729.871 501.323 731.597 513.283 731.66 525.31C731.543 529.096 732.046 532.876 733.15 536.5C736.27 545.07 730.04 556.74 730.04 556.74C735.49 566.48 744.83 559.86 744.83 559.86V553.63C744.83 553.63 752.23 519.76 750.28 513.14C748.33 506.52 747.56 488.62 747.56 488.62V456.3C753.794 450.086 757.584 441.837 758.24 433.06C758.33 431.78 758.41 430.44 758.46 429.06C758.77 420.28 752.76 409.98 750.46 406.31C749.9 405.42 749.54 404.92 749.54 404.92L715.17 418.56H715.09V419.91V422.85L714.86 448.13Z" fill="#474463"/>
<path opacity="0.1" d="M726.54 326.27C727.593 328.026 728.394 329.921 728.92 331.9C730.823 332.622 732.851 332.955 734.885 332.879C736.918 332.804 738.916 332.321 740.76 331.46C741.241 328.606 742.37 325.9 744.06 323.55L726.54 326.27Z" fill="black"/>
<path d="M734.33 332.11C742.714 332.11 749.51 325.314 749.51 316.93C749.51 308.546 742.714 301.75 734.33 301.75C725.946 301.75 719.15 308.546 719.15 316.93C719.15 325.314 725.946 332.11 734.33 332.11Z" fill="#DB8B8B"/>
<path opacity="0.1" d="M714.86 422.82H715.03C731.35 426.18 751.85 409.17 751.85 409.17C751.3 408.243 750.826 407.273 750.43 406.27C749.87 405.38 749.51 404.88 749.51 404.88L715.14 418.52L715.05 419.88L714.86 422.82Z" fill="black"/>
<path d="M719.15 343.79C719.15 343.79 740.95 330.55 747.95 336L757.69 348.46C757.69 348.46 763.92 350.41 762.76 362.91L767.43 385.49L753.43 388.99C753.43 388.99 745.26 396.78 751.88 408.07C751.88 408.07 731.24 425.2 714.88 421.69L716.05 403.4C716.05 403.4 719.55 393.27 713.33 383.93C707.11 374.59 712.94 365.63 718.78 362.13C718.76 362.09 721.48 347.29 719.15 343.79Z" fill="#FF748E"/>
<path d="M717.98 423.21C717.98 423.21 709.8 424.77 705.91 431C704.785 432.872 703.413 434.584 701.83 436.09C701.475 436.413 701.2 436.815 701.028 437.264C700.856 437.712 700.791 438.195 700.838 438.673C700.886 439.151 701.045 439.612 701.302 440.017C701.559 440.423 701.908 440.763 702.32 441.01C705.41 442.87 710.44 444.01 716.81 438.78C727.76 429.83 717.98 423.21 717.98 423.21Z" fill="#DB8B8B"/>
<path opacity="0.1" d="M730.05 351.19C730.05 351.19 737.83 350.41 739.78 370.65C741.73 390.89 744.84 395.57 744.84 395.57C744.84 395.57 746.79 406.08 742.11 412.31C737.43 418.54 728.49 431.78 728.49 431.78C728.49 431.78 718.76 434.5 716.81 424.78L728.88 402.2C728.88 402.2 730.82 394.41 726.15 388.96C721.48 383.51 717.98 347.29 730.05 351.19Z" fill="black"/>
<path d="M729.27 350.02C729.27 350.02 737.05 349.24 739 369.49C740.95 389.74 744.06 394.4 744.06 394.4C744.06 394.4 746.06 404.91 741.34 411.14C736.62 417.37 727.76 430.61 727.76 430.61C727.76 430.61 718.03 433.33 716.08 423.61L728.15 401.03C728.15 401.03 730.1 393.24 725.42 387.79C720.74 382.34 717.2 346.13 729.27 350.02Z" fill="#FF748E"/>
<path opacity="0.1" d="M722.84 364.62C722.84 364.62 722.07 376.69 725.57 383.31C729.07 389.93 729.07 398.49 725.57 403.16" fill="black"/>
<path opacity="0.1" d="M720.9 349.82C720.9 349.82 724.01 346.71 732.97 346.32C741.93 345.93 745.81 343.21 745.81 343.21" fill="black"/>
<path opacity="0.1" d="M742.55 297.31C744.92 297.6 747.62 298.41 748.47 300.63C748.704 301.475 748.888 302.333 749.02 303.2C749.9 306.6 753.73 308.2 756.09 310.78C758.17 313.08 759.09 316.18 759.77 319.21C761.709 327.887 762.172 336.829 761.14 345.66C760.38 352.11 758.82 358.47 758.39 364.95C757.96 371.43 758.75 378.26 762.29 383.71C763.82 386.05 765.83 388.11 766.91 390.71C764.68 392.52 761.6 392.78 758.72 392.88C755.387 392.993 752.037 392.993 748.67 392.88C746.908 392.95 745.155 392.583 743.57 391.81C742.448 391.095 741.526 390.108 740.89 388.94C738.97 385.69 738.49 381.78 738.57 378.01C738.65 374.24 739.25 370.49 739.32 366.71C739.519 364.648 739.06 362.576 738.01 360.79C737.044 359.667 735.95 358.66 734.75 357.79C730.58 354.09 729.15 348.17 729.01 342.6C728.87 337.03 729.79 331.46 729.32 325.91C729.14 323.74 728.32 321.13 726.19 320.71C725.517 320.683 724.848 320.596 724.19 320.45C722.48 319.79 722.65 317.38 722.19 315.61C721.64 313.61 719.94 312.08 719.46 310.08C718.34 305.37 724.34 299.74 728.27 298.08C732.2 296.42 738.34 296.79 742.55 297.31Z" fill="black"/>
<path d="M742.94 296.53C745.31 296.82 748.01 297.63 748.86 299.86C749.095 300.701 749.279 301.556 749.41 302.42C750.29 305.82 754.12 307.42 756.48 310C758.56 312.3 759.48 315.4 760.16 318.43C762.099 327.117 762.559 336.07 761.52 344.91C760.77 351.36 759.21 357.72 758.78 364.21C758.35 370.7 759.14 377.51 762.68 382.96C764.21 385.31 766.22 387.36 767.3 389.96C765.07 391.78 761.99 392.03 759.11 392.13C755.777 392.237 752.427 392.237 749.06 392.13C747.299 392.204 745.546 391.84 743.96 391.07C742.838 390.352 741.916 389.361 741.28 388.19C739.36 384.94 738.88 381.03 738.96 377.26C739.04 373.49 739.64 369.74 739.71 365.97C739.71 363.91 739.59 361.73 738.4 360.05C737.436 358.925 736.342 357.918 735.14 357.05C730.97 353.35 729.54 347.43 729.4 341.86C729.26 336.29 730.18 330.72 729.71 325.17C729.53 323 728.71 320.39 726.58 319.97C725.907 319.943 725.238 319.856 724.58 319.71C722.87 319.05 723.04 316.64 722.58 314.87C722.03 312.87 720.33 311.35 719.85 309.34C718.73 304.63 724.73 299 728.66 297.34C732.59 295.68 738.76 296.01 742.94 296.53Z" fill="#464353"/>
<path d="M128.04 572.77C128.04 572.77 138.76 572.44 141.98 570.14C145.2 567.84 158.46 565.09 159.26 568.78C160.06 572.47 175.36 587.12 163.26 587.22C151.16 587.32 135.16 585.33 131.93 583.37C128.7 581.41 128.04 572.77 128.04 572.77Z" fill="#A8A8A8"/>
<path opacity="0.2" d="M163.48 585.91C151.39 586.01 135.38 584.03 132.16 582.07C129.71 580.57 128.73 575.21 128.4 572.73H128.04C128.04 572.73 128.72 581.37 131.94 583.33C135.16 585.29 151.17 587.27 163.27 587.18C166.76 587.18 167.96 585.91 167.9 584.07C167.41 585.22 166.08 585.91 163.48 585.91Z" fill="black"/>
<path d="M808.93 432.12C808.93 432.12 816.28 431.89 818.5 430.31C820.72 428.73 829.81 426.85 830.36 429.38C830.91 431.91 841.42 441.97 833.11 442.04C824.8 442.11 813.82 440.74 811.61 439.4C809.4 438.06 808.93 432.12 808.93 432.12Z" fill="#A8A8A8"/>
<path opacity="0.2" d="M833.26 441.16C824.96 441.22 813.97 439.86 811.76 438.52C810.07 437.52 809.4 433.81 809.18 432.11H808.93C808.93 432.11 809.4 438.04 811.61 439.39C813.82 440.74 824.81 442.09 833.11 442.03C835.51 442.03 836.34 441.16 836.29 439.89C835.96 440.67 835.05 441.14 833.26 441.16Z" fill="black"/>
<path opacity="0.1" d="M31.29 43.26C43.2359 43.26 52.92 33.5759 52.92 21.63C52.92 9.68408 43.2359 0 31.29 0C19.3441 0 9.65997 9.68408 9.65997 21.63C9.65997 33.5759 19.3441 43.26 31.29 43.26Z" fill="#6C63FF"/>
<path opacity="0.1" d="M961.29 105.26C973.236 105.26 982.92 95.5759 982.92 83.63C982.92 71.6841 973.236 62 961.29 62C949.344 62 939.66 71.6841 939.66 83.63C939.66 95.5759 949.344 105.26 961.29 105.26Z" fill="#6C63FF"/>
<path opacity="0.1" d="M16 122.18C24.8366 122.18 32 115.017 32 106.18C32 97.3434 24.8366 90.18 16 90.18C7.16344 90.18 0 97.3434 0 106.18C0 115.017 7.16344 122.18 16 122.18Z" fill="#6C63FF"/>
<path opacity="0.1" d="M178 32.18C186.837 32.18 194 25.0165 194 16.18C194 7.34344 186.837 0.179993 178 0.179993C169.163 0.179993 162 7.34344 162 16.18C162 25.0165 169.163 32.18 178 32.18Z" fill="#6C63FF"/>
<path opacity="0.1" d="M834 34.18C842.837 34.18 850 27.0165 850 18.18C850 9.34344 842.837 2.17999 834 2.17999C825.163 2.17999 818 9.34344 818 18.18C818 27.0165 825.163 34.18 834 34.18Z" fill="#6C63FF"/>
<path d="M889.62 646.4C889.62 646.4 893.62 651.64 887.77 659.55C881.92 667.46 877.09 674.13 879.04 679.06C879.04 679.06 887.87 664.38 895.04 664.17C902.21 663.96 897.52 655.24 889.62 646.4Z" fill="#FC6681"/>
<path opacity="0.1" d="M889.62 646.4C889.968 646.908 890.241 647.464 890.43 648.05C897.43 656.29 901.19 663.98 894.43 664.17C888.15 664.35 880.62 675.58 878.81 678.42C878.87 678.638 878.943 678.851 879.03 679.06C879.03 679.06 887.86 664.38 895.03 664.17C902.2 663.96 897.52 655.24 889.62 646.4Z" fill="black"/>
<path d="M897.06 653.08C897.06 654.92 896.85 656.42 896.6 656.42C896.35 656.42 896.14 654.92 896.14 653.08C896.14 651.24 896.4 652.08 896.65 652.08C896.9 652.08 897.06 651.23 897.06 653.08Z" fill="#FFD037"/>
<path d="M899.62 655.28C898 656.16 896.62 656.69 896.46 656.47C896.3 656.25 897.56 655.35 899.17 654.47C900.78 653.59 900.17 654.23 900.28 654.47C900.39 654.71 901.24 654.4 899.62 655.28Z" fill="#FFD037"/>
<path d="M868.46 646.4C868.46 646.4 864.46 651.64 870.31 659.55C876.16 667.46 880.99 674.13 879.04 679.06C879.04 679.06 870.2 664.38 863.04 664.17C855.88 663.96 860.55 655.24 868.46 646.4Z" fill="#FC6681"/>
<path opacity="0.1" d="M868.46 646.4C868.111 646.909 867.835 647.464 867.64 648.05C860.64 656.29 856.89 663.98 863.64 664.17C869.92 664.35 877.46 675.58 879.26 678.42C879.2 678.63 879.13 678.85 879.05 679.06C879.05 679.06 870.21 664.38 863.05 664.17C855.89 663.96 860.55 655.24 868.46 646.4Z" fill="black"/>
<path d="M861.01 653.08C861.01 654.92 861.22 656.42 861.48 656.42C861.74 656.42 861.94 654.92 861.94 653.08C861.94 651.24 861.68 652.08 861.42 652.08C861.16 652.08 861.01 651.23 861.01 653.08Z" fill="#FFD037"/>
<path d="M858.46 655.28C860.08 656.16 861.46 656.69 861.61 656.47C861.76 656.25 860.52 655.35 858.9 654.47C857.28 653.59 857.9 654.23 857.8 654.47C857.7 654.71 856.84 654.4 858.46 655.28Z" fill="#FFD037"/>
<path d="M862.29 678.38C862.29 678.38 873.49 678.03 876.86 675.63C880.23 673.23 894.09 670.36 894.93 674.21C895.77 678.06 911.75 693.38 899.11 693.48C886.47 693.58 869.73 691.48 866.37 689.48C863.01 687.48 862.29 678.38 862.29 678.38Z" fill="#A8A8A8"/>
<path opacity="0.2" d="M899.34 692.14C886.69 692.24 869.96 690.14 866.59 688.14C864.03 686.58 863 680.97 862.66 678.38H862.29C862.29 678.38 863 687.38 866.37 689.46C869.74 691.54 886.47 693.58 899.11 693.46C902.76 693.46 904.02 692.13 903.95 690.21C903.45 691.39 902.05 692.12 899.34 692.14Z" fill="black"/>
<path fill-rule="evenodd" clip-rule="evenodd" d="M809.333 286.286H846.952C846.952 286.286 839.762 253.476 863.571 240.19C868.762 237.667 885.286 228.238 912.333 248.238C913.19 247.524 914 246.952 914 246.952C914 246.952 889.238 222.238 861.667 225C847.81 226.238 830.762 238.857 820.762 255.524C810.762 272.19 809.333 286.286 809.333 286.286Z" fill="#6C63FF"/>
<path fill-rule="evenodd" clip-rule="evenodd" d="M809.333 286.286H846.952C846.952 286.286 839.762 253.476 863.571 240.19C868.762 237.667 885.286 228.238 912.333 248.238C913.19 247.524 914 246.952 914 246.952C914 246.952 889.238 222.238 861.667 225C847.81 226.238 830.762 238.857 820.762 255.524C810.762 272.19 809.333 286.286 809.333 286.286Z" fill="#6C63FF"/>
<path fill-rule="evenodd" clip-rule="evenodd" d="M809.333 286.286H846.952C846.952 286.286 839.762 253.476 863.571 240.19C868.762 237.667 885.286 228.238 912.333 248.238C913.19 247.524 914 246.952 914 246.952C914 246.952 889.238 222.238 861.667 225C847.762 226.238 830.714 238.857 820.714 255.524C810.714 272.19 809.333 286.286 809.333 286.286ZM887.714 227.667L887.905 224.476C887.476 224.238 886.286 223.667 883.286 222.81L883.095 225.952C884.667 226.476 886.19 227.048 887.714 227.667Z" fill="#6C63FF"/>
<path fill-rule="evenodd" clip-rule="evenodd" d="M883.19 237.762L883 240.762C884.571 240.81 886.143 241 887.714 241.333L887.905 238.381C886.286 238.048 884.714 237.857 883.19 237.762ZM865.571 222.905H866.048L865.095 220C863.619 220 862.095 220.095 860.524 220.286L861.429 223.095C862.81 222.952 864.19 222.905 865.571 222.905ZM867.857 240.429L868.952 243.714C870.333 243.048 871.714 242.476 873.095 242.048L872.048 238.905C870.429 239.381 869.048 239.905 867.857 240.429ZM846.238 227.905L844.095 224.619C842.905 225.238 841.667 225.905 840.381 226.667L842.571 230C843.81 229.238 845 228.524 846.238 227.905ZM856 249.333L858.286 252.762C859.095 251.571 860.048 250.476 861.095 249.381L858.952 246.143C857.857 247.143 856.857 248.238 856 249.333ZM849.095 264.667L852.952 267.714C853.143 265.857 853.476 264 853.952 262.143L850.524 259.429C849.905 261.19 849.476 262.952 849.095 264.667ZM828.238 242.048L824.857 239.095C823.619 240.286 822.429 241.476 821.333 242.667L825 245.81C826 244.524 827.095 243.238 828.238 242.048ZM813.857 263.333L808.381 261.333C807.476 263.381 806.476 265.762 806 267.048L811.476 269.048C812.095 267.429 813.095 265.095 813.857 263.333ZM848.381 276.762C848.476 279.286 848.714 281.333 848.952 282.762L854.667 284.81C854.238 282.952 853.81 280.857 853.524 278.619L848.381 276.762Z" fill="#6C63FF"/>
<rect x="268" y="84" width="104.537" height="104.339" rx="24" fill="#6C63FF"/>
<path d="M317.623 98.1566H330.163V156.092C323.73 157.311 319.007 157.798 313.877 157.798C298.568 157.798 290.588 150.891 290.588 137.642C290.588 124.882 299.057 116.592 312.167 116.592C314.203 116.592 315.75 116.755 317.623 117.242V98.1566H317.623ZM317.623 127.319C316.157 126.832 314.936 126.67 313.388 126.67C307.037 126.67 303.372 130.571 303.372 137.397C303.372 144.063 306.874 147.72 313.307 147.72C314.691 147.72 315.831 147.639 317.623 147.396V127.319Z" fill="white"/>
<path d="M350.112 117.485V146.501C350.112 156.498 349.379 161.292 347.181 165.438C345.145 169.421 342.457 171.939 336.92 174.703L325.276 169.176C330.813 166.576 333.5 164.302 335.21 160.805C337.002 157.23 337.572 153.083 337.572 142.193V117.485H350.112ZM337.572 98.2232H350.112V111.065H337.572V98.2232V98.2232Z" fill="white"/>
<path d="M624.01 79.1629C626.714 77.6159 630.235 77.6089 632.937 79.1629C646.527 86.8393 660.122 94.5037 673.71 102.185C676.265 103.624 677.975 106.467 677.949 109.411V155.595C677.968 158.661 676.089 161.572 673.393 162.978C659.847 170.612 646.309 178.256 632.765 185.89C630.006 187.467 626.414 187.346 623.74 185.639C619.679 183.286 615.611 180.944 611.55 178.593C610.72 178.099 609.784 177.705 609.198 176.901C609.716 176.203 610.643 176.116 611.395 175.811C613.09 175.272 614.647 174.407 616.205 173.568C616.598 173.298 617.079 173.402 617.457 173.643C620.929 175.633 624.371 177.681 627.856 179.653C628.599 180.082 629.351 179.512 629.987 179.158C643.279 171.648 656.588 164.167 669.878 156.654C670.37 156.418 670.643 155.895 670.603 155.356C670.612 140.121 670.605 124.883 670.607 109.648C670.664 109.036 670.31 108.473 669.756 108.223C656.257 100.624 642.766 93.0129 629.269 85.4118C629.036 85.2512 628.759 85.1649 628.475 85.1645C628.191 85.1641 627.914 85.2495 627.68 85.4095C614.183 93.0129 600.694 100.631 587.198 108.23C586.646 108.48 586.276 109.033 586.342 109.648C586.344 124.883 586.342 140.121 586.342 155.358C586.318 155.621 586.376 155.885 586.507 156.115C586.639 156.344 586.837 156.527 587.076 156.641C590.677 158.682 594.283 160.709 597.887 162.744C599.918 163.836 602.41 164.485 604.647 163.648C606.621 162.941 608.005 160.927 607.967 158.832C607.986 143.686 607.958 128.537 607.981 113.393C607.932 112.721 608.57 112.165 609.224 112.228C610.955 112.217 612.687 112.205 614.418 112.233C615.14 112.217 615.637 112.941 615.548 113.618C615.541 128.86 615.567 144.103 615.536 159.345C615.541 163.407 613.871 167.827 610.113 169.815C605.482 172.213 599.758 171.705 595.184 169.405C591.223 167.429 587.444 165.097 583.554 162.98C580.85 161.582 578.981 158.659 579 155.595V109.411C578.972 106.406 580.749 103.511 583.385 102.093C596.928 94.4528 610.469 86.8067 624.01 79.1629Z" fill="#6C63FF"/>
<path d="M635.825 111.155C641.732 110.775 648.056 110.93 653.371 113.839C657.486 116.068 659.768 120.746 659.84 125.316C659.725 125.933 659.081 126.273 658.492 126.231C656.778 126.228 655.064 126.254 653.35 126.219C652.623 126.247 652.201 125.577 652.11 124.934C651.617 122.748 650.424 120.582 648.365 119.527C645.204 117.945 641.539 118.025 638.093 118.058C635.577 118.191 632.871 118.409 630.739 119.888C629.103 121.008 628.606 123.27 629.19 125.092C629.741 126.399 631.251 126.821 632.487 127.21C639.605 129.072 647.148 128.886 654.131 131.336C657.022 132.334 659.85 134.275 660.839 137.301C662.134 141.356 661.566 146.203 658.68 149.459C656.339 152.138 652.931 153.596 649.53 154.388C645.007 155.396 640.313 155.421 635.72 154.974C631.401 154.482 626.906 153.347 623.572 150.405C620.72 147.931 619.328 144.075 619.466 140.353C619.499 139.724 620.125 139.286 620.727 139.338C622.453 139.324 624.179 139.319 625.905 139.34C626.594 139.291 627.105 139.886 627.141 140.536C627.459 142.619 628.242 144.806 630.06 146.041C633.567 148.303 637.969 148.148 641.985 148.212C645.312 148.064 649.047 148.02 651.763 145.821C653.195 144.567 653.62 142.469 653.233 140.665C652.813 139.141 651.219 138.431 649.849 137.967C642.822 135.744 635.195 136.551 628.235 134.038C625.41 133.04 622.678 131.153 621.593 128.251C620.078 124.145 620.772 119.065 623.961 115.92C627.07 112.791 631.558 111.586 635.825 111.155V111.155Z" fill="#6C63FF"/>
<path d="M111.749 244.356L111.712 244.34C111.692 244.332 111.671 244.325 111.653 244.307C111.623 244.275 111.601 244.237 111.589 244.195C111.576 244.153 111.573 244.109 111.581 244.066L113.579 231.864L122.948 241.226L113.204 245.368C113.177 245.379 113.148 245.384 113.119 245.383H113.08C113.067 245.375 113.054 245.365 113.028 245.339C112.665 244.936 112.232 244.603 111.749 244.356V244.356ZM125.339 243.612L135.358 253.62C137.439 255.701 138.48 256.739 138.86 257.942C138.917 258.12 138.964 258.298 139 258.481L115.057 248.352C115.044 248.347 115.031 248.342 115.018 248.337C114.923 248.298 114.812 248.254 114.812 248.156C114.812 248.058 114.925 248.012 115.021 247.973L115.052 247.96L125.339 243.612V243.612ZM138.592 261.693C138.075 262.664 137.067 263.671 135.361 265.378L124.065 276.658L109.456 273.619L109.378 273.604C109.249 273.583 109.112 273.56 109.112 273.444C109.057 272.842 108.878 272.258 108.586 271.728C108.295 271.198 107.898 270.733 107.419 270.364C107.36 270.304 107.375 270.211 107.393 270.126C107.393 270.113 107.393 270.1 107.398 270.09L110.146 253.24L110.156 253.183C110.172 253.054 110.195 252.904 110.311 252.904C110.9 252.831 111.469 252.642 111.983 252.347C112.498 252.052 112.949 251.658 113.31 251.187C113.333 251.162 113.349 251.133 113.38 251.118C113.462 251.079 113.561 251.118 113.646 251.154L138.589 261.693H138.592ZM121.467 279.253L102.893 297.807L106.072 278.288L106.078 278.262C106.08 278.236 106.085 278.21 106.093 278.187C106.119 278.125 106.186 278.099 106.251 278.073L106.282 278.06C106.978 277.764 107.594 277.306 108.078 276.725C108.14 276.653 108.215 276.583 108.311 276.571C108.336 276.567 108.361 276.567 108.386 276.571L121.465 279.256L121.467 279.253ZM98.9616 301.734L96.8679 303.826L73.7212 270.41C73.7128 270.398 73.7042 270.386 73.6953 270.374C73.6591 270.325 73.6203 270.276 73.6281 270.219C73.6307 270.178 73.6565 270.142 73.685 270.111L73.7108 270.077C73.7806 269.974 73.8401 269.87 73.9047 269.759L73.9564 269.669L73.9641 269.661C74.0003 269.599 74.0339 269.54 74.096 269.506C74.1502 269.481 74.2252 269.491 74.2846 269.504L99.9283 274.786C100 274.798 100.068 274.827 100.125 274.872C100.158 274.905 100.166 274.941 100.174 274.983C100.353 275.659 100.686 276.284 101.147 276.811C101.608 277.337 102.184 277.75 102.831 278.016C102.903 278.053 102.872 278.133 102.839 278.218C102.822 278.255 102.809 278.294 102.8 278.334C102.477 280.296 99.706 297.177 98.9616 301.734ZM94.5882 306.1C93.045 307.626 92.1352 308.434 91.1065 308.76C90.0921 309.08 89.0035 309.08 87.9892 308.76C86.7847 308.378 85.743 307.34 83.6623 305.259L60.4172 282.039L66.4889 272.633C66.5174 272.587 66.5458 272.545 66.5923 272.512C66.6569 272.465 66.75 272.486 66.8275 272.512C68.2211 272.932 69.7174 272.856 71.0614 272.297C71.1312 272.272 71.201 272.254 71.2553 272.303C71.2824 272.327 71.3067 272.355 71.3276 272.385L94.5882 306.103V306.1ZM58.1762 279.801L52.8438 274.474L63.3742 269.987C63.4012 269.975 63.4302 269.969 63.4595 269.969C63.5474 269.969 63.5991 270.056 63.6456 270.136C63.7515 270.299 63.8636 270.457 63.9817 270.611L64.0153 270.653C64.0463 270.697 64.0256 270.741 63.9946 270.782L58.1788 279.801H58.1762ZM50.4839 272.117L43.7376 265.378C42.59 264.231 41.7577 263.4 41.1787 262.685L61.6915 266.935C61.7173 266.939 61.7432 266.944 61.7691 266.948C61.8957 266.968 62.0353 266.992 62.0353 267.11C62.0353 267.239 61.8828 267.299 61.7536 267.348L61.6941 267.374L50.4839 272.117ZM40 259.22C40.0234 258.786 40.1015 258.356 40.2326 257.942C40.6152 256.739 41.6543 255.701 43.7376 253.62L52.3708 244.996C56.3458 250.759 60.3315 256.514 64.328 262.261C64.3978 262.354 64.4754 262.458 64.3952 262.535C64.0179 262.951 63.6405 263.405 63.3742 263.898C63.3454 263.962 63.3009 264.017 63.245 264.058C63.2114 264.079 63.1752 264.071 63.1364 264.064H63.1313L40 259.217V259.22ZM54.6816 242.688L66.2899 231.092C67.3807 231.57 71.3509 233.245 74.9024 234.743C77.5906 235.879 80.041 236.912 80.8112 237.247C80.8888 237.278 80.9586 237.309 80.9922 237.387C81.0128 237.433 81.0025 237.493 80.9922 237.542C80.8084 238.379 80.8358 239.248 81.0717 240.072C81.3077 240.896 81.7449 241.648 82.344 242.262C82.4216 242.339 82.344 242.45 82.2768 242.546L82.2406 242.6L70.454 260.836C70.423 260.888 70.3945 260.932 70.3428 260.965C70.2808 261.004 70.1929 260.986 70.1205 260.968C69.6621 260.848 69.1909 260.784 68.717 260.777C68.2931 260.777 67.833 260.854 67.3677 260.939H67.3652C67.3135 260.947 67.2669 260.958 67.2256 260.927C67.1799 260.889 67.1406 260.845 67.1093 260.795L54.6816 242.688V242.688ZM68.6343 228.75L83.6623 213.739C85.743 211.66 86.7847 210.62 87.9892 210.24C89.0035 209.92 90.0921 209.92 91.1065 210.24C92.311 210.62 93.3526 211.66 95.4334 213.739L98.6902 216.992L88.0021 233.527C87.9757 233.575 87.9396 233.617 87.8961 233.651C87.8315 233.695 87.7411 233.677 87.6635 233.651C86.8208 233.395 85.9285 233.349 85.0638 233.515C84.1991 233.682 83.388 234.056 82.7007 234.606C82.6309 234.678 82.5275 234.637 82.4397 234.598C81.0439 233.992 70.1878 229.409 68.6343 228.75V228.75ZM100.96 219.259L110.828 229.117L108.45 243.829V243.868C108.448 243.901 108.441 243.934 108.43 243.966C108.404 244.017 108.352 244.028 108.3 244.043C107.792 244.197 107.313 244.435 106.884 244.748C106.866 244.761 106.848 244.776 106.832 244.792C106.804 244.823 106.775 244.851 106.729 244.856C106.691 244.858 106.653 244.852 106.618 244.838L91.5795 238.456L91.551 238.443C91.4554 238.404 91.3417 238.358 91.3417 238.26C91.2533 237.422 90.9796 236.616 90.5404 235.897C90.468 235.778 90.3879 235.654 90.4499 235.533L100.96 219.259V219.259ZM90.7963 241.479L104.894 247.444C104.971 247.48 105.057 247.513 105.09 247.593C105.104 247.641 105.104 247.692 105.09 247.741C105.049 247.947 105.013 248.182 105.013 248.42V248.815C105.013 248.913 104.912 248.954 104.819 248.993L104.79 249.003C102.557 249.956 73.4368 262.36 73.3929 262.36C73.3489 262.36 73.3024 262.36 73.2585 262.316C73.1809 262.238 73.2585 262.13 73.3283 262.032C73.3406 262.015 73.3527 261.997 73.3645 261.98L84.9495 244.061L84.9702 244.03C85.0374 243.922 85.1149 243.8 85.239 243.8L85.3553 243.819C85.6189 243.855 85.8516 243.888 86.0868 243.888C87.8444 243.888 89.4729 243.034 90.4551 241.572C90.4785 241.533 90.5082 241.498 90.543 241.469C90.6128 241.417 90.7161 241.443 90.7963 241.479V241.479ZM74.6517 265.194L106.393 251.673C106.393 251.673 106.439 251.673 106.483 251.717C106.657 251.89 106.804 252.006 106.946 252.114L107.016 252.158C107.08 252.194 107.145 252.236 107.15 252.303C107.15 252.329 107.15 252.344 107.145 252.367L104.426 269.052L104.416 269.119C104.397 269.248 104.379 269.395 104.258 269.395C103.533 269.444 102.831 269.669 102.212 270.05C101.594 270.431 101.078 270.957 100.709 271.582L100.696 271.603C100.66 271.662 100.626 271.719 100.567 271.75C100.512 271.776 100.443 271.766 100.386 271.753L75.073 266.537C75.0472 266.532 74.6801 265.197 74.6517 265.194V265.194Z" fill="#6C63FF"/>
</g>
<defs>
<linearGradient id="paint0_linear" x1="735.16" y1="575.24" x2="735.16" y2="292.6" gradientUnits="userSpaceOnUse">
<stop stop-color="#808080" stop-opacity="0.25"/>
<stop offset="0.54" stop-color="#808080" stop-opacity="0.12"/>
<stop offset="1" stop-color="#808080" stop-opacity="0.1"/>
</linearGradient>
<clipPath id="clip0">
<rect width="1055.52" height="773.82" fill="white"/>
</clipPath>
</defs>
</svg>
