<svg width="874" height="741" viewBox="0 0 874 741" fill="none" xmlns="http://www.w3.org/2000/svg">
<g clip-path="url(#clip0)">
<g opacity="0.8">
<path opacity="0.8" d="M873.79 70H507.92V478.35H873.79V70Z" fill="url(#paint0_linear)"/>
</g>
<path d="M867.74 342.63H513.97V469.45H867.74V342.63Z" fill="white"/>
<path d="M556.72 372.72H543.01V437.7H556.72V372.72Z" fill="#64FFDA"/>
<g opacity="0.7">
<path opacity="0.7" d="M583.78 372.72H570.07V437.7H583.78V372.72Z" fill="#64FFDA"/>
</g>
<g opacity="0.6">
<path opacity="0.6" d="M610.84 372.72H597.13V437.7H610.84V372.72Z" fill="#64FFDA"/>
</g>
<g opacity="0.5">
<path opacity="0.5" d="M637.91 372.72H624.2V437.7H637.91V372.72Z" fill="#64FFDA"/>
</g>
<g opacity="0.5">
<path opacity="0.5" d="M664.97 372.72H651.26V437.7H664.97V372.72Z" fill="#64FFDA"/>
</g>
<g opacity="0.4">
<path opacity="0.4" d="M692.04 372.72H678.33V437.7H692.04V372.72Z" fill="#64FFDA"/>
</g>
<g opacity="0.3">
<path opacity="0.3" d="M719.1 372.72H705.39V437.7H719.1V372.72Z" fill="#64FFDA"/>
</g>
<path d="M817.66 437.87C835.93 437.87 850.74 423.06 850.74 404.79C850.74 386.52 835.93 371.71 817.66 371.71C799.39 371.71 784.58 386.52 784.58 404.79C784.58 423.06 799.39 437.87 817.66 437.87Z" fill="#6C63FF"/>
<path d="M867.74 210.88H513.97V337.7H867.74V210.88Z" fill="white"/>
<path d="M556.72 240.96H543.01V305.94H556.72V240.96Z" fill="#64FFDA"/>
<g opacity="0.7">
<path opacity="0.7" d="M583.78 240.96H570.07V305.94H583.78V240.96Z" fill="#64FFDA"/>
</g>
<g opacity="0.6">
<path opacity="0.6" d="M610.84 240.96H597.13V305.94H610.84V240.96Z" fill="#64FFDA"/>
</g>
<g opacity="0.5">
<path opacity="0.5" d="M637.91 240.96H624.2V305.94H637.91V240.96Z" fill="#64FFDA"/>
</g>
<g opacity="0.5">
<path opacity="0.5" d="M664.97 240.96H651.26V305.94H664.97V240.96Z" fill="#64FFDA"/>
</g>
<g opacity="0.4">
<path opacity="0.4" d="M692.04 240.96H678.33V305.94H692.04V240.96Z" fill="#64FFDA"/>
</g>
<g opacity="0.3">
<path opacity="0.3" d="M719.1 240.96H705.39V305.94H719.1V240.96Z" fill="#64FFDA"/>
</g>
<path d="M817.66 306.12C835.93 306.12 850.74 291.31 850.74 273.04C850.74 254.77 835.93 239.96 817.66 239.96C799.39 239.96 784.58 254.77 784.58 273.04C784.58 291.31 799.39 306.12 817.66 306.12Z" fill="#6C63FF"/>
<path d="M867.74 79.1299H513.97V205.95H867.74V79.1299Z" fill="white"/>
<path d="M556.72 109.21H543.01V174.19H556.72V109.21Z" fill="#64FFDA"/>
<g opacity="0.7">
<path opacity="0.7" d="M583.78 109.21H570.07V174.19H583.78V109.21Z" fill="#64FFDA"/>
</g>
<g opacity="0.6">
<path opacity="0.6" d="M610.84 109.21H597.13V174.19H610.84V109.21Z" fill="#64FFDA"/>
</g>
<g opacity="0.5">
<path opacity="0.5" d="M637.91 109.21H624.2V174.19H637.91V109.21Z" fill="#64FFDA"/>
</g>
<g opacity="0.5">
<path opacity="0.5" d="M664.97 109.21H651.26V174.19H664.97V109.21Z" fill="#64FFDA"/>
</g>
<g opacity="0.4">
<path opacity="0.4" d="M692.04 109.21H678.33V174.19H692.04V109.21Z" fill="#64FFDA"/>
</g>
<g opacity="0.3">
<path opacity="0.3" d="M719.1 109.21H705.39V174.19H719.1V109.21Z" fill="#64FFDA"/>
</g>
<path d="M817.66 176.95C837.354 176.95 853.32 160.984 853.32 141.29C853.32 121.595 837.354 105.63 817.66 105.63C797.965 105.63 782 121.595 782 141.29C782 160.984 797.965 176.95 817.66 176.95Z" fill="url(#paint1_linear)"/>
<path d="M817.66 309.59C837.354 309.59 853.32 293.624 853.32 273.93C853.32 254.236 837.354 238.27 817.66 238.27C797.965 238.27 782 254.236 782 273.93C782 293.624 797.965 309.59 817.66 309.59Z" fill="url(#paint2_linear)"/>
<path d="M817.66 441.33C837.354 441.33 853.32 425.364 853.32 405.67C853.32 385.976 837.354 370.01 817.66 370.01C797.965 370.01 782 385.976 782 405.67C782 425.364 797.965 441.33 817.66 441.33Z" fill="url(#paint3_linear)"/>
<path d="M817.66 174.37C835.93 174.37 850.74 159.56 850.74 141.29C850.74 123.02 835.93 108.21 817.66 108.21C799.39 108.21 784.58 123.02 784.58 141.29C784.58 159.56 799.39 174.37 817.66 174.37Z" fill="#6C63FF"/>
<path d="M404.71 535.79C404.71 518.877 398.401 502.572 387.015 490.065C375.629 477.559 359.987 469.75 343.148 468.167C326.309 466.583 309.485 471.34 295.968 481.505C282.451 491.67 273.212 506.513 270.06 523.13L61.31 517.47L63.6 553.34C63.6 553.34 33.84 622.02 190.27 640.34V709.79H371.13V594.36C381.35 588.375 389.827 579.821 395.718 569.546C401.609 559.271 404.709 547.634 404.71 535.79V535.79Z" fill="url(#paint4_linear)"/>
<path d="M70.77 554.79C70.77 554.79 42.27 620.56 192.09 638.11V704.62H365.29V528.5L68.57 520.5L70.77 554.79Z" fill="#FDA57D"/>
<path d="M157.33 280.34C152.818 287.471 145.666 292.526 137.438 294.399C129.21 296.273 120.575 294.814 113.42 290.34L20.42 229.06C13.2891 224.548 8.23431 217.396 6.36049 209.168C4.48667 200.94 5.94616 192.305 10.42 185.15V185.15C14.9322 178.019 22.0838 172.964 30.3118 171.09C38.5397 169.217 47.1749 170.676 54.33 175.15L147.33 236.43C154.461 240.942 159.516 248.094 161.389 256.322C163.263 264.55 161.804 273.185 157.33 280.34V280.34Z" fill="url(#paint5_linear)"/>
<path d="M152.16 276.99C147.961 283.615 141.312 288.31 133.664 290.048C126.016 291.787 117.99 290.429 111.34 286.27L24.89 229.27C18.2651 225.072 13.5706 218.422 11.8318 210.774C10.0931 203.126 11.4514 195.1 15.61 188.45V188.45C19.8086 181.825 26.458 177.131 34.1062 175.392C41.7544 173.653 49.7799 175.011 56.43 179.17L142.88 236.17C149.505 240.369 154.199 247.018 155.938 254.666C157.677 262.314 156.319 270.34 152.16 276.99V276.99Z" fill="#FDA57D"/>
<path d="M332.4 603.04C368.321 603.04 397.44 573.921 397.44 538C397.44 502.079 368.321 472.96 332.4 472.96C296.479 472.96 267.36 502.079 267.36 538C267.36 573.921 296.479 603.04 332.4 603.04Z" fill="#FDA57D"/>
<path d="M320.68 109H71.51C65.8546 109 61.27 113.585 61.27 119.24V585.49C61.27 591.145 65.8546 595.73 71.51 595.73H320.68C326.335 595.73 330.92 591.145 330.92 585.49V119.24C330.92 113.585 326.335 109 320.68 109Z" fill="url(#paint6_linear)"/>
<path d="M313.65 115.58H78.56C71.0268 115.58 64.92 121.687 64.92 129.22V575.52C64.92 583.053 71.0268 589.16 78.56 589.16H313.65C321.183 589.16 327.29 583.053 327.29 575.52V129.22C327.29 121.687 321.183 115.58 313.65 115.58Z" fill="white"/>
<path d="M262.02 127.46C261.26 132.488 258.724 137.077 254.871 140.395C251.019 143.714 246.105 145.543 241.02 145.55H150.44C145.355 145.543 140.441 143.714 136.589 140.395C132.736 137.077 130.2 132.488 129.44 127.46H81.44C78.7878 127.46 76.2443 128.513 74.3689 130.389C72.4936 132.264 71.44 134.808 71.44 137.46V567.36C71.44 570.012 72.4936 572.556 74.3689 574.431C76.2443 576.306 78.7878 577.36 81.44 577.36H310.74C313.392 577.36 315.936 576.306 317.811 574.431C319.686 572.556 320.74 570.012 320.74 567.36V137.42C320.74 134.768 319.686 132.224 317.811 130.349C315.936 128.473 313.392 127.42 310.74 127.42L262.02 127.46Z" fill="#6C63FF"/>
<path d="M223.88 133.12H169.07C168.059 133.12 167.24 133.937 167.24 134.945C167.24 135.953 168.059 136.77 169.07 136.77H223.88C224.891 136.77 225.71 135.953 225.71 134.945C225.71 133.937 224.891 133.12 223.88 133.12Z" fill="#DBDBDB"/>
<path d="M238.13 136.77C239.34 136.77 240.32 135.789 240.32 134.58C240.32 133.37 239.34 132.39 238.13 132.39C236.921 132.39 235.94 133.37 235.94 134.58C235.94 135.789 236.921 136.77 238.13 136.77Z" fill="#DBDBDB"/>
<path d="M374.45 549.47C355.58 553.83 342.62 541.53 338.25 522.65L294.9 361.61C292.823 352.511 294.432 342.96 299.374 335.043C304.317 327.127 312.193 321.488 321.28 319.36V319.36C330.383 317.29 339.935 318.909 347.849 323.861C355.762 328.814 361.393 336.698 363.51 345.79L398.9 510.96C403.27 529.79 393.32 545.11 374.45 549.47Z" fill="url(#paint7_linear)"/>
<path d="M358.627 349.688C354.946 333.76 339.051 323.831 323.123 327.511C307.195 331.191 297.266 347.087 300.946 363.015L340.831 535.637C344.511 551.565 360.407 561.494 376.335 557.814C392.263 554.133 402.192 538.238 398.511 522.31L358.627 349.688Z" fill="#FDA57D"/>
<path d="M397.17 682.86H149.61V740.57H397.17V682.86Z" fill="url(#paint8_linear)"/>
<path d="M390.48 689.55H156.3V734.71H390.48V689.55Z" fill="#4D8AF0"/>
<path d="M121.22 453.11C116.758 460.151 109.692 465.139 101.564 466.987C93.4356 468.834 84.9068 467.39 77.84 462.97L15.48 422.62C8.43948 418.158 3.45067 411.091 1.60323 402.964C-0.244211 394.836 1.19985 386.307 5.62001 379.24V379.24C10.0818 372.199 17.1485 367.211 25.2765 365.363C33.4044 363.516 41.9332 364.96 49 369.38L111.36 409.73C118.401 414.192 123.389 421.258 125.237 429.386C127.084 437.514 125.64 446.043 121.22 453.11Z" fill="url(#paint9_linear)"/>
<path d="M105.58 538.53C101.079 545.635 93.9488 550.669 85.7475 552.534C77.5461 554.398 68.9402 552.941 61.81 548.48L23.18 520.3C16.0752 515.799 11.0406 508.669 9.17626 500.467C7.31189 492.266 8.76927 483.66 13.23 476.53V476.53C17.7311 469.425 24.8612 464.391 33.0625 462.526C41.2639 460.662 49.8698 462.119 57 466.58L95.63 494.79C102.727 499.291 107.755 506.415 109.619 514.609C111.483 522.803 110.031 531.402 105.58 538.53Z" fill="url(#paint10_linear)"/>
<g opacity="0.5">
<path opacity="0.5" d="M196.1 427.59C237.643 427.59 271.32 393.913 271.32 352.37C271.32 310.827 237.643 277.15 196.1 277.15C154.557 277.15 120.88 310.827 120.88 352.37C120.88 393.913 154.557 427.59 196.1 427.59Z" fill="url(#paint11_linear)"/>
</g>
<path d="M196.1 423.17C235.202 423.17 266.9 391.472 266.9 352.37C266.9 313.268 235.202 281.57 196.1 281.57C156.998 281.57 125.3 313.268 125.3 352.37C125.3 391.472 156.998 423.17 196.1 423.17Z" fill="#69F0AE"/>
<path d="M102.46 536.43C98.2615 543.055 91.612 547.749 83.9638 549.488C76.3156 551.227 68.2901 549.869 61.64 545.71L25.64 519.44C19.0151 515.241 14.3206 508.592 12.5818 500.944C10.8431 493.296 12.2014 485.27 16.36 478.62V478.62C20.5586 471.995 27.208 467.301 34.8562 465.562C42.5044 463.823 50.5299 465.181 57.18 469.34L93.18 495.61C99.805 499.809 104.499 506.458 106.238 514.106C107.977 521.754 106.619 529.78 102.46 536.43V536.43Z" fill="#FDA57D"/>
<path d="M117.81 450.93C113.611 457.555 106.962 462.249 99.3138 463.988C91.6656 465.727 83.6401 464.369 76.99 460.21L18.31 422.21C11.685 418.011 6.99056 411.362 5.25182 403.714C3.51309 396.066 4.87136 388.04 9.03001 381.39V381.39C13.2338 374.756 19.8948 370.058 27.5547 368.325C35.2146 366.591 43.2494 367.963 49.9 372.14L108.58 410.14C115.188 414.346 119.867 420.994 121.596 428.634C123.324 436.274 121.964 444.288 117.81 450.93V450.93Z" fill="#FDA57D"/>
<path d="M137.36 368.12C132.879 375.195 125.78 380.209 117.614 382.066C109.449 383.923 100.88 382.472 93.78 378.03L14.78 326.57C7.70514 322.089 2.69143 314.99 0.834516 306.825C-1.0224 298.659 0.428452 290.09 4.87002 282.99V282.99C9.35072 275.915 16.4497 270.902 24.6156 269.045C32.7815 267.188 41.3505 268.639 48.45 273.08L127.45 324.54C134.525 329.021 139.539 336.12 141.396 344.286C143.252 352.452 141.802 361.021 137.36 368.12V368.12Z" fill="url(#paint12_linear)"/>
<path d="M133.16 365.42C128.961 372.045 122.312 376.739 114.664 378.478C107.016 380.217 98.9901 378.859 92.34 374.7L18.34 326.5C11.715 322.301 7.02053 315.652 5.28179 308.004C3.54306 300.356 4.90133 292.33 9.05998 285.68V285.68C13.2587 279.05 19.9119 274.351 27.5649 272.612C35.218 270.873 43.2482 272.235 49.9 276.4L123.9 324.6C130.522 328.802 135.212 335.453 136.947 343.101C138.682 350.749 137.32 358.772 133.16 365.42Z" fill="#FDA57D"/>
<path d="M207.36 91V1H603.36V55" stroke="#3F3D56" stroke-width="2" stroke-miterlimit="10" stroke-dasharray="12 12"/>
<path d="M441.36 586H612.36V496" stroke="#3F3D56" stroke-width="2" stroke-miterlimit="10" stroke-dasharray="12 12"/>
<path fill-rule="evenodd" clip-rule="evenodd" d="M145 318H158.312V346.844H187.156V318H200.469V346.844V360.156V364.756L187.156 385.537V360.156H158.312V389H145V360.156V346.844V318ZM197.141 389H200.469H208.234L252.251 318H241.516L197.141 389Z" fill="white"/>
<path d="M632.586 558H639.688L647.703 545.414L655.812 558H662.914L651.828 541.43L662.867 524.883H655.766L647.75 537.656L639.734 524.883H632.633L643.672 541.43L632.586 558ZM667.766 558H673.484V533.227L681.688 555.117H687.453L695.656 533.227V558H701.375V524.883H693.359L684.57 548.438L675.781 524.883H667.766V558ZM709.906 558H730.016V552.375H715.859V524.883H709.906V558Z" fill="#3F3D56"/>
<path d="M350.266 55H356.219V41.1719H370.727V55H376.68V21.8828H370.727V35.7109H356.219V21.8828H350.266V55ZM391.82 55H397.773V27.2031H408.133V21.8828H381.438V27.2031H391.82V55ZM419.477 55H425.43V27.2031H435.789V21.8828H409.094V27.2031H419.477V55ZM440.547 55H446.453V41.2656H450.93C457.68 41.2656 462.625 37.8672 462.625 31.6797C462.625 25.4219 457.68 21.8828 450.93 21.8828H440.547V55ZM446.453 35.7109V27.4375H450.93C454.961 27.4375 456.719 28.9844 456.719 31.6797C456.719 34.3047 455.008 35.7109 450.93 35.7109H446.453Z" fill="#3F3D56"/>
</g>
<defs>
<linearGradient id="paint0_linear" x1="690.86" y1="478.35" x2="690.86" y2="70" gradientUnits="userSpaceOnUse">
<stop stop-color="#808080" stop-opacity="0.25"/>
<stop offset="0.54" stop-color="#808080" stop-opacity="0.12"/>
<stop offset="1" stop-color="#808080" stop-opacity="0.1"/>
</linearGradient>
<linearGradient id="paint1_linear" x1="59097.5" y1="12725.7" x2="59097.5" y2="7639.16" gradientUnits="userSpaceOnUse">
<stop stop-color="#808080" stop-opacity="0.25"/>
<stop offset="0.54" stop-color="#808080" stop-opacity="0.12"/>
<stop offset="1" stop-color="#808080" stop-opacity="0.1"/>
</linearGradient>
<linearGradient id="paint2_linear" x1="59097.5" y1="22317.5" x2="59097.5" y2="17231.7" gradientUnits="userSpaceOnUse">
<stop stop-color="#808080" stop-opacity="0.25"/>
<stop offset="0.54" stop-color="#808080" stop-opacity="0.12"/>
<stop offset="1" stop-color="#808080" stop-opacity="0.1"/>
</linearGradient>
<linearGradient id="paint3_linear" x1="59097.5" y1="31845.7" x2="59097.5" y2="26759.8" gradientUnits="userSpaceOnUse">
<stop stop-color="#808080" stop-opacity="0.25"/>
<stop offset="0.54" stop-color="#808080" stop-opacity="0.12"/>
<stop offset="1" stop-color="#808080" stop-opacity="0.1"/>
</linearGradient>
<linearGradient id="paint4_linear" x1="136085" y1="191334" x2="136085" y2="132814" gradientUnits="userSpaceOnUse">
<stop stop-color="#808080" stop-opacity="0.25"/>
<stop offset="0.54" stop-color="#808080" stop-opacity="0.12"/>
<stop offset="1" stop-color="#808080" stop-opacity="0.1"/>
</linearGradient>
<linearGradient id="paint5_linear" x1="38688.5" y1="46934.2" x2="38688.5" y2="31333.7" gradientUnits="userSpaceOnUse">
<stop stop-color="#808080" stop-opacity="0.25"/>
<stop offset="0.54" stop-color="#808080" stop-opacity="0.12"/>
<stop offset="1" stop-color="#808080" stop-opacity="0.1"/>
</linearGradient>
<linearGradient id="paint6_linear" x1="96759.2" y1="328548" x2="96759.2" y2="91642.1" gradientUnits="userSpaceOnUse">
<stop stop-color="#808080" stop-opacity="0.25"/>
<stop offset="0.54" stop-color="#808080" stop-opacity="0.12"/>
<stop offset="1" stop-color="#808080" stop-opacity="0.1"/>
</linearGradient>
<linearGradient id="paint7_linear" x1="54311.5" y1="146294" x2="54311.5" y2="92525.8" gradientUnits="userSpaceOnUse">
<stop stop-color="#808080" stop-opacity="0.25"/>
<stop offset="0.54" stop-color="#808080" stop-opacity="0.12"/>
<stop offset="1" stop-color="#808080" stop-opacity="0.1"/>
</linearGradient>
<linearGradient id="paint8_linear" x1="108046" y1="47913.7" x2="108046" y2="44583.3" gradientUnits="userSpaceOnUse">
<stop stop-color="#808080" stop-opacity="0.25"/>
<stop offset="0.54" stop-color="#808080" stop-opacity="0.12"/>
<stop offset="1" stop-color="#808080" stop-opacity="0.1"/>
</linearGradient>
<linearGradient id="paint9_linear" x1="28361.9" y1="56810.2" x2="28361.9" y2="46160.7" gradientUnits="userSpaceOnUse">
<stop stop-color="#808080" stop-opacity="0.25"/>
<stop offset="0.54" stop-color="#808080" stop-opacity="0.12"/>
<stop offset="1" stop-color="#808080" stop-opacity="0.1"/>
</linearGradient>
<linearGradient id="paint10_linear" x1="22709.6" y1="58397" x2="22709.6" y2="50007.2" gradientUnits="userSpaceOnUse">
<stop stop-color="#808080" stop-opacity="0.25"/>
<stop offset="0.54" stop-color="#808080" stop-opacity="0.12"/>
<stop offset="1" stop-color="#808080" stop-opacity="0.1"/>
</linearGradient>
<linearGradient id="paint11_linear" x1="29622.2" y1="64603.8" x2="29622.2" y2="41970.1" gradientUnits="userSpaceOnUse">
<stop stop-color="#808080" stop-opacity="0.25"/>
<stop offset="0.54" stop-color="#808080" stop-opacity="0.12"/>
<stop offset="1" stop-color="#808080" stop-opacity="0.1"/>
</linearGradient>
<linearGradient id="paint12_linear" x1="33287.6" y1="53221" x2="33287.6" y2="40086.8" gradientUnits="userSpaceOnUse">
<stop stop-color="#808080" stop-opacity="0.25"/>
<stop offset="0.54" stop-color="#808080" stop-opacity="0.12"/>
<stop offset="1" stop-color="#808080" stop-opacity="0.1"/>
</linearGradient>
<clipPath id="clip0">
<rect width="873.79" height="740.57" fill="white"/>
</clipPath>
</defs>
</svg>
