<svg width="1131" height="739" viewBox="0 0 1131 739" fill="none" xmlns="http://www.w3.org/2000/svg">
<g clip-path="url(#clip0)">
<path opacity="0.1" d="M584.48 132.75C513.11 144.81 441.84 139.64 373.28 132.12C304.72 124.6 236.33 114.78 164.93 117.74C119 119.64 67.85 128.74 35.78 155.19C4.90998 180.63 0.0999873 214.96 0.0399873 245.95C-0.0400127 269.26 1.97999 293.38 18.5 311.95C29.98 324.83 47.65 334.06 60.96 345.95C107.27 387.25 93.19 452.28 62.8 507.57C48.54 533.51 31.1 559.02 21.39 585.57C11.68 612.12 10.39 640.57 27.77 662.22C44.99 683.69 78.3 695.79 113.03 702.06C183.57 714.8 262.16 706.89 338.2 696.17C506.49 672.36 673.04 635.24 839.23 598.21C900.72 584.5 962.48 570.73 1021.72 550.97C1054.62 539.97 1088.12 526.28 1109.37 504.97C1136.37 477.97 1137.05 441.04 1111.03 418.97C1067.37 381.97 968.55 390.18 934.78 347.88C916.2 324.59 924.29 292.96 939.08 265.02C970.79 205.1 1032.08 145.9 1024.14 86.16C1018.66 45.16 976.85 11.23 920.81 2.38999C862.07 -6.87001 786.63 10.69 752.81 51.95C718.04 94.46 647.5 122.07 584.48 132.75Z" fill="#6C63FF"/>
<path d="M643.43 359.24H360V424.87H643.43V359.24Z" fill="#565661"/>
<path opacity="0.1" d="M643.43 359.24H360V424.87H643.43V359.24Z" fill="black"/>
<path d="M393.91 427.03L395.9 602.24L368.64 671.06L366.53 427.03H393.91Z" fill="#BCBEC9"/>
<path d="M362.99 371.84L638.94 373.5V422.38H362.99V371.84Z" fill="#565661"/>
<path d="M615.33 427.03L638.94 430.36V668.4L615.33 595.59V427.03Z" fill="#BCBEC9"/>
<path d="M780.9 361.87H647.91V644.47H780.9V361.87Z" fill="#EFEFF0"/>
<path d="M770.26 369.72H658.55V586.95H770.26V369.72Z" fill="#565661"/>
<path opacity="0.1" d="M770.26 369.72H658.55V586.95H770.26V369.72Z" fill="black"/>
<path d="M770.26 374.17H658.55V422.38H770.26V374.17Z" fill="#565661"/>
<path d="M770.26 427.03H658.55V529.43H770.26V427.03Z" fill="#565661"/>
<path d="M770.26 535.75H658.55V638.15H770.26V535.75Z" fill="#565661"/>
<path opacity="0.1" d="M770.26 535.75H658.55V638.15H770.26V535.75Z" fill="black"/>
<path d="M663.21 662.87C667.186 662.87 670.41 658.751 670.41 653.67C670.41 648.589 667.186 644.47 663.21 644.47C659.234 644.47 656.01 648.589 656.01 653.67C656.01 658.751 659.234 662.87 663.21 662.87Z" fill="#565661"/>
<path d="M763.06 663.31C767.036 663.31 770.26 659.191 770.26 654.11C770.26 649.029 767.036 644.91 763.06 644.91C759.084 644.91 755.86 649.029 755.86 654.11C755.86 659.191 759.084 663.31 763.06 663.31Z" fill="#565661"/>
<path d="M359 671.06H368.64L365.99 364.32H351.35L359 671.06Z" fill="#EFEFF0"/>
<path d="M638.94 361.87V668.4H647.91V364.32L638.94 361.87Z" fill="#EFEFF0"/>
<path d="M366.46 419.38V430.36H638.94V422.38L366.46 419.38Z" fill="#EFEFF0"/>
<path d="M384.93 341.26H730.37L780.57 357.88V367.52L349.69 364.2V354.39L384.93 341.26Z" fill="white"/>
<path d="M349.69 354.39L780.57 357.88V367.52L349.69 364.2V354.39Z" fill="#BCBEC9"/>
<path d="M388.72 468.71L386.72 468.41C386.72 468.32 386.72 468.24 386.72 468.16C386.66 467.69 386.59 467.23 386.52 466.76C387.34 467.41 388.12 468.06 388.84 468.71H388.72Z" fill="url(#paint0_linear)"/>
<path d="M345.26 623.12C346.56 622.82 347.88 622.57 349.2 622.39C358.266 621.099 367.511 622.46 375.82 626.31C374.98 632.49 374.15 638.88 375.93 644.85C377.17 649.05 379.66 652.85 380.19 657.23C381.525 657.46 382.771 658.056 383.786 658.954C384.802 659.851 385.548 661.013 385.94 662.31C386.324 663.457 386.516 664.66 386.51 665.87C386.499 667.367 386.311 668.857 385.95 670.31C385.828 671.471 385.259 672.538 384.362 673.285C383.466 674.032 382.313 674.4 381.15 674.31C373.41 675.19 365.82 672.14 358.62 669.15L344.62 663.33C342.98 662.65 341.33 661.96 339.76 661.12C336.782 659.511 334.138 657.349 331.97 654.75C331.512 654.286 331.19 653.705 331.04 653.07C330.78 651.31 332.84 650.26 334.15 649.07C334.534 648.707 334.87 648.297 335.15 647.85C336.7 645.51 336.85 642.28 337.78 639.52C339.98 632.97 346.78 628.75 349.18 622.36C349.31 622.01 349.43 621.66 349.53 621.3" fill="#A26565"/>
<path opacity="0.1" d="M386.51 665.87C386.499 667.367 386.311 668.857 385.95 670.31C385.828 671.471 385.259 672.538 384.362 673.285C383.466 674.032 382.313 674.4 381.15 674.31C373.41 675.19 365.82 672.14 358.62 669.15L344.62 663.33C342.98 662.65 341.33 661.96 339.76 661.12C336.782 659.511 334.138 657.349 331.97 654.75C331.512 654.286 331.19 653.705 331.04 653.07C330.78 651.31 332.84 650.26 334.15 649.07C334.534 648.707 334.87 648.297 335.15 647.85C339.01 648.68 343.8 651.11 346.75 652.05C349.705 652.855 352.542 654.041 355.19 655.58C358.87 657.94 361.52 661.58 364.64 664.58C367.76 667.58 371.79 670.31 376.14 669.94C378.44 669.593 380.657 668.827 382.68 667.68L386.51 665.87Z" fill="black"/>
<path d="M370.12 523.76C370.38 524.667 370.357 525.632 370.053 526.526C369.749 527.42 369.179 528.199 368.42 528.76C367.11 529.57 365.42 529.46 364.12 530.34C362.51 531.47 362.28 533.71 362 535.65C361 542.32 357.69 548.37 354.86 554.5C352.03 560.63 349.64 567.32 350.68 573.98C351.39 578.5 353.61 583.32 351.53 587.39C351.02 588.39 350.26 589.28 349.68 590.25C346.83 595.01 348.45 601.04 348.34 606.58C348.382 607.195 348.246 607.809 347.95 608.35C347.513 608.861 346.975 609.276 346.37 609.57C345.355 610.316 344.521 611.282 343.93 612.395C343.34 613.509 343.008 614.741 342.96 616C342.876 618.518 343.179 621.034 343.86 623.46C343.97 624.439 344.403 625.354 345.09 626.06C345.886 626.586 346.826 626.852 347.78 626.82C354.063 627.329 360.225 628.828 366.04 631.26C369.83 632.84 373.51 634.82 377.54 635.58C377.93 635.701 378.34 635.741 378.746 635.698C379.152 635.655 379.544 635.53 379.9 635.33C380.407 634.873 380.757 634.267 380.9 633.6C382.45 628.5 384.02 623.24 383.49 617.94C383.26 615.66 382.65 613.43 382.49 611.15C381.79 602.15 387.88 594.03 389.81 585.15C390.68 581.15 390.68 577.01 391.3 572.97C392.98 561.9 399.08 551.97 401.43 541.02C401.757 538.979 402.266 536.971 402.95 535.02C404.7 530.78 408.75 527.34 408.84 522.75C408.896 521.74 408.63 520.739 408.08 519.89C407.137 518.855 405.885 518.154 404.51 517.89C399.077 516.395 393.547 515.279 387.96 514.55C385.399 514.047 382.786 513.866 380.18 514.01C376.796 514.408 373.544 515.556 370.66 517.37C366.8 519.75 369.28 520.32 370.12 523.76Z" fill="#454B69"/>
<path opacity="0.05" d="M370.12 523.76C370.38 524.667 370.357 525.632 370.053 526.526C369.749 527.42 369.179 528.199 368.42 528.76C367.11 529.57 365.42 529.46 364.12 530.34C362.51 531.47 362.28 533.71 362 535.65C361 542.32 357.69 548.37 354.86 554.5C352.03 560.63 349.64 567.32 350.68 573.98C351.39 578.5 353.61 583.32 351.53 587.39C351.02 588.39 350.26 589.28 349.68 590.25C346.83 595.01 348.45 601.04 348.34 606.58C348.382 607.195 348.246 607.809 347.95 608.35C347.513 608.861 346.975 609.276 346.37 609.57C345.355 610.316 344.521 611.282 343.93 612.395C343.34 613.509 343.008 614.741 342.96 616C342.876 618.518 343.179 621.034 343.86 623.46C343.97 624.439 344.403 625.354 345.09 626.06C345.886 626.586 346.826 626.852 347.78 626.82C354.063 627.329 360.225 628.828 366.04 631.26C369.83 632.84 373.51 634.82 377.54 635.58C377.93 635.701 378.34 635.741 378.746 635.698C379.152 635.655 379.544 635.53 379.9 635.33C380.407 634.873 380.757 634.267 380.9 633.6C382.45 628.5 384.02 623.24 383.49 617.94C383.26 615.66 382.65 613.43 382.49 611.15C381.79 602.15 387.88 594.03 389.81 585.15C390.68 581.15 390.68 577.01 391.3 572.97C392.98 561.9 399.08 551.97 401.43 541.02C401.757 538.979 402.266 536.971 402.95 535.02C404.7 530.78 408.75 527.34 408.84 522.75C408.896 521.74 408.63 520.739 408.08 519.89C407.137 518.855 405.885 518.154 404.51 517.89C399.077 516.395 393.547 515.279 387.96 514.55C385.399 514.047 382.786 513.866 380.18 514.01C376.796 514.408 373.544 515.556 370.66 517.37C366.8 519.75 369.28 520.32 370.12 523.76Z" fill="black"/>
<path d="M350.55 674.47H342.02L336.44 559.83L336.05 553.31L343.3 550.76L343.79 557.69L350.55 674.47Z" fill="#565661"/>
<path opacity="0.1" d="M343.79 557.69L336.44 559.83L336.05 553.31L343.3 550.76L343.79 557.69Z" fill="black"/>
<path d="M457.58 698.72L443.51 700.42L378.69 553.31L361.21 552.03L330.51 560.99L324.54 736.14H310.47L316.01 554.59L282.32 555.45L222.2 705.11H209.41L272.64 530.2L275.08 523.46L369.31 520.23L392.8 533.4L393.1 534.16L457.58 698.72Z" fill="#565661"/>
<path opacity="0.1" d="M393.1 534.16C372.85 540.26 351.83 546.92 351.83 546.92C351.83 546.92 332.66 553.61 324.54 546.92C323.516 546.121 322.372 545.49 321.15 545.05C322.204 545.803 323.341 546.43 324.54 546.92L272.64 530.19L275.07 523.46L369.31 520.23L392.8 533.4L393.1 534.16Z" fill="black"/>
<path d="M297.25 505.13L335.62 496.6C335.62 496.6 427.3 513.66 434.12 520.48C434.12 520.48 360.78 535.4 352.68 540.48C344.58 545.56 296.39 551.18 297.25 505.13Z" fill="white"/>
<path d="M280.75 409.24C277.75 418.75 269.56 427.32 259.59 427.73C258.865 427.815 258.13 427.683 257.48 427.35C256.23 426.57 256.2 424.74 256.71 423.35C257.22 421.96 258.11 420.71 258.25 419.25C258.28 418.952 258.26 418.651 258.19 418.36C257.93 417.17 256.96 416.11 255.82 416.36C256.596 415.739 257.113 414.851 257.27 413.869C257.428 412.887 257.214 411.882 256.67 411.05C256.217 410.539 255.809 409.99 255.45 409.41C254.62 407.71 255.91 405.8 256.45 403.98C257.56 399.98 254.74 395.98 254.51 391.81C254.31 388.08 256.2 384.57 256.67 380.87C257.42 374.87 254.44 369.12 254.09 363.13C253.85 358.95 254.88 354.81 256.03 350.78C257.03 347.18 258.16 343.54 258.23 339.78C258.23 337.05 257.76 334.35 257.63 331.63C257.423 329.143 257.874 326.646 258.94 324.39C259.632 323.063 260.811 322.056 262.23 321.58C265.51 320.48 267.66 322.19 268.14 325.3C268.94 330.59 268.48 335.99 269.53 341.3C270.501 346.266 271.972 351.12 273.92 355.79C275.69 360.01 277.84 364.09 279.2 368.46C280.224 372.062 280.956 375.741 281.39 379.46C282.73 389.45 283.78 399.73 280.75 409.24Z" fill="#6C63FF"/>
<path d="M508.51 651.28C507.245 653.063 505.617 654.559 503.734 655.669C501.85 656.778 499.753 657.478 497.58 657.72C493.24 658.26 488.73 657.17 484.52 658.36C483.868 658.467 483.253 658.734 482.729 659.138C482.206 659.541 481.79 660.067 481.52 660.67C481.416 661.483 481.352 662.301 481.33 663.12C480.84 665.79 477.33 666.39 474.6 666.37L463.34 666.3C461 666.3 458.41 666.17 456.73 664.55C455.931 663.665 455.481 662.521 455.462 661.329C455.444 660.137 455.859 658.979 456.63 658.07C456.979 657.656 457.408 657.316 457.89 657.07C457.187 656.837 456.562 656.414 456.085 655.847C455.609 655.281 455.299 654.593 455.19 653.86C454.985 652.39 455.056 650.894 455.4 649.45C455.4 645.27 456.4 638.27 459.34 635C462.95 630.93 469.21 625.67 474.66 624.58C476.5 624.227 478.398 624.31 480.2 624.822C482.003 625.335 483.66 626.262 485.04 627.53C487.62 629.93 489.5 633.69 493.04 634.11C494.97 634.35 496.83 633.44 498.74 633.11C500.911 632.831 503.115 633.229 505.05 634.252C506.985 635.274 508.557 636.87 509.55 638.82C510.035 639.809 510.372 640.863 510.55 641.95C511.078 645.206 510.349 648.541 508.51 651.28Z" fill="#A26565"/>
<path opacity="0.1" d="M508.51 651.28C507.245 653.063 505.617 654.559 503.734 655.669C501.85 656.778 499.753 657.478 497.58 657.72C493.24 658.26 488.73 657.17 484.52 658.36C483.868 658.467 483.253 658.734 482.729 659.138C482.206 659.541 481.79 660.067 481.52 660.67C481.416 661.483 481.352 662.301 481.33 663.12C480.84 665.79 477.33 666.39 474.6 666.37L463.34 666.3C461 666.3 458.41 666.17 456.73 664.55C455.931 663.665 455.481 662.521 455.462 661.329C455.444 660.137 455.859 658.979 456.63 658.07C463.13 657.8 469.52 658.07 476 656.73C478.63 656.2 481.22 655.5 483.88 655.13C489.64 654.31 495.77 655.01 501.06 652.57C505.47 650.57 508.63 646.5 510.5 641.96C511.04 645.207 510.329 648.537 508.51 651.28V651.28Z" fill="black"/>
<path d="M478.8 635.47C474.8 638.57 470.11 640.99 465.07 641.25C460.03 641.51 454.68 639.25 452.21 634.87C448.6 628.44 451.8 619.5 447.38 613.6C446 611.75 444.01 610.44 442.55 608.65C441.09 606.86 440.25 604.17 441.55 602.27C439.98 602.87 438.32 601.35 437.86 599.73C437.4 598.11 437.69 596.37 437.41 594.73C436.68 590.38 432.41 587.59 430.36 583.73C428.31 579.87 428.59 574.86 428.36 570.29C427.849 559.156 423.704 548.495 416.56 539.94C415.2 538.32 413.46 536.67 411.34 536.75C411.71 533.09 409.27 529.59 406.11 527.75C402.95 525.91 399.19 525.29 395.53 524.93C358.6 521.29 320.12 535.02 284.86 523.47C275.05 520.26 265.59 514.89 259.59 506.47C257.253 503.266 255.581 499.626 254.672 495.765C253.764 491.904 253.637 487.9 254.3 483.99V483.85C255.69 476.75 259.44 475 265.65 471.76C272.819 467.97 280.312 464.827 288.04 462.37C303.04 457.68 319.19 455.99 334.67 459.43C341.9 461.05 348.87 463.73 356.11 465.3C358.96 465.92 361.83 466.36 364.72 466.73C369.21 467.29 373.72 467.66 378.24 468.18C392.693 469.844 406.927 473.046 420.7 477.73C425.83 479.47 430.96 481.46 435.37 484.61C438.858 487.143 441.808 490.345 444.046 494.03C446.285 497.714 447.768 501.807 448.41 506.07C448.83 509.01 448.84 512.07 449.48 514.92C450.086 517.315 450.889 519.656 451.88 521.92C460.425 543.046 467.407 564.771 472.77 586.92C473.074 588.565 473.638 590.152 474.44 591.62C475.72 593.69 477.92 595.08 479.21 597.15C482.21 602.03 479.32 608.84 481.98 613.92C482.9 615.68 484.43 617.07 485.35 618.83C488.35 624.6 483.92 631.5 478.8 635.47Z" fill="#454B69"/>
<path opacity="0.1" d="M427.7 520.57C429.122 519.445 430.348 518.094 431.33 516.57C432.315 515.039 432.707 513.2 432.43 511.4C432.82 513.677 432.671 516.013 431.996 518.222C431.32 520.431 430.137 522.451 428.54 524.12C426.03 526.69 421.32 529.21 417.65 528.33C418.17 525.39 425.37 522.55 427.7 520.57Z" fill="black"/>
<path opacity="0.1" d="M365.22 470.73C364.918 471.802 364.354 472.782 363.579 473.581C362.804 474.381 361.842 474.975 360.78 475.31C358.648 475.962 356.415 476.223 354.19 476.08H352.19C325.95 475.5 299.43 469.68 273.8 475.23C270.711 475.867 267.681 476.76 264.74 477.9C260.994 479.377 257.486 481.398 254.33 483.9V483.76C255.72 476.66 259.47 474.91 265.68 471.67C272.843 467.912 280.325 464.8 288.04 462.37C303.04 457.68 319.19 455.99 334.67 459.43C341.9 461.05 348.87 463.73 356.11 465.3C358.96 465.92 361.83 466.36 364.72 466.73C365.281 467.984 365.455 469.377 365.22 470.73V470.73Z" fill="black"/>
<path d="M365.22 469.3C364.92 470.374 364.357 471.356 363.582 472.158C362.807 472.96 361.844 473.555 360.78 473.89C358.648 474.543 356.415 474.801 354.19 474.65H352.19C325.95 474.07 299.43 468.25 273.8 473.8C270.712 474.438 267.682 475.328 264.74 476.46C260.817 478.025 257.157 480.183 253.89 482.86C253.123 480.753 252.36 478.643 251.6 476.53C250.68 474.01 253.6 473.45 254.16 471.19C254.53 469.66 253.9 467.92 253.58 466.29C253.498 465.891 253.444 465.487 253.42 465.08C253.24 461.47 254.53 459.39 257.49 457.44C266.27 451.64 276.98 447.66 287 444.67C292.327 442.986 297.83 441.919 303.4 441.49C311.28 441.03 319.15 442.49 326.82 444.34C336.25 446.67 345.58 449.75 353.94 454.68C358.04 457.07 362.04 460.07 364.25 464.33C365.132 465.827 365.474 467.581 365.22 469.3Z" fill="#A26565"/>
<path opacity="0.1" d="M280.75 409.24C277.75 418.75 269.56 427.32 259.59 427.73C258.865 427.815 258.13 427.683 257.48 427.35C256.23 426.57 256.2 424.74 256.71 423.35C257.22 421.96 258.11 420.71 258.25 419.25C258.28 418.952 258.26 418.651 258.19 418.36C263.48 410.9 268.61 403.36 270.64 394.53C271.051 393.01 271.176 391.426 271.01 389.86C270.74 388.06 269.83 386.43 269.33 384.69C268.45 381.61 268.86 378.35 269.11 375.16C270.151 361.113 267.806 347.022 262.27 334.07C260.92 330.95 259.38 327.79 258.91 324.46C259.602 323.133 260.781 322.126 262.2 321.65C265.48 320.55 267.63 322.26 268.11 325.37C268.91 330.66 268.45 336.06 269.5 341.37C270.471 346.336 271.942 351.19 273.89 355.86C275.66 360.08 277.81 364.16 279.17 368.53C280.194 372.132 280.926 375.811 281.36 379.53C282.73 389.45 283.78 399.73 280.75 409.24Z" fill="black"/>
<path opacity="0.1" d="M365.22 469.3C364.92 470.374 364.357 471.356 363.582 472.158C362.807 472.96 361.844 473.555 360.78 473.89C358.648 474.543 356.415 474.801 354.19 474.65H352.19C343.648 468.977 333.379 466.498 323.19 467.65C319.93 468.04 316.67 468.8 313.41 468.5C306.82 467.9 301.48 463.16 295.61 460.13C288.93 456.832 281.418 455.605 274.036 456.606C266.654 457.607 259.74 460.792 254.18 465.75L253.61 466.25C253.528 465.851 253.474 465.447 253.45 465.04C253.27 461.43 254.56 459.35 257.52 457.4C266.3 451.6 277.01 447.62 287.03 444.63C292.357 442.946 297.86 441.879 303.43 441.45C311.31 440.99 319.18 442.45 326.85 444.3C336.28 446.63 345.61 449.71 353.97 454.64C358.04 457.07 362.04 460.07 364.25 464.33C365.132 465.827 365.474 467.581 365.22 469.3Z" fill="black"/>
<path d="M387.65 359.76L387.51 360.12C385.27 365.93 381.15 370.84 378.51 376.5C375.18 383.67 374.36 391.71 373.62 399.59C372.98 406.34 372.35 413.13 372.86 419.9C374.14 436.58 382.29 452.4 384.47 468.76C385.007 472.538 385.145 476.363 384.88 480.17C384.7 482.58 384.26 485.17 382.66 486.95C381.06 488.73 377.95 489.43 376.23 487.72C377 486.25 377.78 484.79 378.56 483.32C373.99 479.77 367.11 482.32 361.77 480.1C359.42 479.1 357.54 477.3 355.57 475.69C351.074 472.034 345.892 469.314 340.33 467.69C334.768 466.065 328.937 465.569 323.18 466.23C319.92 466.63 316.66 467.39 313.4 467.09C306.81 466.48 301.47 461.75 295.6 458.72C288.921 455.423 281.409 454.196 274.028 455.195C266.647 456.195 259.732 459.376 254.17 464.33C252.77 465.63 250.89 467.15 249.17 466.33C248.505 465.923 247.968 465.337 247.62 464.64C241.07 453.45 245.89 439.02 252.89 428.12C259.89 417.22 269.16 407.17 272.04 394.54C272.456 393.02 272.581 391.436 272.41 389.87C272.14 388.07 271.23 386.44 270.73 384.7C269.85 381.62 270.26 378.36 270.51 375.17C271.559 361.122 269.22 347.027 263.69 334.07C262.09 330.34 260.19 326.56 260.19 322.51C260.19 316.13 264.76 310.84 268.54 305.71C272.89 299.81 276.54 293.28 282.05 288.43C287.27 283.82 294.83 281 301.29 283.34C312.267 280.675 323.565 279.574 334.85 280.07C338.75 280.25 342.78 280.66 346.2 282.55C349.86 284.55 352.49 288.11 356.09 290.24C358.72 291.81 361.75 292.55 364.61 293.65C372.507 296.734 379.026 302.565 382.97 310.07C386.97 317.82 387.97 326.73 388.85 335.41C389.69 343.58 390.49 352.07 387.65 359.76Z" fill="#6C63FF"/>
<path opacity="0.1" d="M372.86 419.9C374.14 436.58 382.29 452.4 384.47 468.76C380.11 465.07 374.04 461.36 373.23 457.07C372.33 452.43 369.45 446.35 368.97 441.66C368.49 436.97 371.78 431.24 368.33 428.02C366.65 426.45 371.12 426.89 369.48 425.28C365.79 421.69 364.88 416.16 364.65 411.03C364.26 401.95 365.41 392.77 363.74 383.84C362.74 378.33 360.65 373.08 358.98 367.73C357.04 361.5 355.64 355.12 354.24 348.73C352.862 343.049 351.86 337.283 351.24 331.47C350.81 326.47 351.01 321.17 353.24 316.61C355.47 312.05 359.98 308.35 365.04 308.42C381.96 308.64 379.04 331.58 382.76 342.18C384.25 346.4 386.26 350.48 387.07 354.88C387.365 356.605 387.526 358.35 387.55 360.1C385.31 365.91 381.19 370.82 378.55 376.48C375.22 383.65 374.4 391.69 373.66 399.57C372.98 406.34 372.35 413.13 372.86 419.9Z" fill="black"/>
<path d="M383.86 341.92C385.35 346.14 387.36 350.22 388.17 354.62C389.52 361.99 387.43 369.82 389.7 376.96C390.291 378.484 390.785 380.044 391.18 381.63C391.57 383.9 391.12 386.22 391.12 388.53C391.12 392.25 392.29 395.85 393.33 399.42C396.847 411.552 399.175 423.997 400.28 436.58C400.445 439.961 400.978 443.314 401.87 446.58C402.29 447.687 402.65 448.815 402.95 449.96C403.219 451.488 403.282 453.045 403.14 454.59C402.87 459.49 402.32 464.41 402.87 469.29C403.42 474.17 405.2 479.12 408.87 482.39C405.59 483.1 402.12 483.81 398.92 482.76C394.42 481.29 391.72 476.76 389.43 472.64C386.53 467.38 375.51 462.64 374.37 456.73C373.48 452.1 370.6 446.02 370.12 441.32C369.64 436.62 372.92 430.91 369.47 427.69C367.8 426.12 372.27 426.55 370.62 424.95C366.94 421.36 366.03 415.83 365.8 410.69C365.41 401.62 366.55 392.44 364.89 383.51C363.89 378 361.8 372.75 360.13 367.39C358.19 361.17 356.79 354.79 355.39 348.39C354.008 342.71 353.006 336.944 352.39 331.13C351.96 326.13 352.15 320.82 354.39 316.26C356.63 311.7 361.14 308.01 366.19 308.07C383.04 308.37 380.14 331.32 383.86 341.92Z" fill="#6C63FF"/>
<path opacity="0.1" d="M335.64 345.83C337.22 347.68 339.25 349.71 341.64 349.35C341.459 349.638 341.172 349.843 340.841 349.921C340.51 350 340.161 349.945 339.87 349.77C339.296 349.39 338.837 348.861 338.54 348.24L335.12 342.47C334.67 341.72 331.57 337.35 330.81 339.87C330.51 340.94 334.87 344.93 335.64 345.83Z" fill="black"/>
<path opacity="0.1" d="M333.8 360.22C333.702 358.335 332.907 356.553 331.57 355.22C330.368 354.13 328.965 353.284 327.44 352.73C323.69 351.19 319.25 349.95 315.18 350.15C316.66 352.31 321.41 353.6 323.79 354.82C327.163 356.56 330.5 358.36 333.8 360.22Z" fill="black"/>
<path opacity="0.1" d="M344.45 401.18C343.76 406.3 339.57 410.18 335.33 413.18C331.09 416.18 326.33 418.76 323.56 423.1C321.64 426.1 320.78 429.58 319.15 432.71C317.35 436.16 314.66 439.06 312.51 442.3C310.36 445.54 308.68 449.41 309.34 453.25C309.349 453.427 309.395 453.6 309.474 453.758C309.553 453.916 309.664 454.056 309.8 454.17C310.006 454.257 310.231 454.29 310.453 454.265C310.676 454.241 310.888 454.16 311.07 454.03C315.43 451.75 317.15 446.54 318.98 442.03C320.901 437.478 323.064 433.031 325.46 428.71C326.54 426.71 327.73 424.53 329.74 423.42C331.116 422.847 332.525 422.356 333.96 421.95C335.995 421.017 337.78 419.615 339.17 417.86C344.629 411.348 347.479 403.042 347.17 394.55C347.11 392.76 347.01 384.14 344.32 386.8C341.63 389.46 344.91 397.7 344.45 401.18Z" fill="black"/>
<path d="M351.04 204.81C359.64 208.56 367.04 216.81 366.77 226.16C366.54 235.98 358.32 245.23 361.15 254.64C362.79 260.1 367.73 263.76 371.64 267.91C386.53 283.67 386.5 311.18 371.56 326.91C365.84 332.91 358.49 337.18 352.44 342.91C331.11 363.01 330.2 397.78 341.62 424.77C332.87 426.662 323.952 427.668 315 427.77C310.81 427.77 305.68 427.06 304.16 423.15C302.76 419.54 305.16 414.66 302.4 411.99C301.1 410.74 299.15 410.57 297.4 410.28C286.14 408.46 276.9 399.47 272.68 388.88C268.46 378.29 268.68 366.37 271.1 355.23C272.82 347.18 275.51 338.32 271.52 331.12C266.52 322.06 252.14 318.24 252.36 307.88C252.54 299.39 262.55 295.26 268.23 288.95C278.71 277.33 273.72 259.3 273.7 243.64C273.7 229.86 278.52 215.64 288.78 206.46C304.04 192.69 333.43 197.16 351.04 204.81Z" fill="#A26565"/>
<g opacity="0.1">
<path opacity="0.1" d="M273.16 320.85C268.77 312.93 257.24 309.01 254.56 301.22C253.219 303.038 252.466 305.222 252.4 307.48C252.18 317.84 266.54 321.66 271.56 330.73C273.208 333.941 273.902 337.557 273.56 341.15C275.14 334.19 276.53 326.93 273.16 320.85Z" fill="black"/>
<path opacity="0.1" d="M362.3 241.82C364.1 236.57 366.71 231.27 366.84 225.82C366.858 225.23 366.841 224.639 366.79 224.05C364.78 230.07 361.7 235.91 362.3 241.82Z" fill="black"/>
<path opacity="0.1" d="M274.88 269.79C278.32 258.92 275.35 245.44 275.34 233.38C275.34 231.92 275.4 230.45 275.51 228.99C274.325 233.651 273.727 238.441 273.73 243.25C273.75 251.86 275.26 261.2 274.88 269.79Z" fill="black"/>
<path opacity="0.1" d="M373.23 316.68C367.51 322.68 360.16 326.95 354.11 332.68C343.31 342.85 337.76 356.78 336.37 371.55C338.95 360.55 344.16 350.42 352.51 342.55C358.51 336.85 365.91 332.6 371.63 326.55C378.434 319.135 382.385 309.546 382.78 299.49C381.053 305.916 377.774 311.819 373.23 316.68V316.68Z" fill="black"/>
<path opacity="0.1" d="M316.67 417.51C312.48 417.51 307.35 416.79 305.83 412.88C304.43 409.28 306.83 404.4 304.07 401.72C302.77 400.47 300.81 400.3 299.07 400.01C287.82 398.2 278.58 389.2 274.36 378.62C271.25 370.8 270.58 362.27 271.36 353.85C271.28 354.18 271.21 354.51 271.14 354.85C268.76 365.99 268.51 377.92 272.72 388.51C276.93 399.1 286.18 408.09 297.43 409.9C299.21 410.19 301.17 410.37 302.43 411.61C305.22 414.29 302.79 419.17 304.19 422.77C305.71 426.68 310.84 427.45 315.03 427.4C323.982 427.297 332.9 426.292 341.65 424.4C340.416 421.483 339.338 418.502 338.42 415.47C331.238 416.746 323.964 417.429 316.67 417.51V417.51Z" fill="black"/>
</g>
<path opacity="0.1" d="M349.42 373.9C351.89 375.76 354.57 368.67 353.04 366.9C352.63 367.36 349.04 373.64 349.42 373.9Z" fill="black"/>
<path opacity="0.1" d="M359.95 502.24C362.86 501.24 365.95 500.24 367.85 497.84C369.42 495.91 370.71 488.25 367.39 491.92C364.57 495.07 363.24 499.22 359.95 502.24Z" fill="black"/>
<path opacity="0.1" d="M389.58 494.21C389.23 496.57 388.58 499.02 386.91 500.72C386.6 501.04 385.91 501.24 385.82 500.81C387.685 499.817 389.419 498.594 390.98 497.17C394.36 493.82 394.82 485.57 389.67 483.38C389.62 487 390.13 490.53 389.58 494.21Z" fill="black"/>
<path d="M425.15 479.34C425.15 479.34 396.77 468.19 386.51 469.34C376.25 470.49 398.13 486.66 398.13 486.66L411.21 495.48C411.21 495.48 419.21 492.48 419.74 492.25C420.27 492.02 425.15 479.34 425.15 479.34Z" fill="#454B69"/>
<path d="M229.88 359.72C229.88 359.72 251.2 347.36 279.34 362.72C307.48 378.08 312.17 468.47 312.17 468.47C312.17 468.47 300.66 560.56 345.04 540.07C345.04 540.07 426.04 514.92 434.15 520.46C434.15 520.46 441.83 520.46 426.48 523.87C411.13 527.28 351.83 546.07 351.83 546.07C351.83 546.07 332.66 552.77 324.54 546.07C316.42 539.37 293.41 546.93 290.42 500.87C288.441 471.844 284.883 442.948 279.76 414.31L271.85 390.86L229.88 359.72Z" fill="#565661"/>
<path d="M227.32 502.14C227.32 502.14 236.7 408.76 221.32 375.07C207.94 345.71 259.68 359.44 273.18 363.44C275.269 364.065 277.092 365.366 278.36 367.14C286.36 378.39 315.06 423.48 306.6 483.81C306.6 483.81 303.19 537.54 324.51 546.06L258.82 524.9C253.49 523.18 248.08 521.75 242.62 520.51C235.66 518.93 224.32 514.44 227.32 502.14Z" fill="white"/>
<path d="M694.53 676.47H703.06L708.65 561.83L709.03 555.31L701.78 552.76L701.3 559.69L694.53 676.47Z" fill="#565661"/>
<path opacity="0.1" d="M701.3 559.69L708.65 561.83L709.03 555.31L701.78 552.76L701.3 559.69Z" fill="black"/>
<path d="M623.31 632.2C623.1 633.77 622.697 635.309 622.11 636.78C621.504 638.702 620.202 640.328 618.46 641.34C617.29 641.823 616.036 642.071 614.77 642.07C610.06 642.35 605.08 642.28 601.03 639.88C599.305 638.768 597.723 637.448 596.32 635.95C587.219 626.908 578.946 617.068 571.6 606.55C570.37 604.78 569.1 602.69 569.65 600.55C579.166 597.91 588.202 593.776 596.42 588.3C597.554 587.43 598.825 586.754 600.18 586.3C602.5 585.804 604.889 585.716 607.24 586.04C609.51 586.41 609.61 586.48 610.48 589.04C611.92 593.37 611.68 598.04 613.3 602.37C614.328 604.763 615.58 607.053 617.04 609.21C621.22 616.2 624.43 624.45 623.31 632.2Z" fill="#A26565"/>
<path opacity="0.1" d="M623.31 632.2C623.1 633.77 622.697 635.309 622.11 636.78C621.504 638.702 620.202 640.328 618.46 641.34C617.29 641.823 616.036 642.071 614.77 642.07C610.06 642.35 605.08 642.28 601.03 639.88C599.305 638.768 597.723 637.448 596.32 635.95C587.219 626.908 578.946 617.068 571.6 606.55C570.37 604.78 569.1 602.69 569.65 600.55C572.754 599.69 575.812 598.668 578.81 597.49L578.96 597.6C582.03 599.79 584.26 602.93 586.43 606.01L593.43 615.86C594.678 617.795 596.151 619.574 597.82 621.16C599.889 622.82 602.173 624.193 604.61 625.24C607.9 626.83 611.19 628.42 614.61 629.7C616.82 630.59 620.56 630.94 623.31 632.2Z" fill="black"/>
<path d="M629.77 525.41C629.081 527.072 628.244 528.668 627.27 530.18C617.975 545.787 610.805 562.566 605.95 580.07C604.57 579.76 603.79 581.64 603.8 583.07C603.81 584.5 603.8 586.3 602.48 586.82C602.09 586.97 601.65 586.97 601.27 587.14C600.43 587.52 600.19 588.59 600.07 589.51L598.89 598.17C598.48 601.17 598.12 604.42 599.59 607.07C600.604 608.645 601.919 610.004 603.46 611.07L622.98 626.47C623.78 627.1 624.77 627.77 625.73 627.42C627.92 626.62 625.98 622.7 627.73 621.11C628.89 620.02 630.73 620.84 632.34 620.71C634.44 620.55 636.03 618.62 636.56 616.59C636.932 614.523 636.969 612.409 636.67 610.33C636.538 609.381 636.648 608.415 636.99 607.52C637.586 606.572 638.407 605.785 639.38 605.23C642.767 602.756 645.496 599.491 647.328 595.718C649.16 591.945 650.04 587.781 649.89 583.59C649.731 582.314 649.778 581.021 650.03 579.76C650.437 578.606 651.05 577.535 651.84 576.6C658.93 567.01 664.84 556.6 670.71 546.21C674.09 540.21 677.53 534.12 678.71 527.36C678.812 527.108 678.855 526.837 678.834 526.566C678.813 526.295 678.729 526.033 678.59 525.8C678.45 525.567 678.258 525.37 678.029 525.224C677.8 525.079 677.54 524.988 677.27 524.96C674.342 524.046 671.355 523.331 668.33 522.82C659.14 520.96 650.27 518.09 641.33 515.33C632.39 512.57 632.46 518.19 629.77 525.41Z" fill="#454B69"/>
<path d="M587.5 700.72L601.58 702.42L666.39 555.31L683.87 554.03L714.58 562.99L720.54 738.14H734.61L729.07 556.59L762.76 557.45L822.88 707.11H835.67L772.44 532.2L770.01 525.46L675.77 522.23L652.28 535.4L651.98 536.16L587.5 700.72Z" fill="#565661"/>
<path opacity="0.1" d="M651.98 536.16C672.23 542.26 693.25 548.92 693.25 548.92C693.25 548.92 712.42 555.61 720.54 548.92C721.564 548.121 722.708 547.49 723.93 547.05C722.876 547.803 721.739 548.43 720.54 548.92L772.44 532.19L770.04 525.46L675.8 522.23L652.31 535.4L651.98 536.16Z" fill="black"/>
<path d="M747.83 507.13L709.46 498.6C709.46 498.6 617.78 515.66 610.96 522.48C610.96 522.48 684.3 537.4 692.4 542.48C700.5 547.56 748.69 553.18 747.83 507.13Z" fill="white"/>
<path d="M605.45 644.21C603.14 648.61 597.45 649.85 592.45 649.92C585.508 650.006 578.613 648.774 572.13 646.29C568.43 644.87 564.88 643.04 561.06 642C555.37 640.44 549.06 640.57 544.06 637.44C541.408 635.672 539.217 633.296 537.67 630.51C537.38 630.02 537.1 629.51 536.84 628.99C534.45 624.34 533.34 618.93 534.67 613.91C536 608.89 540.83 603.36 546.43 603.44C553.08 603.54 561.01 606.69 567.43 608.32C575.43 610.32 583.43 612.63 590.5 616.86C596.42 620.42 601.65 625.53 604.44 631.77C604.976 632.974 605.418 634.217 605.76 635.49C606.63 638.37 606.83 641.58 605.45 644.21Z" fill="#A26565"/>
<path opacity="0.1" d="M605.45 644.21C603.14 648.61 597.45 649.85 592.45 649.92C585.508 650.006 578.613 648.774 572.13 646.29C568.43 644.87 564.88 643.04 561.06 642C555.37 640.44 549.06 640.57 544.06 637.44C541.408 635.672 539.217 633.296 537.67 630.51C537.38 630.02 537.1 629.51 536.84 628.99C537.84 629.07 538.76 629.17 539.26 629.22C545.4 629.81 551.26 632.05 557.12 633.74C565.255 636.09 573.655 637.4 582.12 637.64C588.12 637.81 594.38 637.37 599.62 634.44C601.185 633.453 602.808 632.561 604.48 631.77C605.016 632.974 605.458 634.217 605.8 635.49C606.63 638.37 606.83 641.58 605.45 644.21Z" fill="black"/>
<path d="M648.42 454.07C635.42 451.94 622.18 451.42 609 450.9L592.88 450.26C591.734 450.127 590.572 450.268 589.49 450.67C588.558 451.269 587.672 451.938 586.84 452.67C585.22 453.77 583.15 453.89 581.2 454C567.367 454.762 553.609 456.547 540.04 459.34C533.04 460.77 525.77 462.64 520.51 467.47C514.95 472.58 512.51 480.37 512.32 487.91C512.13 495.45 514.11 502.86 516.2 510.1C518.861 518.816 520.331 527.851 520.57 536.96C520.476 539.487 520.573 542.018 520.86 544.53C521.325 546.929 522.032 549.274 522.97 551.53L530.33 571.18C530.98 572.9 531.62 574.61 532.33 576.29C533.04 577.97 533.72 579.29 534.33 580.87C535.23 583.03 535.94 585.27 536.65 587.5L541.55 602.89L542.19 604.89C543.96 610.43 545.77 616.07 549.11 620.83C552.45 625.59 557.62 629.43 563.43 629.72C565.305 629.65 567.182 629.7 569.05 629.87C570.642 630.259 572.188 630.819 573.66 631.54C578.023 633.352 582.706 634.267 587.43 634.23C591.78 634.23 596.61 633.02 598.97 629.36C600.27 627.36 600.61 624.9 600.97 622.54C601.6 617.8 602.21 612.85 600.6 608.35C599.6 605.66 597.92 603.35 596.76 600.7C595.14 597.09 594.61 593.1 593.56 589.29C591.288 581.089 586.664 573.734 580.26 568.13C577.986 559.125 576.315 549.978 575.26 540.75C575.113 538.707 574.707 536.69 574.05 534.75C572.88 531.75 570.51 529.32 569.52 526.26C568.59 523.42 568.87 520.14 567.18 517.69C581.25 521.56 595.18 520.69 609.79 520.46C614.469 520.475 619.144 520.208 623.79 519.66C625.956 519.263 628.149 519.029 630.35 518.96C634.87 518.96 639.11 520.96 643.26 522.72C654.99 527.72 667.35 531.65 680.09 532.19C693.24 532.74 706.24 529.65 719.09 526.59C724.74 525.24 730.61 523.78 735.09 520.07C739.57 516.36 742.09 509.67 739.33 504.58C737.23 500.75 732.88 498.87 728.82 497.27C717.58 492.83 706.28 488.5 695.45 483.13C678.91 475.07 666.54 457.07 648.42 454.07Z" fill="#454B69"/>
<path d="M625.24 408.83C623.67 412.23 621.03 415.01 619.08 418.21C615.818 423.478 614.741 429.811 616.08 435.86C616.783 438.85 618.163 441.64 620.113 444.013C622.064 446.386 624.532 448.281 627.33 449.55C629.827 450.545 632.454 451.178 635.13 451.43C638.65 451.86 642.4 451.95 645.51 450.25C647.838 448.853 649.747 446.857 651.04 444.47C653.73 439.97 655.26 434.9 656.66 429.85C659.25 420.53 661.46 410.97 661.14 401.3C661.03 397.97 660.37 394.22 657.61 392.3C656.185 391.477 654.605 390.96 652.97 390.78L639.78 388.42C637.23 387.96 632.78 386.09 630.57 387.93C628.36 389.77 628.19 395.21 627.81 397.76C627.21 401.53 626.84 405.36 625.24 408.83Z" fill="#A1616A"/>
<path d="M785.57 370.15L782.12 399.07C781.406 404.228 780.995 409.424 780.89 414.63C780.89 417.53 780.98 420.75 779.06 422.92C778.121 423.907 776.932 424.623 775.62 424.99C771.43 426.29 766.86 425.13 762.86 423.34C760.52 422.34 758.13 420.89 757.07 418.56C756.454 416.945 756.198 415.214 756.32 413.49C756.32 396.24 757.95 378.25 766.96 363.55C767.729 362.108 768.812 360.857 770.13 359.89C772.63 358.29 775.9 358.74 778.73 359.61C780.47 360.14 785.17 360.73 786.28 362.28C787.39 363.83 785.81 368.16 785.57 370.15Z" fill="#A1616A"/>
<path d="M694.04 265.57C713.922 265.57 730.04 249.452 730.04 229.57C730.04 209.688 713.922 193.57 694.04 193.57C674.158 193.57 658.04 209.688 658.04 229.57C658.04 249.452 674.158 265.57 694.04 265.57Z" fill="#A1616A"/>
<path d="M684.41 283.22C684.28 286.021 683.518 288.756 682.18 291.22C700.56 288.42 718.893 285.3 737.18 281.86C731.113 278.741 726.526 273.349 724.42 266.86C723.426 263.381 722.881 259.788 722.8 256.17C722.51 250.433 722.62 244.682 723.13 238.96C716.73 239.63 710.67 242.03 704.57 244.09C698.437 246.163 692.198 247.908 685.88 249.32C682.83 250 679.76 250.58 676.68 251.12C673.08 251.76 671.35 251.75 673.85 254.91C680.56 263.35 685.35 271.93 684.41 283.22Z" fill="#A1616A"/>
<path d="M695.47 278.41C690.72 279.12 685.74 279.92 681.95 282.86C680.507 284.099 679.135 285.418 677.84 286.81C670.31 294.12 659.68 297.06 650.54 302.22C649.049 302.957 647.728 303.996 646.66 305.27C645.66 306.66 645.15 308.43 644.1 309.81C642.88 311.41 640.95 312.41 640 314.18C639.05 315.95 639.26 317.83 639.16 319.71C638.93 323.84 637.37 327.76 636.16 331.71C630.61 350.62 633.65 371.71 625.25 389.57C625.636 390.599 626.227 391.539 626.987 392.333C627.746 393.127 628.659 393.759 629.67 394.19C631.784 394.951 633.99 395.426 636.23 395.6L654.84 397.91C657.5 398.24 660.32 398.55 662.75 397.44C660.527 403.568 658.955 409.913 658.06 416.37C657.608 420.317 656.906 424.231 655.96 428.09C653.4 436.89 646.96 444.22 639.33 449.23C638.369 449.733 637.558 450.482 636.98 451.4C635.98 453.4 637.46 455.64 638.51 457.6C641.56 463.28 641.14 470.1 641.1 476.54C641.06 482.98 641.71 490.05 646.21 494.67C648.87 497.4 652.51 498.88 656.05 500.29L685.16 511.92C689.964 513.966 694.919 515.637 699.98 516.92C707.65 518.67 715.62 518.6 723.49 518.26C728.69 518.04 733.883 517.707 739.07 517.26C741.133 517.253 743.161 516.72 744.96 515.71C746.509 514.488 747.701 512.871 748.41 511.03C752.46 502.22 753.82 491.94 760.1 484.56C764.41 479.49 771.1 475.44 771.59 468.81C771.82 465.51 770.35 462.3 770.33 458.99C770.33 454.92 772.46 451.05 772.33 446.99C772.06 440.38 765.83 435.34 764.84 428.8C762.32 412.22 770.74 395.66 775.91 379.71C776.84 376.86 778.04 373.71 780.78 372.49C783.52 371.27 787.38 371.91 788.36 369.21C790.83 362.43 791.42 354.48 791.1 347.27C790.92 343.1 789.44 339.02 789.61 334.84C789.73 331.9 790.67 329.04 790.92 326.11C791.3 321.68 790.13 317.28 788.92 313C788.57 311.472 788.047 309.989 787.36 308.58C786.621 307.302 785.75 306.105 784.76 305.01L779.89 299.22C777.61 296.51 775.2 293.7 771.89 292.33C770.82 289.68 767.4 287.85 764.95 286.39C762.48 284.989 759.929 283.736 757.31 282.64L729.77 270.48C728.741 269.962 727.638 269.604 726.5 269.42C724.824 269.364 723.158 269.707 721.64 270.42C713.24 273.75 704.47 277.07 695.47 278.41Z" fill="#6C63FF"/>
<path d="M666.3 235.83C665.24 232.1 662.53 228.88 662.12 225.02C661.75 221.59 663.26 218.27 664.12 214.93C664.98 211.59 664.95 207.51 662.3 205.29C661.86 204.91 661.3 204.57 661.14 204.01C660.82 203.01 661.83 202.1 662.14 201.09C662.71 199.09 660.24 196.88 661.14 194.96C661.65 193.91 662.93 193.54 664.05 193.21C668.33 191.94 672.67 189.12 673.6 184.75C676.95 186.15 680.52 183.52 683.09 180.97C685.66 178.42 688.82 175.51 692.36 176.28L691.57 177.89C697.028 175.908 702.998 175.841 708.5 177.7H706.82C711.646 177.782 716.326 179.365 720.21 182.23C719.78 182.23 719.74 182.87 719.91 183.23C721.31 186.5 724.91 188.23 728.38 189.04C730.47 189.54 732.74 189.9 734.27 191.4C735.8 192.9 735.83 196.03 733.81 196.75C737.929 198.354 741.83 200.471 745.42 203.05C746.42 203.78 747.55 204.77 747.42 206.05C747.277 206.693 747.069 207.319 746.8 207.92C746.6 208.987 746.672 210.088 747.01 211.12L748.12 215.7C749.34 220.79 750.3 226.92 746.59 230.61C747.979 233.205 748.494 236.178 748.06 239.089C747.626 242 746.265 244.693 744.18 246.77C744.474 247.663 744.576 248.609 744.478 249.545C744.381 250.48 744.086 251.384 743.614 252.198C743.141 253.011 742.502 253.715 741.738 254.264C740.973 254.812 740.102 255.193 739.18 255.38C740.41 257.3 739.28 260.04 737.34 261.24C735.4 262.44 732.96 262.45 730.7 262.24C728.44 262.03 726.15 261.52 723.89 261.86C720.6 262.37 717.38 264.61 714.21 263.61C713.028 263.105 711.894 262.496 710.82 261.79C708.6 260.6 706.02 260.33 703.56 259.79C699.366 258.889 695.384 257.191 691.83 254.79C689.474 253.374 687.596 251.284 686.44 248.79C684.24 243.23 687.94 235.94 684.05 231.41C681.77 228.77 677.25 228.73 674.7 230.99C673.43 232.12 673.26 234.5 671.94 235.35C670.099 235.816 668.194 235.978 666.3 235.83Z" fill="#464353"/>
<path opacity="0.1" d="M617.38 522.57C615.959 521.445 614.732 520.094 613.75 518.57C612.765 517.039 612.373 515.2 612.65 513.4C612.26 515.677 612.409 518.013 613.084 520.222C613.76 522.431 614.943 524.451 616.54 526.12C619.05 528.69 623.76 531.21 627.43 530.33C626.91 527.39 619.71 524.55 617.38 522.57Z" fill="black"/>
<path d="M815.2 361.72C815.2 361.72 793.88 349.36 765.74 364.72C737.6 380.08 732.91 470.47 732.91 470.47C732.91 470.47 744.42 562.56 700.04 542.07C700.04 542.07 619.04 516.92 610.93 522.46C610.93 522.46 603.25 522.46 618.6 525.87C633.95 529.28 693.25 548.07 693.25 548.07C693.25 548.07 712.42 554.77 720.54 548.07C728.66 541.37 751.67 548.93 754.66 502.87C756.639 473.844 760.197 444.948 765.32 416.31L773.23 392.86L815.2 361.72Z" fill="#565661"/>
<path d="M817.76 504.14C817.76 504.14 808.38 410.76 823.76 377.07C837.14 347.71 785.4 361.44 771.9 365.44C769.811 366.065 767.988 367.366 766.72 369.14C758.72 380.39 730.02 425.48 738.48 485.81C738.48 485.81 741.89 539.54 720.57 548.06L786.26 526.9C791.59 525.18 797 523.75 802.46 522.51C809.42 520.93 820.76 516.44 817.76 504.14Z" fill="white"/>
<path opacity="0.1" d="M989.97 685.72C1043.78 685.72 1087.41 678.713 1087.41 670.07C1087.41 661.427 1043.78 654.42 989.97 654.42C936.155 654.42 892.53 661.427 892.53 670.07C892.53 678.713 936.155 685.72 989.97 685.72Z" fill="#6C63FF"/>
<path d="M993.1 370.26H986.83V511.43H993.1V370.26Z" fill="#535461"/>
<path d="M1032.51 511L1032.12 517.36L1031.56 526.36L1031.33 530.1L1030.78 539.1L1030.54 542.84L1029.98 551.84L1023.66 653.91C1023.37 658.291 1021.43 662.398 1018.22 665.399C1015.02 668.399 1010.79 670.069 1006.4 670.07H973.53C969.132 670.068 964.9 668.389 961.697 665.375C958.493 662.362 956.56 658.24 956.29 653.85L949.95 551.77L949.4 542.77L949.17 539.03L948.6 530.03L948.37 526.29L947.82 517.29L947.42 510.93C947.351 509.711 947.53 508.491 947.948 507.343C948.365 506.196 949.012 505.145 949.848 504.255C950.684 503.366 951.693 502.656 952.813 502.168C953.932 501.681 955.139 501.426 956.36 501.42H1023.58C1024.81 501.427 1026.02 501.685 1027.14 502.177C1028.27 502.669 1029.28 503.386 1030.11 504.283C1030.95 505.18 1031.59 506.239 1032 507.394C1032.42 508.549 1032.59 509.776 1032.51 511V511Z" fill="#565661"/>
<path d="M1032.12 517.36L1031.56 526.33H948.38L947.82 517.36H1032.12Z" fill="#9D9CB5"/>
<path d="M1031.33 530.08L1030.78 539.06H949.17L948.61 530.08H1031.33Z" fill="#9D9CB5"/>
<path d="M1030.54 542.8L1029.98 551.77H949.96L949.4 542.8H1030.54Z" fill="#9D9CB5"/>
<path d="M938.24 423.17C974.76 449.59 989.97 490.91 989.97 490.91C989.97 490.91 945.97 489.4 909.44 462.98C872.91 436.56 857.72 395.25 857.72 395.25C857.72 395.25 901.73 396.76 938.24 423.17Z" fill="#6C63FF"/>
<path d="M857.72 395.25C857.72 395.25 903.39 420.6 918.05 441.59C932.71 462.58 989.97 490.91 989.97 490.91" stroke="#535461" stroke-width="2" stroke-miterlimit="10"/>
<path d="M961.81 369.95C981.69 384.32 989.97 406.82 989.97 406.82C989.97 406.82 965.97 405.99 946.14 391.62C926.31 377.25 918.04 354.75 918.04 354.75C918.04 354.75 941.94 355.57 961.81 369.95Z" fill="#6C63FF"/>
<path d="M918.04 354.75C918.04 354.75 942.9 368.55 950.87 379.97C958.84 391.39 990.02 406.82 990.02 406.82" stroke="#535461" stroke-width="2" stroke-miterlimit="10"/>
<path d="M1018.85 405.67C996.02 430.76 991.19 463.55 991.19 463.55C991.19 463.55 1023.38 455.65 1046.19 430.55C1069 405.45 1073.85 372.67 1073.85 372.67C1073.85 372.67 1041.68 380.58 1018.85 405.67Z" fill="#6C63FF"/>
<path d="M1073.87 372.68C1073.87 372.68 1044.13 398.4 1036.57 416.12C1029.01 433.84 991.19 463.55 991.19 463.55" stroke="#535461" stroke-width="2" stroke-miterlimit="10"/>
<path d="M556.98 345.27V347.55H489.37V345.7C491.224 345.005 492.979 344.07 494.59 342.92C497.461 340.864 499.801 338.153 501.415 335.013C503.029 331.872 503.87 328.391 503.87 324.86C503.871 323.015 503.639 321.177 503.18 319.39C502.362 316.174 500.835 313.182 498.71 310.633C496.585 308.084 493.917 306.043 490.9 304.66H556.52C553.503 306.043 550.835 308.084 548.71 310.633C546.585 313.182 545.058 316.174 544.24 319.39C543.784 321.177 543.556 323.015 543.56 324.86C543.558 328.391 544.398 331.871 546.01 335.012C547.622 338.153 549.96 340.864 552.83 342.92C554.128 343.846 555.519 344.633 556.98 345.27V345.27Z" fill="#DFE6F5"/>
<path opacity="0.1" d="M556.52 304.66C553.503 306.043 550.835 308.084 548.71 310.633C546.585 313.182 545.058 316.174 544.24 319.39H503.18C502.362 316.174 500.835 313.182 498.71 310.633C496.585 308.084 493.917 306.043 490.9 304.66H556.52Z" fill="black"/>
<path d="M411.96 293.01V305.85C411.96 312.93 417.14 318.68 423.54 318.68H622.45C628.85 318.68 634.04 312.93 634.04 305.85V293.01H411.96Z" fill="#DFE6F5"/>
<path opacity="0.1" d="M556.98 345.27V347.55H489.37V345.7C491.224 345.005 492.979 344.07 494.59 342.92H552.83C554.128 343.846 555.519 344.633 556.98 345.27V345.27Z" fill="black"/>
<path d="M575.93 343.63H470.42C468.548 343.63 467.03 345.146 467.03 347.015C467.03 348.884 468.548 350.4 470.42 350.4H575.93C577.802 350.4 579.32 348.884 579.32 347.015C579.32 345.146 577.802 343.63 575.93 343.63Z" fill="#DFE6F5"/>
<path d="M634.04 152.38C634.04 150.858 633.74 149.352 633.158 147.946C632.575 146.541 631.721 145.264 630.645 144.188C629.568 143.113 628.291 142.26 626.885 141.679C625.478 141.097 623.972 140.799 622.45 140.8H423.54C422.019 140.799 420.513 141.097 419.107 141.679C417.701 142.26 416.424 143.113 415.349 144.189C414.273 145.264 413.42 146.541 412.839 147.947C412.257 149.353 411.959 150.859 411.96 152.38V295.51H634.04V152.38Z" fill="#474157"/>
<path d="M627.98 157.55V280.55C627.981 281.299 627.835 282.042 627.549 282.734C627.263 283.427 626.843 284.057 626.314 284.587C625.785 285.117 625.156 285.538 624.464 285.825C623.771 286.112 623.029 286.26 622.28 286.26H423.72C422.971 286.26 422.229 286.112 421.536 285.825C420.844 285.538 420.215 285.117 419.686 284.587C419.157 284.057 418.737 283.427 418.451 282.734C418.165 282.042 418.019 281.299 418.02 280.55V157.55C418.015 156.549 418.277 155.565 418.78 154.7C419.281 153.833 420.001 153.113 420.868 152.613C421.735 152.112 422.719 151.849 423.72 151.85H622.28C623.792 151.85 625.242 152.451 626.311 153.52C627.379 154.588 627.98 156.038 627.98 157.55V157.55Z" fill="#4C4C78"/>
<path d="M523 148.99C524.475 148.99 525.67 147.795 525.67 146.32C525.67 144.845 524.475 143.65 523 143.65C521.525 143.65 520.33 144.845 520.33 146.32C520.33 147.795 521.525 148.99 523 148.99Z" fill="white"/>
<path d="M523 312.97C526.64 312.97 529.59 310.02 529.59 306.38C529.59 302.74 526.64 299.79 523 299.79C519.36 299.79 516.41 302.74 516.41 306.38C516.41 310.02 519.36 312.97 523 312.97Z" fill="white"/>
<path d="M627.98 157.55H418.04C418.04 156.038 418.641 154.588 419.71 153.52C420.778 152.451 422.228 151.85 423.74 151.85H622.28C623.792 151.85 625.242 152.451 626.311 153.52C627.38 154.588 627.98 156.038 627.98 157.55Z" fill="#C8CAD7"/>
<path d="M423.72 156.13C424.51 156.13 425.15 155.49 425.15 154.7C425.15 153.91 424.51 153.27 423.72 153.27C422.93 153.27 422.29 153.91 422.29 154.7C422.29 155.49 422.93 156.13 423.72 156.13Z" fill="#EDEDF4"/>
<path d="M428 156.13C428.79 156.13 429.43 155.49 429.43 154.7C429.43 153.91 428.79 153.27 428 153.27C427.21 153.27 426.57 153.91 426.57 154.7C426.57 155.49 427.21 156.13 428 156.13Z" fill="#EDEDF4"/>
<path d="M432.28 156.13C433.07 156.13 433.71 155.49 433.71 154.7C433.71 153.91 433.07 153.27 432.28 153.27C431.49 153.27 430.85 153.91 430.85 154.7C430.85 155.49 431.49 156.13 432.28 156.13Z" fill="#EDEDF4"/>
<path d="M452.75 223.625L483.875 240.875C485.438 241.75 486.469 242.531 486.969 243.219C487.5 243.906 487.766 244.781 487.766 245.844C487.766 247.188 487.281 248.359 486.312 249.359C485.344 250.328 484.219 250.812 482.938 250.812C482.094 250.812 480.828 250.344 479.141 249.406L432.781 223.625L479.141 197.844C480.828 196.938 482.078 196.484 482.891 196.484C484.203 196.484 485.344 196.969 486.312 197.938C487.281 198.906 487.766 200.062 487.766 201.406C487.766 202.469 487.5 203.344 486.969 204.031C486.469 204.719 485.438 205.5 483.875 206.375L452.75 223.625ZM540.266 191.469L509.469 257.844C508.688 259.5 507.984 260.578 507.359 261.078C506.547 261.734 505.562 262.062 504.406 262.062C503.094 262.062 501.953 261.594 500.984 260.656C500.047 259.719 499.578 258.656 499.578 257.469C499.578 256.625 499.953 255.391 500.703 253.766L531.594 187.438C532.375 185.781 533.062 184.703 533.656 184.203C534.5 183.547 535.484 183.219 536.609 183.219C537.922 183.219 539.047 183.688 539.984 184.625C540.922 185.531 541.391 186.578 541.391 187.766C541.391 188.609 541.016 189.844 540.266 191.469ZM588.266 223.625L557.141 206.375C555.578 205.5 554.531 204.719 554 204.031C553.5 203.344 553.25 202.469 553.25 201.406C553.25 200.062 553.734 198.906 554.703 197.938C555.672 196.969 556.812 196.484 558.125 196.484C558.938 196.484 560.188 196.938 561.875 197.844L608.234 223.625L561.875 249.406C560.188 250.344 558.938 250.812 558.125 250.812C556.812 250.812 555.672 250.328 554.703 249.359C553.734 248.391 553.25 247.219 553.25 245.844C553.25 244.781 553.5 243.906 554 243.219C554.531 242.531 555.578 241.75 557.141 240.875L588.266 223.625Z" fill="white"/>
</g>
<defs>
<linearGradient id="paint0_linear" x1="386.45" y1="467.74" x2="388.77" y2="467.74" gradientUnits="userSpaceOnUse">
<stop stop-color="#808080" stop-opacity="0.25"/>
<stop offset="0.54" stop-color="#808080" stop-opacity="0.12"/>
<stop offset="1" stop-color="#808080" stop-opacity="0.1"/>
</linearGradient>
<clipPath id="clip0">
<rect width="1130.08" height="738.14" fill="white"/>
</clipPath>
</defs>
</svg>
