<svg width="1039" height="694" viewBox="0 0 1039 694" fill="none" xmlns="http://www.w3.org/2000/svg">
<g clip-path="url(#clip0)">
<path opacity="0.1" d="M615.24 111.4C550.52 109.15 488.88 88.26 430.01 65.4C371.14 42.54 312.85 17.21 249.68 5.10001C209.05 -2.68999 162.59 -3.78999 129.85 17.99C98.35 38.99 88.17 75.14 82.69 108.71C78.58 133.98 76.15 160.56 87.44 184.21C95.27 200.63 109.18 214.43 118.8 230.16C152.26 284.88 128.61 352.36 92.34 405.79C75.34 430.85 55.6 454.79 42.47 481.45C29.34 508.11 23.27 538.7 34.75 565.92C46.14 592.92 73.27 613.16 102.65 627.41C162.34 656.35 232.65 664.64 301.27 669.33C453.09 679.72 605.73 675.22 757.95 670.72C814.29 669.05 870.87 667.36 926.29 658.65C957.07 653.81 988.85 646.13 1011.19 627.65C1039.55 604.12 1046.58 564.27 1027.58 534.77C995.7 485.28 907.58 472.98 885.27 419.87C873 390.64 885.6 358.07 903.42 330.96C941.66 272.79 1005.75 221.77 1009.13 155.28C1011.45 109.62 980.64 63.89 933 42.28C883.06 19.63 813.82 22.48 777 59.97C739.04 98.53 672.38 113.38 615.24 111.4Z" fill="#6C63FF"/>
<path d="M448.73 651.49C447.73 647.87 446.73 644.21 444.73 641.06C442.875 638.389 440.673 635.978 438.18 633.89C430.93 627.31 422.03 620.63 412.42 622.29C409.448 622.947 406.576 623.997 403.88 625.41C402.48 626.06 401.07 626.71 399.63 627.26C395.576 628.955 391.096 629.346 386.81 628.38C384.61 627.79 382.56 626.73 380.39 626.07C379.36 625.76 378.306 625.533 377.24 625.39C379.337 624.452 381.371 623.379 383.33 622.18C394.11 615.58 402.71 603.65 401.51 590.89C401.1 586.6 399.63 582.49 398.17 578.44L394.33 567.82C392.67 563.22 390.95 558.53 387.92 554.71C384.55 550.45 379.75 547.56 374.79 545.41C364.14 540.78 352.5 539.15 341.01 537.57L340.21 537.46V413.33C340.21 411.208 339.367 409.173 337.867 407.673C336.367 406.173 334.332 405.33 332.21 405.33H317.11C316.443 401.25 315.777 397.177 315.11 393.11C313.21 381.5 311.24 369.68 305.89 359.23C302.39 352.39 296.82 345.86 289.31 344.52C287.834 344.387 286.384 344.05 285 343.52C282.8 342.44 281.6 340.04 279.91 338.27C275.55 333.7 268.46 333.63 262.62 331.27C257.46 329.22 253.24 325.36 248.54 322.39C243.84 319.42 238 317.31 232.8 319.24C232.8 319.62 232.73 320 232.69 320.37L229.35 318.83C225.75 317.16 222.08 315.45 219.19 312.71C215.48 309.21 213.5 304.57 211.96 299.64C211.8 299.13 211.65 298.64 211.49 298.09C217.882 291.569 222.209 283.308 223.93 274.34L224.74 276.97C224.922 277.561 225.136 278.142 225.38 278.71C225.793 279.809 226.482 280.783 227.38 281.54C227.636 281.741 227.919 281.906 228.22 282.03C228.496 282.14 228.785 282.213 229.08 282.25C229.495 282.301 229.916 282.271 230.32 282.16C230.996 281.951 231.617 281.592 232.136 281.111C232.655 280.63 233.06 280.038 233.32 279.38C233.479 278.987 233.597 278.578 233.67 278.16C233.709 277.908 233.732 277.655 233.74 277.4C233.74 277.32 233.74 277.24 233.74 277.16C233.74 277.08 233.74 276.81 233.74 276.64C233.74 276.47 233.74 276.46 233.74 276.36C233.74 276.26 233.74 276.03 233.69 275.86V275.6C233.69 275.4 233.63 275.2 233.59 275.01C233.55 274.82 233.59 274.9 233.59 274.85C233.54 274.6 233.48 274.34 233.43 274.09C233.43 274.03 233.43 273.96 233.43 273.9C233.43 273.84 233.34 273.49 233.29 273.28C233.24 273.07 233.22 273.01 233.19 272.87V272.81C233.09 272.41 233 272.02 232.91 271.62C232.183 268.149 231.998 264.587 232.36 261.06C232.958 255.884 233.914 250.755 235.22 245.71L235.43 244.8C235.51 244.45 235.59 244.1 235.66 243.74C235.82 243.02 235.98 242.3 236.13 241.57L236.49 239.73L236.76 238.09V237.88C237.321 234.164 237.439 230.394 237.11 226.65V226.65C236.65 221.42 235.03 216.47 231.48 212.53C228.97 209.74 225.66 207.68 223.33 204.75C221.15 202.01 219.92 198.63 217.66 195.94C211.42 188.49 195.4 182.75 185.57 181.75C174.31 180.61 156.12 183.49 147.04 190.14C143.68 192.59 141.38 196.14 139.04 199.5C134.74 205.75 129.86 211.99 122.97 215.5C120.37 216.82 117.39 217.82 115.66 220.12C114.631 221.679 113.964 223.449 113.71 225.3C112.385 231.811 111.695 238.436 111.65 245.08V245.08C111.65 245.91 111.65 246.74 111.65 247.58C111.67 250.071 112.201 252.532 113.21 254.81C113.37 255.15 113.55 255.48 113.74 255.81L113.86 256.02C115.069 257.749 116.14 259.571 117.06 261.47C117.289 262.002 117.454 262.559 117.55 263.13C117.721 264.595 117.626 266.079 117.27 267.51V267.51C117.27 267.73 117.18 267.95 117.14 268.17L117.05 268.6C117.05 268.75 117.05 268.9 116.97 269.04C116.89 269.47 116.82 269.9 116.76 270.32C116.608 271.477 116.683 272.652 116.98 273.78C117.117 274.409 117.386 275.001 117.768 275.518C118.151 276.035 118.639 276.465 119.2 276.78C119.77 277.053 120.376 277.242 121 277.34C121.63 277.45 122.27 277.52 122.89 277.66C123.687 277.842 124.457 278.128 125.18 278.51C125.872 278.841 126.521 279.258 127.11 279.75C127.401 280.015 127.679 280.295 127.94 280.59C128.468 281.195 128.943 281.844 129.36 282.53C129.573 282.883 129.773 283.243 129.96 283.61C130.677 285.057 131.249 286.571 131.67 288.13C131.93 289.06 132.15 290 132.34 290.94C132.43 291.36 132.51 291.78 132.58 292.19C132.65 292.6 132.72 293.02 132.78 293.43C133.053 293.415 133.322 293.361 133.58 293.27C135.05 292.74 135.87 291.03 136.33 289.37C136.41 289.09 136.48 288.82 136.54 288.55C136.77 287.55 137.01 286.45 137.24 285.4C141.182 293.771 147.538 300.771 155.49 305.5C155.77 306.33 156.04 307.15 156.28 307.99C157.59 312.52 158.22 317.26 155.95 321.22C154.33 324.03 151.61 325.76 148.57 326.96C148.132 326.376 147.568 325.897 146.92 325.56C144.29 324.24 141.13 325.84 138.92 327.81C134.92 331.43 131.66 336.62 126.4 337.81C124.5 338.25 122.4 338.16 120.82 339.32C119.775 340.303 118.9 341.452 118.23 342.72C117.089 344.359 115.554 345.685 113.766 346.576C111.979 347.467 109.996 347.895 108 347.82C106.17 347.73 104 347.31 102.75 348.65C101.82 349.65 101.75 351.23 100.75 352.18C99.41 353.5 97.21 352.86 95.34 352.78C91.78 352.63 88.47 354.93 86.44 357.88C84.41 360.83 83.44 364.36 82.44 367.88V367.94C82.1834 368.127 81.9395 368.331 81.71 368.55C80.7404 369.583 79.9888 370.8 79.5 372.13C71.4129 390.543 66.6397 410.238 65.4 430.31C65.4197 431.288 65.2 432.256 64.76 433.13C64.3126 433.701 63.8211 434.236 63.29 434.73C62.8148 435.312 62.4613 435.983 62.2504 436.704C62.0395 437.425 61.9755 438.181 62.0622 438.927C62.149 439.673 62.3847 440.394 62.7553 441.047C63.126 441.701 63.624 442.273 64.22 442.73C64.5077 442.209 64.868 441.73 65.29 441.31C65.18 441.77 65.08 442.22 65.01 442.63C64.6083 445.547 64.5714 448.504 64.9 451.43C65.8466 465.323 66.8033 479.207 67.77 493.08C68.04 497.01 68.31 500.93 68.67 504.85C69.37 512.437 70.37 519.993 71.67 527.52C71.73 527.86 71.8 528.21 71.89 528.52C63.74 531.11 56.49 535.79 53.44 543.6C52.38 546.3 51.9 549.24 50.6 551.83C49.17 554.67 46.82 556.94 45.26 559.72C42.57 564.5 42.45 570.36 43.43 575.72C45.32 586.17 50.97 595.51 58.43 603.11C58.1 603.11 57.76 603.11 57.43 603.11C54.9927 603.38 52.6531 604.219 50.6 605.56C34.82 614.78 25.8 634.56 29.09 652.62C29.74 656.15 30.87 659.73 33.23 662.42C35.1916 664.558 37.7139 666.104 40.51 666.88C42.2586 667.406 44.0591 667.742 45.88 667.88C58.18 668.88 70.09 663.18 82.42 662.7C86.5045 662.635 90.5892 662.825 94.65 663.27C100.59 663.763 106.54 664.077 112.5 664.21C122.19 664.44 127.64 661.86 133.82 654.62C135.339 652.819 136.607 650.821 137.59 648.68C142.85 648.38 148.66 647.92 152.86 647.58L152.92 648.16C153.15 650.16 153.5 652.46 155.1 653.72C156 654.341 157.023 654.76 158.1 654.95C168.2 657.43 178.42 659.95 188.82 659.95C193.7 659.852 198.572 659.478 203.41 658.83L221.68 656.72C227.004 657.395 232.258 658.539 237.38 660.14C242.66 661.93 247.59 664.59 252.75 666.7C264.75 671.56 277.65 673.3 290.43 675C292.61 675.29 295.11 675.49 296.72 674C298.8 672 298.11 668.66 297.52 665.86C297.28 664.71 297.1 663.56 296.96 662.4C305.584 664.674 314.022 667.602 322.2 671.16L323.63 671.79C324.05 673.97 326.06 675.71 327.99 678.06C328.624 679.052 329.365 679.971 330.2 680.8C331.154 681.42 332.239 681.81 333.37 681.94C346.861 684.454 360.637 685.076 374.3 683.79C377.096 683.409 379.924 683.312 382.74 683.5C384.809 683.782 386.849 684.24 388.84 684.87L400.41 688.19C408.94 690.63 417.67 693.1 426.52 692.55C428.314 692.437 430.097 692.18 431.85 691.78C438.85 690.16 445.37 686.25 448.73 679.96C453.48 671.41 451.29 660.89 448.73 651.49Z" fill="url(#paint0_linear)"/>
<path d="M125.02 649.54C122.91 644.74 120.91 639.22 123.02 634.42C124.397 631.593 126.763 629.37 129.67 628.17C132.546 626.997 135.578 626.249 138.67 625.95C148.374 624.677 158.194 624.543 167.93 625.55C168.64 631.17 167.14 636.87 165.85 642.3C164.68 647.3 164.01 648.04 158.85 648.3C155.51 648.48 125.81 651.31 125.02 649.54Z" fill="#FBBEBE"/>
<path d="M214.07 617.16C293.047 617.16 357.07 599.251 357.07 577.16C357.07 555.069 293.047 537.16 214.07 537.16C135.093 537.16 71.07 555.069 71.07 577.16C71.07 599.251 135.093 617.16 214.07 617.16Z" fill="#464353"/>
<path opacity="0.1" d="M214.07 617.16C293.047 617.16 357.07 599.251 357.07 577.16C357.07 555.069 293.047 537.16 214.07 537.16C135.093 537.16 71.07 555.069 71.07 577.16C71.07 599.251 135.093 617.16 214.07 617.16Z" fill="black"/>
<path d="M239.71 366C234.808 375.472 226.667 382.867 216.77 386.84C210.927 388.969 204.777 390.138 198.56 390.3C191.77 390.61 184.84 390.17 178.46 387.85C169.9 384.75 162.79 378.41 157.46 371.02C152.13 363.63 148.46 355.19 145.27 346.68C143.59 342.25 141.99 337.53 142.78 332.85C147.93 331.68 153.57 329.96 156.23 325.39C158.5 321.47 157.87 316.77 156.56 312.29C156.19 311.02 155.76 309.76 155.33 308.55C154.33 305.65 150.88 300.14 153.33 297.66C154.86 296.09 161.27 295.29 163.48 294.27C170.29 291.13 176.57 286.59 184.05 285.1C190.52 283.81 197.2 285.02 203.66 286.36C204.517 286.485 205.34 286.781 206.08 287.23C206.924 287.941 207.548 288.878 207.88 289.93C209.72 294.41 210.8 299.36 212.28 304.03C213.82 308.92 215.8 313.51 219.51 316.98C222.4 319.69 226.08 321.39 229.68 323.04L238.54 327.1C240.116 327.69 241.545 328.615 242.73 329.81C243.889 331.403 244.581 333.286 244.73 335.25C246.318 345.773 244.562 356.528 239.71 366V366Z" fill="#FBBEBE"/>
<path opacity="0.1" d="M212.24 304.03C205.184 311.376 195.891 316.172 185.816 317.667C175.741 319.162 165.454 317.271 156.57 312.29C156.2 311.02 155.77 309.76 155.34 308.55C154.34 305.65 150.89 300.14 153.34 297.66C154.87 296.09 161.28 295.29 163.49 294.27C170.3 291.13 176.58 286.59 184.06 285.1C190.53 283.81 197.21 285.02 203.67 286.36C204.527 286.485 205.35 286.781 206.09 287.23C206.934 287.941 207.558 288.878 207.89 289.93C209.68 294.41 210.76 299.36 212.24 304.03Z" fill="black"/>
<path d="M179.07 316.16C204.475 316.16 225.07 295.565 225.07 270.16C225.07 244.755 204.475 224.16 179.07 224.16C153.665 224.16 133.07 244.755 133.07 270.16C133.07 295.565 153.665 316.16 179.07 316.16Z" fill="#FBBEBE"/>
<path d="M319.22 419.45L315.44 396.55C313.53 385.06 311.56 373.35 306.22 363C302.71 356.22 297.14 349.76 289.63 348.42C288.151 348.288 286.697 347.952 285.31 347.42C283.11 346.36 281.91 343.98 280.22 342.22C275.86 337.7 268.76 337.63 262.92 335.33C257.76 333.33 253.54 329.48 248.84 326.54C244.14 323.6 238.29 321.54 233.09 323.42C232.25 332.37 231.36 341.52 227.56 349.67C225.087 354.976 221.459 359.662 216.942 363.385C212.424 367.108 207.132 369.775 201.452 371.189C195.771 372.604 189.847 372.731 184.111 371.562C178.375 370.392 172.973 367.956 168.3 364.43C159.39 357.72 153.68 347.37 151.02 336.54C150.37 333.9 149.63 330.87 147.2 329.66C144.57 328.34 141.41 329.94 139.2 331.88C135.2 335.47 131.93 340.61 126.67 341.82C124.77 342.26 122.67 342.17 121.09 343.32C120.04 344.289 119.161 345.428 118.49 346.69C117.339 348.316 115.801 349.631 114.015 350.514C112.229 351.397 110.251 351.822 108.26 351.75C106.43 351.66 104.26 351.24 103.01 352.57C102.08 353.57 102.01 355.13 101.01 356.06C99.66 357.37 97.47 356.73 95.59 356.66C92.03 356.51 88.72 358.79 86.68 361.66C84.64 364.53 83.68 368.08 82.68 371.52C93.61 395.86 103.61 420.23 114.54 444.57C115.052 445.487 115.324 446.519 115.33 447.57C115.111 448.66 114.646 449.686 113.97 450.57C108.61 459.18 108.78 470.01 109.37 480.13C109.96 490.25 110.68 500.94 106.16 510.01C104.93 512.5 103.33 514.78 102.16 517.27C99.42 522.91 98.43 540.95 100.03 547.01H326.11C321.8 535.16 323.44 511.38 324.34 498.8C324.97 490 323.34 481.21 322.64 472.41C321.11 454.44 322.19 437.39 319.22 419.45Z" fill="#6C63FF"/>
<path d="M65.36 445.65C64.9599 448.544 64.9196 451.476 65.24 454.38L68.11 495.65C68.38 499.54 68.65 503.42 69.01 507.3C69.7 514.83 70.73 522.3 72.01 529.76C72.0388 530.819 72.4867 531.824 73.2554 532.553C74.0241 533.282 75.0507 533.677 76.11 533.65C88.76 536.33 101.83 536.22 114.74 535.49C134.44 534.39 154.11 531.88 173.84 532.31C178.92 532.42 184.84 532.31 187.92 528.31C191 524.31 189.21 517.84 185.19 514.61C181.17 511.38 175.71 510.61 170.55 510.61C163.72 510.54 156.89 511.51 150.08 511.11C143.83 510.74 137.72 509.23 131.66 507.72L114.66 503.49C115.31 498.34 117.27 493.49 119.13 488.6C122.47 479.93 125.59 470.97 125.65 461.68C125.71 452.39 122.21 442.62 114.6 437.3C108.34 432.93 100.28 432.12 92.65 432.3C87.1 432.46 77.51 431.13 72.44 433.3C68.43 435.06 66.11 441.72 65.36 445.65Z" fill="#FBBEBE"/>
<path d="M330.79 540.01C334.12 538.74 337.79 539.2 341.36 539.68C352.85 541.25 364.51 542.86 375.16 547.45C380.16 549.59 384.92 552.45 388.3 556.66C391.3 560.45 393.05 565.09 394.71 569.66L398.55 580.18C400.01 584.18 401.49 588.26 401.9 592.51C403.1 605.1 394.49 616.97 383.66 623.51C372.83 630.05 360.08 632.38 347.66 634.82C335.24 637.26 322.77 639.96 310.4 642.82C304.63 644.317 298.777 645.469 292.87 646.27C279.63 647.77 265.79 645.56 253.21 649.94C248.21 651.69 243.3 654.29 238.11 655.5C234.663 656.225 231.177 656.756 227.67 657.09L203.86 659.81C199.018 660.458 194.144 660.832 189.26 660.93C178.86 660.93 168.63 658.47 158.53 656.01C157.456 655.822 156.434 655.409 155.53 654.8C153.93 653.54 153.58 651.31 153.35 649.29C152.33 640.35 151.437 631.4 150.67 622.44C150.43 619.53 150.25 616.38 151.84 613.93C153.84 610.93 157.74 609.99 161.3 609.41C176.396 606.941 191.688 605.879 206.98 606.24C212.79 600.43 222.37 600.4 229.98 597.24C232.78 595.954 235.489 594.481 238.09 592.83C251.703 584.888 266.915 580.081 282.62 578.76C285.695 578.666 288.751 578.23 291.73 577.46C297.62 575.63 302.99 570.65 309.04 571.87C309.79 569.8 310.31 567.03 312.04 565.61C312.9 564.88 313.96 564.39 314.75 563.61C316.42 561.92 316.57 559.26 316.32 556.9C316.07 554.54 315.51 552.12 316.12 549.82C316.374 548.949 316.747 548.118 317.23 547.35C320.23 542.17 324.76 539.51 330.79 540.01Z" fill="#464353"/>
<path opacity="0.05" d="M330.79 540.01C334.12 538.74 337.79 539.2 341.36 539.68C352.85 541.25 364.51 542.86 375.16 547.45C380.16 549.59 384.92 552.45 388.3 556.66C391.3 560.45 393.05 565.09 394.71 569.66L398.55 580.18C400.01 584.18 401.49 588.26 401.9 592.51C403.1 605.1 394.49 616.97 383.66 623.51C372.83 630.05 360.08 632.38 347.66 634.82C335.24 637.26 322.77 639.96 310.4 642.82C304.63 644.317 298.777 645.469 292.87 646.27C279.63 647.77 265.79 645.56 253.21 649.94C248.21 651.69 243.3 654.29 238.11 655.5C234.663 656.225 231.177 656.756 227.67 657.09L203.86 659.81C199.018 660.458 194.144 660.832 189.26 660.93C178.86 660.93 168.63 658.47 158.53 656.01C157.456 655.822 156.434 655.409 155.53 654.8C153.93 653.54 153.58 651.31 153.35 649.29C152.33 640.35 151.437 631.4 150.67 622.44C150.43 619.53 150.25 616.38 151.84 613.93C153.84 610.93 157.74 609.99 161.3 609.41C176.396 606.941 191.688 605.879 206.98 606.24C212.79 600.43 222.37 600.4 229.98 597.24C232.78 595.954 235.489 594.481 238.09 592.83C251.703 584.888 266.915 580.081 282.62 578.76C285.695 578.666 288.751 578.23 291.73 577.46C297.62 575.63 302.99 570.65 309.04 571.87C309.79 569.8 310.31 567.03 312.04 565.61C312.9 564.88 313.96 564.39 314.75 563.61C316.42 561.92 316.57 559.26 316.32 556.9C316.07 554.54 315.51 552.12 316.12 549.82C316.374 548.949 316.747 548.118 317.23 547.35C320.23 542.17 324.76 539.51 330.79 540.01Z" fill="black"/>
<path d="M134.22 655.72C128.03 662.89 122.58 665.45 112.89 665.22C106.93 665.08 100.977 664.77 95.03 664.29C90.9654 663.851 86.8778 663.66 82.79 663.72C70.45 664.2 58.54 669.85 46.23 668.86C44.4098 668.717 42.6098 668.382 40.86 667.86C38.0674 667.091 35.5435 665.56 33.57 663.44C31.21 660.77 30.08 657.23 29.43 653.73C26.14 635.79 35.16 616.25 50.95 607.12C53.0102 605.789 55.3521 604.957 57.79 604.69C60.1805 604.68 62.5436 605.199 64.71 606.21L64.86 606.27C71.2751 608.91 77.1014 612.798 82 617.71C82.7432 618.561 83.63 619.275 84.62 619.82C85.608 620.193 86.6539 620.39 87.71 620.4L100.85 621.23C103.076 621.296 105.289 621.602 107.45 622.14C109.832 622.972 112.152 623.974 114.39 625.14C121.46 628.3 129.3 629.14 136.94 630.36C137.676 630.401 138.379 630.682 138.94 631.16C139.245 631.539 139.457 631.984 139.56 632.46C140.634 636.479 140.708 640.699 139.778 644.753C138.847 648.807 136.939 652.572 134.22 655.72V655.72Z" fill="#3F3D56"/>
<path opacity="0.1" d="M64.86 606.28C59.762 611.148 55.3393 616.677 51.71 622.72C45.886 632.693 42.2267 643.78 40.97 655.26C40.4934 659.448 40.4566 663.674 40.86 667.87C38.0674 667.101 35.5435 665.57 33.57 663.45C31.21 660.78 30.08 657.24 29.43 653.74C26.14 635.8 35.16 616.26 50.95 607.13C53.0102 605.799 55.3521 604.967 57.79 604.7C60.1805 604.69 62.5436 605.209 64.71 606.22L64.86 606.28Z" fill="black"/>
<path d="M319.35 631.16C326.7 630.96 334.95 630.59 340.35 635.54C345.5 640.22 346.18 647.94 346.52 654.89L346.91 662.96C347.03 665.42 347.13 667.96 346.14 670.24C344.38 674.24 339.55 676.17 335.14 675.94C330.73 675.71 326.68 673.78 322.65 672.04C311.709 667.327 300.317 663.738 288.65 661.33C289.03 655.75 289.663 650.197 290.55 644.67C291.16 640.84 291.26 634.43 293.82 631.25C296.53 627.89 300.06 629.71 303.74 630.33C308.904 631.118 314.132 631.396 319.35 631.16V631.16Z" fill="#FBBEBE"/>
<path d="M125.11 550.07C125.11 551.07 123.54 550.07 123.4 549C122.3 540.91 115.88 534.24 108.4 531C100.92 527.76 92.4 527.59 84.3 528.36C72.05 529.52 58.3 534.21 53.82 545.66C52.76 548.34 52.28 551.24 50.98 553.81C49.54 556.63 47.19 558.88 45.63 561.62C42.94 566.36 42.83 572.17 43.8 577.53C46.41 591.83 56.19 604.06 68.04 612.53C79.89 621 93.74 626.06 107.55 630.62C144.067 642.663 181.532 651.612 219.55 657.37C225.71 658.3 231.93 659.16 237.83 661.14C243.11 662.91 248.05 665.56 253.21 667.64C265.21 672.46 278.12 674.18 290.91 675.87C293.09 676.15 295.59 676.35 297.2 674.87C299.28 672.94 298.59 669.58 298 666.81C295.829 656.278 297.65 645.315 303.11 636.05C305.25 632.45 308.03 628.76 307.63 624.59C307.15 619.73 302.31 616.29 297.49 615.51C292.67 614.73 287.77 615.88 282.93 616.51C281.26 616.73 279.44 616.87 277.98 616.02C277.261 615.534 276.608 614.956 276.04 614.3C272.706 611.084 268.438 609.006 263.85 608.364C259.262 607.723 254.588 608.551 250.5 610.73C248.71 611.73 246 609.5 244.14 608.66L223.11 599.14C198.95 588.21 174.67 577.23 149.11 570.31C147.071 569.909 145.132 569.103 143.41 567.94C142.14 566.94 141.23 565.58 140.06 564.47C137.51 562.06 133.96 561.1 130.9 559.39C127.84 557.68 124.41 553.5 125.11 550.07Z" fill="#464353"/>
<path d="M449.32 680.76C445.96 686.99 439.44 690.87 432.44 692.47C430.683 692.866 428.898 693.121 427.1 693.23C418.25 693.78 409.51 691.33 400.98 688.91L389.4 685.65C387.409 685.023 385.368 684.568 383.3 684.29C380.484 684.102 377.656 684.199 374.86 684.58C361.174 685.853 347.377 685.234 333.86 682.74C332.729 682.618 331.643 682.231 330.69 681.61C329.855 680.792 329.114 679.883 328.48 678.9C325.33 675.11 321.94 672.9 325.67 667.9C327.82 665 331.81 663.55 333.48 660.22C335.15 656.89 334.08 652.16 333.09 648.72C331.74 643.97 327.3 641.92 325.71 637.56C324.52 634.27 326.52 630.45 329.53 628.66C332.54 626.87 336.26 626.73 339.73 627.19C343.2 627.65 346.6 628.63 350.09 628.9C360.35 629.72 370.84 624.43 380.69 627.41C382.86 628.07 384.91 629.12 387.11 629.7C391.399 630.659 395.879 630.272 399.94 628.59C401.38 628.05 402.79 627.4 404.19 626.76C406.89 625.354 409.765 624.315 412.74 623.67C422.35 622.02 431.26 628.67 438.51 635.16C440.999 637.226 443.201 639.613 445.06 642.26C447.06 645.38 448.12 649.01 449.06 652.59C451.71 661.84 453.9 672.26 449.32 680.76Z" fill="#3F3D56"/>
<path opacity="0.1" d="M449.32 680.76C445.96 686.99 439.44 690.87 432.44 692.47C435.163 687.18 436.39 681.246 435.99 675.31C435.39 665.8 431.21 656.84 425.88 648.94C422.601 644.077 418.871 639.534 414.74 635.37C411.56 632.17 407.65 629.63 404.23 626.7C406.93 625.294 409.805 624.255 412.78 623.61C422.39 621.96 431.3 628.61 438.55 635.1C441.039 637.166 443.241 639.553 445.1 642.2C447.1 645.32 448.16 648.95 449.1 652.53C451.71 661.84 453.9 672.26 449.32 680.76Z" fill="black"/>
<path d="M82.11 372.26C81.1358 373.28 80.3804 374.488 79.89 375.81C71.8066 394.027 67.0321 413.539 65.79 433.43C65.8117 434.4 65.5881 435.36 65.14 436.22C64.698 436.793 64.2061 437.325 63.67 437.81C63.1831 438.387 62.8198 439.058 62.6026 439.781C62.3853 440.504 62.3186 441.264 62.4067 442.014C62.4948 442.763 62.7358 443.487 63.1148 444.14C63.4937 444.793 64.0026 445.362 64.61 445.81C66.26 442.7 70.21 441.69 73.72 441.42C90.53 440.09 106.95 447.91 123.81 447.32C122.62 443.21 120.91 439.26 119.94 435.1C115.65 416.63 126.35 396.52 119.79 378.73C118.48 375.17 116.29 371.67 112.84 370.11C111.412 369.533 109.917 369.137 108.39 368.93C104.13 368.16 95.65 364.87 91.53 366.19C90.01 366.68 89.41 368.11 88.15 368.97C86.24 370.2 83.7 370.65 82.11 372.26Z" fill="#6C63FF"/>
<path d="M332.6 408.66H125.54C121.138 408.66 117.57 412.228 117.57 416.63V542.69C117.57 547.092 121.138 550.66 125.54 550.66H332.6C337.002 550.66 340.57 547.092 340.57 542.69V416.63C340.57 412.228 337.002 408.66 332.6 408.66Z" fill="#3F3D56"/>
<path d="M228.57 485.66C231.884 485.66 234.57 482.974 234.57 479.66C234.57 476.346 231.884 473.66 228.57 473.66C225.256 473.66 222.57 476.346 222.57 479.66C222.57 482.974 225.256 485.66 228.57 485.66Z" fill="white"/>
<path d="M147.29 195.5C143.93 197.93 141.63 201.42 139.29 204.77C134.98 210.96 130.1 217.14 123.21 220.59C120.6 221.9 117.62 222.89 115.89 225.17C114.863 226.712 114.197 228.465 113.94 230.3C112.62 236.751 111.93 243.315 111.88 249.9C111.88 253.18 112.02 256.56 113.47 259.54C114.84 262.34 117.31 264.71 117.82 267.76C118.21 270.14 117.33 272.51 117.02 274.9C116.71 277.29 117.25 280.12 119.46 281.26C120.651 281.708 121.894 282 123.16 282.13C129.81 283.61 132.04 291.41 133.05 297.86C135.31 297.73 136.33 295.14 136.8 293.03L143.73 262.22C144.48 258.88 145.73 255.01 149.06 253.84C151.29 253.07 153.73 253.79 156.06 253.99C165.21 254.74 172.95 247.67 181.9 245.72C184.765 245.142 187.694 244.947 190.61 245.14C197.67 245.49 205.88 248.39 207.38 254.98C207.63 256.05 207.78 257.33 208.78 257.86C209.78 258.39 210.83 257.94 211.88 257.86C216.36 257.41 219 262.45 220.29 266.57L224.99 281.57C225.69 283.84 226.87 286.51 229.33 286.8C231.6 287.08 233.53 284.93 233.87 282.8C234.21 280.67 233.47 278.46 232.98 276.32C230.77 266.47 234.15 256.39 236.21 246.52C238.27 236.65 238.64 225.31 231.73 217.71C229.22 214.96 225.92 212.91 223.58 210.01C221.4 207.29 220.17 203.95 217.91 201.28C211.66 193.91 195.63 188.22 185.8 187.28C174.57 186.06 156.37 188.91 147.29 195.5Z" fill="#3F3D56"/>
<g opacity="0.1">
<path opacity="0.1" d="M229.37 279.8C226.91 279.5 225.73 276.8 225.03 274.57C223.463 269.563 221.897 264.563 220.33 259.57C219.04 255.44 216.4 250.4 211.92 250.86C210.87 250.97 209.74 251.38 208.82 250.86C207.9 250.34 207.67 249.05 207.42 247.98C205.92 241.38 197.71 238.49 190.65 238.14C187.734 237.948 184.806 238.14 181.94 238.71C172.99 240.71 165.25 247.71 156.1 246.98C153.74 246.79 151.3 246.07 149.1 246.84C145.73 248 144.52 251.84 143.77 255.22L136.84 286.02C136.37 288.14 135.35 290.73 133.09 290.85C132.09 284.41 129.85 276.61 123.2 275.13C121.936 274.991 120.694 274.699 119.5 274.26C118.63 273.785 117.949 273.026 117.57 272.11C117.39 273.04 117.18 273.97 117.06 274.9C116.76 277.28 117.29 280.12 119.5 281.26C120.691 281.708 121.934 282 123.2 282.13C129.85 283.61 132.08 291.41 133.09 297.86C135.35 297.73 136.37 295.14 136.84 293.03L143.77 262.22C144.52 258.88 145.77 255.01 149.1 253.84C151.33 253.07 153.77 253.79 156.1 253.99C165.25 254.74 172.99 247.67 181.94 245.72C184.805 245.142 187.734 244.947 190.65 245.14C197.71 245.49 205.92 248.39 207.42 254.98C207.67 256.05 207.82 257.33 208.82 257.86C209.82 258.39 210.87 257.94 211.92 257.86C216.4 257.41 219.04 262.45 220.33 266.57C221.89 271.577 223.457 276.577 225.03 281.57C225.73 283.84 226.91 286.51 229.37 286.8C231.64 287.08 233.57 284.93 233.91 282.8C234.064 281.008 233.86 279.203 233.31 277.49C232.953 278.22 232.389 278.828 231.688 279.239C230.988 279.65 230.181 279.845 229.37 279.8V279.8Z" fill="black"/>
<path opacity="0.1" d="M117.83 260.76C117.32 257.71 114.83 255.34 113.48 252.54C112.612 250.651 112.11 248.616 112 246.54C112 247.66 111.9 248.78 111.89 249.91C111.89 253.19 112.03 256.57 113.48 259.55C114.59 261.82 116.42 263.82 117.34 266.13C117.825 264.384 117.991 262.565 117.83 260.76V260.76Z" fill="black"/>
<path opacity="0.1" d="M236.25 239.48C234.43 248.2 231.59 257.08 232.47 265.82C233.04 259.37 234.92 252.88 236.25 246.48C237.359 241.62 237.75 236.623 237.41 231.65C237.193 234.282 236.805 236.898 236.25 239.48Z" fill="black"/>
</g>
<g opacity="0.8">
<path d="M330.04 290.49H955.1" stroke="#3F3D56" stroke-width="3" stroke-miterlimit="10"/>
<path d="M385.57 290.48C385.57 290.48 428.983 285.032 405.5 358.5C370.5 468 438 439 438 439" stroke="#3F3D56" stroke-width="3" stroke-miterlimit="10"/>
<path opacity="0.8" d="M576.41 291C576.41 291 642.616 291 611 356.5C530.39 523.5 618.41 517.104 618.41 517.104" stroke="#3F3D56" stroke-width="3" stroke-miterlimit="10"/>
<path opacity="0.8" d="M714.36 516.694L627.29 517.094" stroke="#3F3D56" stroke-width="3" stroke-miterlimit="10"/>
<path d="M330.04 308.74C340.119 308.74 348.29 300.569 348.29 290.49C348.29 280.411 340.119 272.24 330.04 272.24C319.961 272.24 311.79 280.411 311.79 290.49C311.79 300.569 319.961 308.74 330.04 308.74Z" fill="#6C63FF"/>
<path d="M442.29 463.5C452.369 463.5 460.54 455.329 460.54 445.25C460.54 435.171 452.369 427 442.29 427C432.211 427 424.04 435.171 424.04 445.25C424.04 455.329 432.211 463.5 442.29 463.5Z" fill="#3ACC6C"/>
<path d="M442.29 308.74C452.369 308.74 460.54 300.569 460.54 290.49C460.54 280.411 452.369 272.24 442.29 272.24C432.211 272.24 424.04 280.411 424.04 290.49C424.04 300.569 432.211 308.74 442.29 308.74Z" fill="#6C63FF"/>
<path d="M514.73 308.74C524.809 308.74 532.98 300.569 532.98 290.49C532.98 280.411 524.809 272.24 514.73 272.24C504.651 272.24 496.48 280.411 496.48 290.49C496.48 300.569 504.651 308.74 514.73 308.74Z" fill="#6C63FF"/>
<path d="M618.71 535.074C628.789 535.074 636.96 526.904 636.96 516.824C636.96 506.745 628.789 498.574 618.71 498.574C608.631 498.574 600.46 506.745 600.46 516.824C600.46 526.904 608.631 535.074 618.71 535.074Z" fill="#FF6584"/>
<path d="M714.39 535.074C724.469 535.074 732.64 526.904 732.64 516.824C732.64 506.745 724.469 498.574 714.39 498.574C704.311 498.574 696.14 506.745 696.14 516.824C696.14 526.904 704.311 535.074 714.39 535.074Z" fill="#FF6584"/>
<path d="M732.04 308.74C742.119 308.74 750.29 300.569 750.29 290.49C750.29 280.411 742.119 272.24 732.04 272.24C721.961 272.24 713.79 280.411 713.79 290.49C713.79 300.569 721.961 308.74 732.04 308.74Z" fill="#6C63FF"/>
<path d="M950.48 308.74C960.559 308.74 968.73 300.569 968.73 290.49C968.73 280.411 960.559 272.24 950.48 272.24C940.401 272.24 932.23 280.411 932.23 290.49C932.23 300.569 940.401 308.74 950.48 308.74Z" fill="#6C63FF"/>
<path d="M861.12 308.74C871.199 308.74 879.37 300.569 879.37 290.49C879.37 280.411 871.199 272.24 861.12 272.24C851.041 272.24 842.87 280.411 842.87 290.49C842.87 300.569 851.041 308.74 861.12 308.74Z" fill="#6C63FF"/>
</g>
<g opacity="0.1">
<path opacity="0.1" d="M86.35 299.36C86.35 299.36 11.58 267.92 1.78002 324.65C1.78002 324.65 -3.32998 333.49 3.78002 340.79C3.78002 340.79 5.31002 336.87 12.53 340.92C15.1088 342.346 17.848 343.461 20.69 344.24C24.5281 345.299 28.6064 345.081 32.31 343.62V343.62C32.31 343.62 56.9 342.29 77.58 310.12C77.58 310.12 86.45 304.64 86.89 302.58L72.07 303.58C72.07 303.58 73.21 314.43 67.07 320.94C67.07 320.94 72.51 304.1 69.9 303.63C69.37 303.53 62.07 304.49 62.07 304.49C62.07 304.49 63.96 323.36 54.07 333.12C54.07 333.12 63.25 313.93 59.26 304.83L48.32 306.94C48.32 306.94 51.32 326.79 40.5 338.33C40.5 338.33 49.4 317.93 45.96 307.57L35.49 311.09C35.49 311.09 38.01 330.5 28.96 340.09C28.96 340.09 36.86 315.48 33.14 312.09C33.14 312.09 23.72 315.91 21.71 318.09C21.71 318.09 23.2 332.09 17.45 337.14C17.45 337.14 20.98 320.14 19.23 319.44C19.23 319.44 8.29002 327.68 4.95002 334.79C4.95002 334.79 9.11003 323.93 17.86 317.79C17.86 317.79 10.51 316.55 4.86003 319.62C4.86003 319.62 8.64003 312.41 20.51 315.83C20.51 315.83 29.3 309.74 31.06 309.83C31.06 309.83 19.83 304.83 11.72 305.45C11.72 305.45 20.42 300.45 33.8 308.8L44.25 305.03C44.25 305.03 29.75 297.6 22.49 297.63C22.49 297.63 32.15 293.89 46.96 304.29L57.66 302.11C57.66 302.11 45.66 294.76 37.57 293.05C37.57 293.05 47.27 291.51 60.75 301.6L68.06 300.99C68.06 300.99 59.21 295.77 56.53 294.5C53.85 293.23 53.97 292.41 53.97 292.41C60.3298 293.499 66.263 296.331 71.11 300.59C71.11 300.59 86.29 300.29 86.35 299.36Z" fill="#6C63FF"/>
</g>
<g opacity="0.1">
<path opacity="0.1" d="M83.59 243C83.59 243 57.11 181.73 18.96 209.83C18.96 209.83 10.9 212.17 10.96 220.53C10.96 220.53 14.1 219.07 16.09 225.6C16.8197 227.916 17.827 230.136 19.09 232.21C20.7592 235.029 23.3056 237.224 26.34 238.46C26.34 238.46 41.71 251.68 72.34 244.35C72.34 244.35 80.74 246.14 82.17 245.18L72.81 237.31C72.81 237.31 67.3 244.41 59.92 244.75C59.92 244.75 72.75 237.85 71.47 236.08C71.21 235.72 66.32 232.14 66.32 232.14C66.32 232.14 56.7 244.42 45.32 244.61C45.32 244.61 61.71 238.43 64.52 230.76L56.82 225.76C56.82 225.76 47.11 239.27 34.11 239.97C34.11 239.97 51.02 232.92 54.88 224.8L46.65 220.93C46.65 220.93 37.09 233.93 26.28 234.42C26.28 234.42 45 224.3 44.71 220.17C44.71 220.17 36.94 217.07 34.47 217.25C34.47 217.25 27.4 226.4 21.09 226.14C21.09 226.14 32.88 218.05 32.24 216.64C32.24 216.64 21.04 215.3 15.01 217.64C15.01 217.64 23.67 213.56 32.36 214.9C32.36 214.9 28.7 209.97 23.61 208.6C23.61 208.6 29.97 206.47 35.07 215.25C35.07 215.25 43.75 216.65 44.77 217.69C44.77 217.69 40.96 208.3 35.77 204.07C35.77 204.07 43.77 206.07 46.97 218.64L55.33 222.35C55.33 222.35 50.95 209.67 46.61 205.56C46.61 205.56 54.48 208.84 57.36 223.46L64.96 228.25C64.96 228.25 62.02 217.05 58.19 211.42C58.19 211.42 64.83 216.04 67.08 229.71L71.78 233.51C71.78 233.51 69.49 225.37 68.62 223.09C67.75 220.81 68.29 220.39 68.29 220.39C71.4489 224.678 73.35 229.761 73.78 235.07C73.78 235.07 83.02 243.51 83.59 243Z" fill="#6C63FF"/>
</g>
<path opacity="0.7" d="M801.175 155.141C791.812 154.422 782.443 156.466 774.252 161.014C766.062 165.562 759.419 172.411 755.161 180.694C750.904 188.977 749.223 198.324 750.333 207.552C751.442 216.78 755.291 225.475 761.394 232.539C767.496 239.603 775.578 244.718 784.618 247.239C793.658 249.759 803.25 249.571 812.182 246.698C821.114 243.826 828.985 238.398 834.8 231.101C840.615 223.803 844.113 214.964 844.853 205.699C845.344 199.541 844.604 193.347 842.674 187.473C840.744 181.598 837.663 176.157 833.606 171.461C829.55 166.765 824.597 162.907 819.033 160.107C813.468 157.306 807.4 155.619 801.175 155.141ZM800.451 164.205C808.043 164.77 815.294 167.551 821.286 172.197C827.279 176.843 831.742 183.144 834.112 190.302C836.482 197.461 836.651 205.154 834.598 212.407C832.544 219.661 828.361 226.148 822.579 231.047C816.796 235.946 809.674 239.037 802.114 239.927C794.555 240.817 786.899 239.467 780.115 236.048C773.332 232.629 767.727 227.294 764.011 220.72C760.295 214.146 758.634 206.628 759.24 199.119C759.626 194.148 760.998 189.301 763.279 184.855C765.56 180.41 768.704 176.452 772.531 173.209C776.359 169.967 780.795 167.502 785.585 165.957C790.376 164.412 795.428 163.817 800.451 164.205ZM825.332 190.928L821.351 186.295C821.159 186.064 820.923 185.873 820.655 185.733C820.387 185.594 820.093 185.509 819.792 185.484C819.49 185.459 819.186 185.494 818.899 185.587C818.611 185.681 818.345 185.83 818.117 186.027L789.006 210.489L778.466 198.202C778.274 197.967 778.035 197.773 777.765 197.632C777.496 197.49 777.2 197.404 776.895 197.379C776.591 197.354 776.284 197.39 775.995 197.486C775.705 197.581 775.437 197.733 775.209 197.933L770.527 201.872C770.294 202.064 770.103 202.3 769.964 202.565C769.825 202.831 769.742 203.122 769.719 203.421C769.695 203.719 769.733 204.019 769.829 204.303C769.925 204.587 770.078 204.848 770.278 205.073L786.269 223.716C786.461 223.948 786.698 224.139 786.966 224.278C787.234 224.417 787.528 224.502 787.829 224.527C788.131 224.552 788.434 224.517 788.722 224.424C789.01 224.331 789.276 224.181 789.504 223.985L825.061 194.129C825.295 193.939 825.488 193.704 825.629 193.439C825.77 193.174 825.855 192.884 825.881 192.585C825.906 192.287 825.871 191.986 825.776 191.702C825.682 191.417 825.531 191.154 825.332 190.928Z" fill="#3ACC6C"/>
<rect x="636.812" y="478" width="97.3386" height="13.8756" rx="3" transform="rotate(45 636.812 478)" fill="white"/>
<rect x="705.64" y="487.812" width="97.3386" height="13.8756" rx="3" transform="rotate(135 705.64 487.812)" fill="white"/>
<rect x="368.812" y="337" width="97.3386" height="13.8756" rx="3" transform="rotate(45 368.812 337)" fill="white"/>
<rect x="437.64" y="346.812" width="97.3386" height="13.8756" rx="3" transform="rotate(135 437.64 346.812)" fill="white"/>
</g>
<defs>
<linearGradient id="paint0_linear" x1="240.07" y1="692.66" x2="240.07" y2="181.46" gradientUnits="userSpaceOnUse">
<stop stop-color="#808080" stop-opacity="0.25"/>
<stop offset="0.54" stop-color="#808080" stop-opacity="0.12"/>
<stop offset="1" stop-color="#808080" stop-opacity="0.1"/>
</linearGradient>
<clipPath id="clip0">
<rect width="1038.23" height="693.31" fill="white"/>
</clipPath>
</defs>
</svg>
