<?xml version="1.0" encoding="UTF-8" standalone="no"?>
<!DOCTYPE svg PUBLIC "-//W3C//DTD SVG 1.1//EN"
 "http://www.w3.org/Graphics/SVG/1.1/DTD/svg11.dtd">
<!-- Generated by graphviz version 9.0.0 (20230911.1827)
 -->
<!-- Title: dependency&#45;cruiser output Pages: 1 -->
<svg width="508pt" height="1060pt"
 viewBox="0.00 0.00 508.25 1060.00" xmlns="http://www.w3.org/2000/svg" xmlns:xlink="http://www.w3.org/1999/xlink">
<g id="graph0" class="graph" transform="scale(1 1) rotate(0) translate(4 1056)">
<title>dependency&#45;cruiser output</title>
<polygon fill="white" stroke="none" points="-4,4 -4,-1056 504.25,-1056 504.25,4 -4,4"/>
<g id="clust1" class="cluster">
<title>cluster_src</title>
<path fill="#ffffff" stroke="black" stroke-width="2" d="M20,-8C20,-8 480.25,-8 480.25,-8 486.25,-8 492.25,-14 492.25,-20 492.25,-20 492.25,-1032 492.25,-1032 492.25,-1038 486.25,-1044 480.25,-1044 480.25,-1044 20,-1044 20,-1044 14,-1044 8,-1038 8,-1032 8,-1032 8,-20 8,-20 8,-14 14,-8 20,-8"/>
<text text-anchor="middle" x="250.12" y="-1031.45" font-family="Helvetica,sans-Serif" font-weight="bold" font-size="9.00">src</text>
</g>
<g id="clust2" class="cluster">
<title>cluster_src/services</title>
<path fill="#ffffff" stroke="black" stroke-width="2" d="M28,-16C28,-16 472.25,-16 472.25,-16 478.25,-16 484.25,-22 484.25,-28 484.25,-28 484.25,-1006 484.25,-1006 484.25,-1012 478.25,-1018 472.25,-1018 472.25,-1018 28,-1018 28,-1018 22,-1018 16,-1012 16,-1006 16,-1006 16,-28 16,-28 16,-22 22,-16 28,-16"/>
<text text-anchor="middle" x="250.12" y="-1005.45" font-family="Helvetica,sans-Serif" font-weight="bold" font-size="9.00">services</text>
</g>
<g id="clust5" class="cluster">
<title>cluster_src/services/dom</title>
<path fill="#ffffff" stroke="black" stroke-width="2" d="M36,-268C36,-268 291,-268 291,-268 297,-268 303,-274 303,-280 303,-280 303,-410 303,-410 303,-416 297,-422 291,-422 291,-422 36,-422 36,-422 30,-422 24,-416 24,-410 24,-410 24,-280 24,-280 24,-274 30,-268 36,-268"/>
<text text-anchor="middle" x="163.5" y="-409.45" font-family="Helvetica,sans-Serif" font-weight="bold" font-size="9.00">dom</text>
</g>
<g id="clust15" class="cluster">
<title>cluster_src/services/url</title>
<path fill="#ffffff" stroke="black" stroke-width="2" d="M239.12,-910C239.12,-910 381.75,-910 381.75,-910 387.75,-910 393.75,-916 393.75,-922 393.75,-922 393.75,-980 393.75,-980 393.75,-986 387.75,-992 381.75,-992 381.75,-992 239.12,-992 239.12,-992 233.12,-992 227.12,-986 227.12,-980 227.12,-980 227.12,-922 227.12,-922 227.12,-916 233.12,-910 239.12,-910"/>
<text text-anchor="middle" x="310.44" y="-979.45" font-family="Helvetica,sans-Serif" font-weight="bold" font-size="9.00">url</text>
</g>
<g id="clust16" class="cluster">
<title>cluster_src/services/xml</title>
<path fill="#ffffff" stroke="black" stroke-width="2" d="M330.75,-494C330.75,-494 464.25,-494 464.25,-494 470.25,-494 476.25,-500 476.25,-506 476.25,-506 476.25,-534 476.25,-534 476.25,-540 470.25,-546 464.25,-546 464.25,-546 330.75,-546 330.75,-546 324.75,-546 318.75,-540 318.75,-534 318.75,-534 318.75,-506 318.75,-506 318.75,-500 324.75,-494 330.75,-494"/>
<text text-anchor="middle" x="397.5" y="-533.45" font-family="Helvetica,sans-Serif" font-weight="bold" font-size="9.00">xml</text>
</g>
<g id="clust3" class="cluster">
<title>cluster_src/services/behaviors</title>
<path fill="#ffffff" stroke="black" stroke-width="2" d="M244.12,-208C244.12,-208 290.12,-208 290.12,-208 296.12,-208 302.12,-214 302.12,-220 302.12,-220 302.12,-248 302.12,-248 302.12,-254 296.12,-260 290.12,-260 290.12,-260 244.12,-260 244.12,-260 238.12,-260 232.12,-254 232.12,-248 232.12,-248 232.12,-220 232.12,-220 232.12,-214 238.12,-208 244.12,-208"/>
<text text-anchor="middle" x="267.12" y="-247.45" font-family="Helvetica,sans-Serif" font-weight="bold" font-size="9.00">behaviors</text>
</g>
<g id="clust4" class="cluster">
<title>cluster_src/services/components</title>
<path fill="#ffffff" stroke="black" stroke-width="2" d="M235,-790C235,-790 382.62,-790 382.62,-790 388.62,-790 394.62,-796 394.62,-802 394.62,-802 394.62,-890 394.62,-890 394.62,-896 388.62,-902 382.62,-902 382.62,-902 235,-902 235,-902 229,-902 223,-896 223,-890 223,-890 223,-802 223,-802 223,-796 229,-790 235,-790"/>
<text text-anchor="middle" x="308.81" y="-889.45" font-family="Helvetica,sans-Serif" font-weight="bold" font-size="9.00">components</text>
</g>
<g id="clust6" class="cluster">
<title>cluster_src/services/error</title>
<path fill="#ffffff" stroke="black" stroke-width="2" d="M330.75,-730C330.75,-730 464.25,-730 464.25,-730 470.25,-730 476.25,-736 476.25,-742 476.25,-742 476.25,-770 476.25,-770 476.25,-776 470.25,-782 464.25,-782 464.25,-782 330.75,-782 330.75,-782 324.75,-782 318.75,-776 318.75,-770 318.75,-770 318.75,-742 318.75,-742 318.75,-736 324.75,-730 330.75,-730"/>
<text text-anchor="middle" x="397.5" y="-769.45" font-family="Helvetica,sans-Serif" font-weight="bold" font-size="9.00">error</text>
</g>
<g id="clust7" class="cluster">
<title>cluster_src/services/events</title>
<path fill="#ffffff" stroke="black" stroke-width="2" d="M51.38,-865C51.38,-865 98.38,-865 98.38,-865 104.38,-865 110.38,-871 110.38,-877 110.38,-877 110.38,-935 110.38,-935 110.38,-941 104.38,-947 98.38,-947 98.38,-947 51.38,-947 51.38,-947 45.38,-947 39.38,-941 39.38,-935 39.38,-935 39.38,-877 39.38,-877 39.38,-871 45.38,-865 51.38,-865"/>
<text text-anchor="middle" x="74.88" y="-934.45" font-family="Helvetica,sans-Serif" font-weight="bold" font-size="9.00">events</text>
</g>
<g id="clust8" class="cluster">
<title>cluster_src/services/inline&#45;context</title>
<path fill="#ffffff" stroke="black" stroke-width="2" d="M150.88,-24C150.88,-24 382.62,-24 382.62,-24 388.62,-24 394.62,-30 394.62,-36 394.62,-36 394.62,-94 394.62,-94 394.62,-100 388.62,-106 382.62,-106 382.62,-106 150.88,-106 150.88,-106 144.88,-106 138.88,-100 138.88,-94 138.88,-94 138.88,-36 138.88,-36 138.88,-30 144.88,-24 150.88,-24"/>
<text text-anchor="middle" x="266.75" y="-93.45" font-family="Helvetica,sans-Serif" font-weight="bold" font-size="9.00">inline&#45;context</text>
</g>
<g id="clust9" class="cluster">
<title>cluster_src/services/keyboard</title>
<path fill="#ffffff" stroke="black" stroke-width="2" d="M51.88,-760C51.88,-760 97.88,-760 97.88,-760 103.88,-760 109.88,-766 109.88,-772 109.88,-772 109.88,-800 109.88,-800 109.88,-806 103.88,-812 97.88,-812 97.88,-812 51.88,-812 51.88,-812 45.88,-812 39.88,-806 39.88,-800 39.88,-800 39.88,-772 39.88,-772 39.88,-766 45.88,-760 51.88,-760"/>
<text text-anchor="middle" x="74.88" y="-799.45" font-family="Helvetica,sans-Serif" font-weight="bold" font-size="9.00">keyboard</text>
</g>
<g id="clust10" class="cluster">
<title>cluster_src/services/namespaces</title>
<path fill="#ffffff" stroke="black" stroke-width="2" d="M51.88,-610C51.88,-610 98.88,-610 98.88,-610 104.88,-610 110.88,-616 110.88,-622 110.88,-622 110.88,-650 110.88,-650 110.88,-656 104.88,-662 98.88,-662 98.88,-662 51.88,-662 51.88,-662 45.88,-662 39.88,-656 39.88,-650 39.88,-650 39.88,-622 39.88,-622 39.88,-616 45.88,-610 51.88,-610"/>
<text text-anchor="middle" x="75.38" y="-649.45" font-family="Helvetica,sans-Serif" font-weight="bold" font-size="9.00">namespaces</text>
</g>
<g id="clust11" class="cluster">
<title>cluster_src/services/navigation</title>
<path fill="#ffffff" stroke="black" stroke-width="2" d="M244.12,-440C244.12,-440 290.12,-440 290.12,-440 296.12,-440 302.12,-446 302.12,-452 302.12,-452 302.12,-480 302.12,-480 302.12,-486 296.12,-492 290.12,-492 290.12,-492 244.12,-492 244.12,-492 238.12,-492 232.12,-486 232.12,-480 232.12,-480 232.12,-452 232.12,-452 232.12,-446 238.12,-440 244.12,-440"/>
<text text-anchor="middle" x="267.12" y="-479.45" font-family="Helvetica,sans-Serif" font-weight="bold" font-size="9.00">navigation</text>
</g>
<g id="clust12" class="cluster">
<title>cluster_src/services/navigator</title>
<path fill="#ffffff" stroke="black" stroke-width="2" d="M146.75,-554C146.75,-554 381.75,-554 381.75,-554 387.75,-554 393.75,-560 393.75,-566 393.75,-566 393.75,-710 393.75,-710 393.75,-716 387.75,-722 381.75,-722 381.75,-722 146.75,-722 146.75,-722 140.75,-722 134.75,-716 134.75,-710 134.75,-710 134.75,-566 134.75,-566 134.75,-560 140.75,-554 146.75,-554"/>
<text text-anchor="middle" x="264.25" y="-709.45" font-family="Helvetica,sans-Serif" font-weight="bold" font-size="9.00">navigator</text>
</g>
<g id="clust13" class="cluster">
<title>cluster_src/services/render</title>
<path fill="#ffffff" stroke="black" stroke-width="2" d="M155.38,-114C155.38,-114 202.38,-114 202.38,-114 208.38,-114 214.38,-120 214.38,-126 214.38,-126 214.38,-184 214.38,-184 214.38,-190 208.38,-196 202.38,-196 202.38,-196 155.38,-196 155.38,-196 149.38,-196 143.38,-190 143.38,-184 143.38,-184 143.38,-126 143.38,-126 143.38,-120 149.38,-114 155.38,-114"/>
<text text-anchor="middle" x="178.88" y="-183.45" font-family="Helvetica,sans-Serif" font-weight="bold" font-size="9.00">render</text>
</g>
<g id="clust14" class="cluster">
<title>cluster_src/services/stylesheets</title>
<path fill="#ffffff" stroke="black" stroke-width="2" d="M244.12,-124C244.12,-124 290.12,-124 290.12,-124 296.12,-124 302.12,-130 302.12,-136 302.12,-136 302.12,-164 302.12,-164 302.12,-170 296.12,-176 290.12,-176 290.12,-176 244.12,-176 244.12,-176 238.12,-176 232.12,-170 232.12,-164 232.12,-164 232.12,-136 232.12,-136 232.12,-130 238.12,-124 244.12,-124"/>
<text text-anchor="middle" x="267.12" y="-163.45" font-family="Helvetica,sans-Serif" font-weight="bold" font-size="9.00">stylesheets</text>
</g>
<!-- src/services/behaviors/index.js -->
<g id="node1" class="node">
<title>src/services/behaviors/index.js</title>
<g id="a_node1"><a xlink:href="src/services/behaviors/index.js" xlink:title="index.js">
<path fill="#ffffcc" stroke="black" d="M288.21,-233.88C288.21,-233.88 246.04,-233.88 246.04,-233.88 243.08,-233.88 240.12,-230.92 240.12,-227.96 240.12,-227.96 240.12,-222.04 240.12,-222.04 240.12,-219.08 243.08,-216.12 246.04,-216.12 246.04,-216.12 288.21,-216.12 288.21,-216.12 291.17,-216.12 294.12,-219.08 294.12,-222.04 294.12,-222.04 294.12,-227.96 294.12,-227.96 294.12,-230.92 291.17,-233.88 288.21,-233.88"/>
<text text-anchor="start" x="251.38" y="-221.32" font-family="Helvetica,sans-Serif" font-size="9.00">index.js</text>
</a>
</g>
</g>
<!-- src/services/index.js -->
<g id="node2" class="node">
<title>src/services/index.js</title>
<g id="a_node2"><a xlink:href="src/services/index.js" xlink:title="index.js">
<path fill="#ffffcc" stroke="black" d="M379.83,-395.88C379.83,-395.88 337.67,-395.88 337.67,-395.88 334.71,-395.88 331.75,-392.92 331.75,-389.96 331.75,-389.96 331.75,-384.04 331.75,-384.04 331.75,-381.08 334.71,-378.12 337.67,-378.12 337.67,-378.12 379.83,-378.12 379.83,-378.12 382.79,-378.12 385.75,-381.08 385.75,-384.04 385.75,-384.04 385.75,-389.96 385.75,-389.96 385.75,-392.92 382.79,-395.88 379.83,-395.88"/>
<text text-anchor="start" x="343" y="-383.32" font-family="Helvetica,sans-Serif" font-size="9.00">index.js</text>
</a>
</g>
</g>
<!-- src/services/behaviors/index.js&#45;&gt;src/services/index.js -->
<g id="edge1" class="edge">
<title>src/services/behaviors/index.js&#45;&gt;src/services/index.js</title>
<path fill="none" stroke="#000000" stroke-width="2" stroke-opacity="0.200000" d="M277.66,-234.2C285.28,-241.92 295.86,-253.49 303.25,-265 325.46,-299.63 343.05,-344.83 351.77,-369.33"/>
<polygon fill="#000000" fill-opacity="0.200000" stroke="#000000" stroke-width="2" stroke-opacity="0.200000" points="349.71,-369.81 353.67,-374.79 353.68,-368.43 349.71,-369.81"/>
</g>
<!-- src/services/dom.d.ts -->
<g id="node3" class="node">
<title>src/services/dom.d.ts</title>
<g id="a_node3"><a xlink:href="src/services/dom.d.ts" xlink:title="dom.d.ts">
<path fill="#ddfeff" stroke="black" d="M379.83,-149.88C379.83,-149.88 337.67,-149.88 337.67,-149.88 334.71,-149.88 331.75,-146.92 331.75,-143.96 331.75,-143.96 331.75,-138.04 331.75,-138.04 331.75,-135.08 334.71,-132.12 337.67,-132.12 337.67,-132.12 379.83,-132.12 379.83,-132.12 382.79,-132.12 385.75,-135.08 385.75,-138.04 385.75,-138.04 385.75,-143.96 385.75,-143.96 385.75,-146.92 382.79,-149.88 379.83,-149.88"/>
<text text-anchor="start" x="341.5" y="-137.32" font-family="Helvetica,sans-Serif" font-size="9.00">dom.d.ts</text>
</a>
</g>
</g>
<!-- src/services/behaviors/index.js&#45;&gt;src/services/dom.d.ts -->
<g id="edge2" class="edge">
<title>src/services/behaviors/index.js&#45;&gt;src/services/dom.d.ts</title>
<path fill="none" stroke="#000000" stroke-width="2" stroke-opacity="0.200000" d="M278.06,-215.69C293.4,-201.31 323.02,-173.55 341.51,-156.22"/>
<polygon fill="#000000" fill-opacity="0.200000" stroke="#000000" stroke-width="2" stroke-opacity="0.200000" points="342.62,-158.06 345.56,-152.42 339.75,-154.99 342.62,-158.06"/>
</g>
<!-- src/services/types.js -->
<g id="node9" class="node">
<title>src/services/types.js</title>
<g id="a_node9"><a xlink:href="src/services/types.js" xlink:title="types.js">
<path fill="#ffffcc" stroke="black" d="M462.33,-272.88C462.33,-272.88 420.17,-272.88 420.17,-272.88 417.21,-272.88 414.25,-269.92 414.25,-266.96 414.25,-266.96 414.25,-261.04 414.25,-261.04 414.25,-258.08 417.21,-255.12 420.17,-255.12 420.17,-255.12 462.33,-255.12 462.33,-255.12 465.29,-255.12 468.25,-258.08 468.25,-261.04 468.25,-261.04 468.25,-266.96 468.25,-266.96 468.25,-269.92 465.29,-272.88 462.33,-272.88"/>
<text text-anchor="start" x="425.88" y="-260.32" font-family="Helvetica,sans-Serif" font-size="9.00">types.js</text>
</a>
</g>
</g>
<!-- src/services/index.js&#45;&gt;src/services/types.js -->
<g id="edge22" class="edge">
<title>src/services/index.js&#45;&gt;src/services/types.js</title>
<path fill="none" stroke="#000000" stroke-width="2" stroke-opacity="0.200000" d="M365.8,-377.76C379.32,-357.1 412.14,-306.95 429.33,-280.68"/>
<polygon fill="#000000" fill-opacity="0.200000" stroke="#000000" stroke-width="2" stroke-opacity="0.200000" points="430.94,-282.06 432.47,-275.89 427.43,-279.76 430.94,-282.06"/>
</g>
<!-- src/services/xml/index.js -->
<g id="node26" class="node">
<title>src/services/xml/index.js</title>
<g id="a_node26"><a xlink:href="src/services/xml/index.js" xlink:title="index.js">
<path fill="#ffffcc" stroke="black" d="M462.33,-519.88C462.33,-519.88 420.17,-519.88 420.17,-519.88 417.21,-519.88 414.25,-516.92 414.25,-513.96 414.25,-513.96 414.25,-508.04 414.25,-508.04 414.25,-505.08 417.21,-502.12 420.17,-502.12 420.17,-502.12 462.33,-502.12 462.33,-502.12 465.29,-502.12 468.25,-505.08 468.25,-508.04 468.25,-508.04 468.25,-513.96 468.25,-513.96 468.25,-516.92 465.29,-519.88 462.33,-519.88"/>
<text text-anchor="start" x="425.5" y="-507.32" font-family="Helvetica,sans-Serif" font-size="9.00">index.js</text>
</a>
</g>
</g>
<!-- src/services/index.js&#45;&gt;src/services/xml/index.js -->
<g id="edge23" class="edge">
<title>src/services/index.js&#45;&gt;src/services/xml/index.js</title>
<path fill="none" stroke="#000000" stroke-width="2" stroke-opacity="0.200000" d="M386.17,-391.76C391.9,-393.98 397.4,-397.23 401.25,-402 426.61,-433.41 393.83,-459.52 413.35,-494.79"/>
<polygon fill="#000000" fill-opacity="0.200000" stroke="#000000" stroke-width="2" stroke-opacity="0.200000" points="411.33,-495.53 416.35,-499.43 414.86,-493.25 411.33,-495.53"/>
</g>
<!-- src/services/dom.d.ts&#45;&gt;src/services/types.js -->
<g id="edge6" class="edge">
<title>src/services/dom.d.ts&#45;&gt;src/services/types.js</title>
<path fill="none" stroke="#000000" stroke-width="2" stroke-opacity="0.200000" d="M365.8,-150.24C379.32,-170.9 412.14,-221.05 429.33,-247.32"/>
<polygon fill="#000000" fill-opacity="0.200000" stroke="#000000" stroke-width="2" stroke-opacity="0.200000" points="427.43,-248.24 432.47,-252.11 430.94,-245.94 427.43,-248.24"/>
</g>
<!-- src/services/components.d.ts -->
<g id="node4" class="node">
<title>src/services/components.d.ts</title>
<g id="a_node4"><a xlink:href="src/services/components.d.ts" xlink:title="components.d.ts">
<path fill="#ddfeff" stroke="black" d="M394.21,-485.88C394.21,-485.88 323.29,-485.88 323.29,-485.88 320.33,-485.88 317.38,-482.92 317.38,-479.96 317.38,-479.96 317.38,-474.04 317.38,-474.04 317.38,-471.08 320.33,-468.12 323.29,-468.12 323.29,-468.12 394.21,-468.12 394.21,-468.12 397.17,-468.12 400.12,-471.08 400.12,-474.04 400.12,-474.04 400.12,-479.96 400.12,-479.96 400.12,-482.92 397.17,-485.88 394.21,-485.88"/>
<text text-anchor="start" x="325.38" y="-473.32" font-family="Helvetica,sans-Serif" font-size="9.00">components.d.ts</text>
</a>
</g>
</g>
<!-- src/services/components/index.js -->
<g id="node5" class="node">
<title>src/services/components/index.js</title>
<g id="a_node5"><a xlink:href="src/services/components/index.js" xlink:title="index.js">
<path fill="#ffffcc" stroke="black" d="M288.21,-875.88C288.21,-875.88 246.04,-875.88 246.04,-875.88 243.08,-875.88 240.12,-872.92 240.12,-869.96 240.12,-869.96 240.12,-864.04 240.12,-864.04 240.12,-861.08 243.08,-858.12 246.04,-858.12 246.04,-858.12 288.21,-858.12 288.21,-858.12 291.17,-858.12 294.12,-861.08 294.12,-864.04 294.12,-864.04 294.12,-869.96 294.12,-869.96 294.12,-872.92 291.17,-875.88 288.21,-875.88"/>
<text text-anchor="start" x="251.38" y="-863.33" font-family="Helvetica,sans-Serif" font-size="9.00">index.js</text>
</a>
</g>
</g>
<!-- src/services/components/internal.js -->
<g id="node6" class="node">
<title>src/services/components/internal.js</title>
<g id="a_node6"><a xlink:href="src/services/components/internal.js" xlink:title="internal.js">
<path fill="#ffffcc" stroke="black" d="M380.71,-860.88C380.71,-860.88 336.79,-860.88 336.79,-860.88 333.83,-860.88 330.88,-857.92 330.88,-854.96 330.88,-854.96 330.88,-849.04 330.88,-849.04 330.88,-846.08 333.83,-843.12 336.79,-843.12 336.79,-843.12 380.71,-843.12 380.71,-843.12 383.67,-843.12 386.62,-846.08 386.62,-849.04 386.62,-849.04 386.62,-854.96 386.62,-854.96 386.62,-857.92 383.67,-860.88 380.71,-860.88"/>
<text text-anchor="start" x="338.88" y="-848.33" font-family="Helvetica,sans-Serif" font-size="9.00">internal.js</text>
</a>
</g>
</g>
<!-- src/services/components/index.js&#45;&gt;src/services/components/internal.js -->
<g id="edge3" class="edge">
<title>src/services/components/index.js&#45;&gt;src/services/components/internal.js</title>
<path fill="none" stroke="#000000" stroke-width="2" stroke-opacity="0.200000" d="M294.53,-862.58C303.05,-861.15 312.64,-859.55 321.74,-858.03"/>
<polygon fill="#000000" fill-opacity="0.200000" stroke="#000000" stroke-width="2" stroke-opacity="0.200000" points="322.04,-860.11 327.62,-857.04 321.35,-855.96 322.04,-860.11"/>
</g>
<!-- src/services/components/index.test.js -->
<g id="node7" class="node">
<title>src/services/components/index.test.js</title>
<g id="a_node7"><a xlink:href="src/services/components/index.test.js" xlink:title="index.test.js">
<path fill="#ffffcc" stroke="black" d="M293.21,-815.88C293.21,-815.88 241.04,-815.88 241.04,-815.88 238.08,-815.88 235.12,-812.92 235.12,-809.96 235.12,-809.96 235.12,-804.04 235.12,-804.04 235.12,-801.08 238.08,-798.12 241.04,-798.12 241.04,-798.12 293.21,-798.12 293.21,-798.12 296.17,-798.12 299.12,-801.08 299.12,-804.04 299.12,-804.04 299.12,-809.96 299.12,-809.96 299.12,-812.92 296.17,-815.88 293.21,-815.88"/>
<text text-anchor="start" x="243.12" y="-803.33" font-family="Helvetica,sans-Serif" font-size="9.00">index.test.js</text>
</a>
</g>
</g>
<!-- src/services/components/index.test.js&#45;&gt;src/services/components.d.ts -->
<g id="edge4" class="edge">
<title>src/services/components/index.test.js&#45;&gt;src/services/components.d.ts</title>
<path fill="none" stroke="#000000" stroke-width="2" stroke-opacity="0.200000" d="M273.36,-797.77C281.45,-782.97 296.75,-752.75 303.25,-725 308.76,-701.48 301.66,-538.03 317.04,-494.17"/>
<polygon fill="#000000" fill-opacity="0.200000" stroke="#000000" stroke-width="2" stroke-opacity="0.200000" points="318.86,-495.23 319.69,-488.93 315.11,-493.33 318.86,-495.23"/>
</g>
<!-- src/services/components/internal.test.js -->
<g id="node8" class="node">
<title>src/services/components/internal.test.js</title>
<g id="a_node8"><a xlink:href="src/services/components/internal.test.js" xlink:title="internal.test.js">
<path fill="#ffffcc" stroke="black" d="M297.33,-845.88C297.33,-845.88 236.92,-845.88 236.92,-845.88 233.96,-845.88 231,-842.92 231,-839.96 231,-839.96 231,-834.04 231,-834.04 231,-831.08 233.96,-828.12 236.92,-828.12 236.92,-828.12 297.33,-828.12 297.33,-828.12 300.29,-828.12 303.25,-831.08 303.25,-834.04 303.25,-834.04 303.25,-839.96 303.25,-839.96 303.25,-842.92 300.29,-845.88 297.33,-845.88"/>
<text text-anchor="start" x="239" y="-833.33" font-family="Helvetica,sans-Serif" font-size="9.00">internal.test.js</text>
</a>
</g>
</g>
<!-- src/services/components/internal.test.js&#45;&gt;src/services/components/internal.js -->
<g id="edge5" class="edge">
<title>src/services/components/internal.test.js&#45;&gt;src/services/components/internal.js</title>
<path fill="none" stroke="#000000" stroke-width="2" stroke-opacity="0.200000" d="M303.55,-842.93C309.6,-843.94 315.88,-844.99 321.94,-846.01"/>
<polygon fill="#000000" fill-opacity="0.200000" stroke="#000000" stroke-width="2" stroke-opacity="0.200000" points="321.35,-848.04 327.62,-846.96 322.04,-843.89 321.35,-848.04"/>
</g>
<!-- src/services/dom/errors.d.ts -->
<g id="node10" class="node">
<title>src/services/dom/errors.d.ts</title>
<g id="a_node10"><a xlink:href="src/services/dom/errors.d.ts" xlink:title="errors.d.ts">
<path fill="#ccffcc" stroke="black" d="M97.21,-386.88C97.21,-386.88 52.54,-386.88 52.54,-386.88 49.58,-386.88 46.62,-383.92 46.62,-380.96 46.62,-380.96 46.62,-375.04 46.62,-375.04 46.62,-372.08 49.58,-369.12 52.54,-369.12 52.54,-369.12 97.21,-369.12 97.21,-369.12 100.17,-369.12 103.12,-372.08 103.12,-375.04 103.12,-375.04 103.12,-380.96 103.12,-380.96 103.12,-383.92 100.17,-386.88 97.21,-386.88"/>
<text text-anchor="start" x="54.62" y="-374.32" font-family="Helvetica,sans-Serif" font-size="9.00">errors.d.ts</text>
</a>
</g>
</g>
<!-- src/services/dom/errors.js -->
<g id="node11" class="node">
<title>src/services/dom/errors.js</title>
<g id="a_node11"><a xlink:href="src/services/dom/errors.js" xlink:title="errors.js">
<path fill="#ffffcc" stroke="black" d="M288.21,-395.88C288.21,-395.88 246.04,-395.88 246.04,-395.88 243.08,-395.88 240.12,-392.92 240.12,-389.96 240.12,-389.96 240.12,-384.04 240.12,-384.04 240.12,-381.08 243.08,-378.12 246.04,-378.12 246.04,-378.12 288.21,-378.12 288.21,-378.12 291.17,-378.12 294.12,-381.08 294.12,-384.04 294.12,-384.04 294.12,-389.96 294.12,-389.96 294.12,-392.92 291.17,-395.88 288.21,-395.88"/>
<text text-anchor="start" x="250.62" y="-383.32" font-family="Helvetica,sans-Serif" font-size="9.00">errors.js</text>
</a>
</g>
</g>
<!-- src/services/dom/helpers&#45;legacy.ts -->
<g id="node12" class="node">
<title>src/services/dom/helpers&#45;legacy.ts</title>
<g id="a_node12"><a xlink:href="src/services/dom/helpers-legacy.ts" xlink:title="helpers&#45;legacy.ts">
<path fill="#ddfeff" stroke="black" d="M111.83,-293.88C111.83,-293.88 37.92,-293.88 37.92,-293.88 34.96,-293.88 32,-290.92 32,-287.96 32,-287.96 32,-282.04 32,-282.04 32,-279.08 34.96,-276.12 37.92,-276.12 37.92,-276.12 111.83,-276.12 111.83,-276.12 114.79,-276.12 117.75,-279.08 117.75,-282.04 117.75,-282.04 117.75,-287.96 117.75,-287.96 117.75,-290.92 114.79,-293.88 111.83,-293.88"/>
<text text-anchor="start" x="40" y="-281.32" font-family="Helvetica,sans-Serif" font-size="9.00">helpers&#45;legacy.ts</text>
</a>
</g>
</g>
<!-- src/services/namespaces.d.ts -->
<g id="node13" class="node">
<title>src/services/namespaces.d.ts</title>
<g id="a_node13"><a xlink:href="src/services/namespaces.d.ts" xlink:title="namespaces.d.ts">
<path fill="#ddfeff" stroke="black" d="M395.33,-277.88C395.33,-277.88 322.17,-277.88 322.17,-277.88 319.21,-277.88 316.25,-274.92 316.25,-271.96 316.25,-271.96 316.25,-266.04 316.25,-266.04 316.25,-263.08 319.21,-260.12 322.17,-260.12 322.17,-260.12 395.33,-260.12 395.33,-260.12 398.29,-260.12 401.25,-263.08 401.25,-266.04 401.25,-266.04 401.25,-271.96 401.25,-271.96 401.25,-274.92 398.29,-277.88 395.33,-277.88"/>
<text text-anchor="start" x="324.25" y="-265.32" font-family="Helvetica,sans-Serif" font-size="9.00">namespaces.d.ts</text>
</a>
</g>
</g>
<!-- src/services/dom/helpers&#45;legacy.ts&#45;&gt;src/services/namespaces.d.ts -->
<g id="edge7" class="edge">
<title>src/services/dom/helpers&#45;legacy.ts&#45;&gt;src/services/namespaces.d.ts</title>
<path fill="none" stroke="#000000" stroke-width="2" stroke-opacity="0.200000" d="M108.66,-275.75C111.77,-274.6 114.85,-273.34 117.75,-272 168.06,-248.69 169.76,-220.51 223,-205 257.24,-195.03 270.87,-190.04 303.25,-205 324.04,-214.6 339.82,-236.48 348.92,-251.98"/>
<polygon fill="#000000" fill-opacity="0.200000" stroke="#000000" stroke-width="2" stroke-opacity="0.200000" points="347.06,-252.95 351.81,-257.17 350.73,-250.9 347.06,-252.95"/>
</g>
<!-- src/services/dom/helpers.js -->
<g id="node14" class="node">
<title>src/services/dom/helpers.js</title>
<g id="a_node14"><a xlink:href="src/services/dom/helpers.js" xlink:title="helpers.js">
<path fill="#ffffcc" stroke="black" d="M289.08,-348.88C289.08,-348.88 245.17,-348.88 245.17,-348.88 242.21,-348.88 239.25,-345.92 239.25,-342.96 239.25,-342.96 239.25,-337.04 239.25,-337.04 239.25,-334.08 242.21,-331.12 245.17,-331.12 245.17,-331.12 289.08,-331.12 289.08,-331.12 292.04,-331.12 295,-334.08 295,-337.04 295,-337.04 295,-342.96 295,-342.96 295,-345.92 292.04,-348.88 289.08,-348.88"/>
<text text-anchor="start" x="247.25" y="-336.32" font-family="Helvetica,sans-Serif" font-size="9.00">helpers.js</text>
</a>
</g>
</g>
<!-- src/services/dom/helpers.js&#45;&gt;src/services/namespaces.d.ts -->
<g id="edge8" class="edge">
<title>src/services/dom/helpers.js&#45;&gt;src/services/namespaces.d.ts</title>
<path fill="none" stroke="#000000" stroke-width="2" stroke-opacity="0.200000" d="M288.79,-330.71C293.7,-328.15 298.8,-325.2 303.25,-322 318.52,-311.04 333.67,-295.87 344.11,-284.56"/>
<polygon fill="#000000" fill-opacity="0.200000" stroke="#000000" stroke-width="2" stroke-opacity="0.200000" points="345.46,-286.2 347.92,-280.34 342.34,-283.39 345.46,-286.2"/>
</g>
<!-- src/services/dom/helpers.test.js -->
<g id="node15" class="node">
<title>src/services/dom/helpers.test.js</title>
<g id="a_node15"><a xlink:href="src/services/dom/helpers.test.js" xlink:title="helpers.test.js">
<path fill="#ffffcc" stroke="black" d="M209.08,-351.88C209.08,-351.88 148.67,-351.88 148.67,-351.88 145.71,-351.88 142.75,-348.92 142.75,-345.96 142.75,-345.96 142.75,-340.04 142.75,-340.04 142.75,-337.08 145.71,-334.12 148.67,-334.12 148.67,-334.12 209.08,-334.12 209.08,-334.12 212.04,-334.12 215,-337.08 215,-340.04 215,-340.04 215,-345.96 215,-345.96 215,-348.92 212.04,-351.88 209.08,-351.88"/>
<text text-anchor="start" x="150.75" y="-339.32" font-family="Helvetica,sans-Serif" font-size="9.00">helpers.test.js</text>
</a>
</g>
</g>
<!-- src/services/dom/helpers.test.js&#45;&gt;src/services/dom/helpers.js -->
<g id="edge9" class="edge">
<title>src/services/dom/helpers.test.js&#45;&gt;src/services/dom/helpers.js</title>
<path fill="none" stroke="#000000" stroke-width="2" stroke-opacity="0.200000" d="M215.45,-341.76C220.2,-341.6 225.08,-341.43 229.84,-341.26"/>
<polygon fill="#000000" fill-opacity="0.200000" stroke="#000000" stroke-width="2" stroke-opacity="0.200000" points="229.85,-343.36 235.77,-341.06 229.7,-339.17 229.85,-343.36"/>
</g>
<!-- src/services/dom/index.js -->
<g id="node16" class="node">
<title>src/services/dom/index.js</title>
<g id="a_node16"><a xlink:href="src/services/dom/index.js" xlink:title="index.js">
<path fill="#ffffcc" stroke="black" d="M95.96,-338.88C95.96,-338.88 53.79,-338.88 53.79,-338.88 50.83,-338.88 47.88,-335.92 47.88,-332.96 47.88,-332.96 47.88,-327.04 47.88,-327.04 47.88,-324.08 50.83,-321.12 53.79,-321.12 53.79,-321.12 95.96,-321.12 95.96,-321.12 98.92,-321.12 101.88,-324.08 101.88,-327.04 101.88,-327.04 101.88,-332.96 101.88,-332.96 101.88,-335.92 98.92,-338.88 95.96,-338.88"/>
<text text-anchor="start" x="59.12" y="-326.32" font-family="Helvetica,sans-Serif" font-size="9.00">index.js</text>
</a>
</g>
</g>
<!-- src/services/dom/index.js&#45;&gt;src/services/dom/errors.js -->
<g id="edge10" class="edge">
<title>src/services/dom/index.js&#45;&gt;src/services/dom/errors.js</title>
<path fill="none" stroke="#000000" stroke-width="2" stroke-opacity="0.200000" d="M89.58,-339.16C98.22,-345.31 109.29,-353.93 117.75,-363 126.91,-372.83 122.87,-381.71 134.75,-388 164.4,-403.69 203.35,-401.02 231.12,-395.91"/>
<polygon fill="#000000" fill-opacity="0.200000" stroke="#000000" stroke-width="2" stroke-opacity="0.200000" points="231.28,-398.02 236.75,-394.78 230.45,-393.9 231.28,-398.02"/>
</g>
<!-- src/services/dom/index.js&#45;&gt;src/services/dom/helpers.js -->
<g id="edge11" class="edge">
<title>src/services/dom/index.js&#45;&gt;src/services/dom/helpers.js</title>
<path fill="none" stroke="#000000" stroke-width="2" stroke-opacity="0.200000" d="M102.13,-327.61C130.18,-325.52 175.89,-323.47 215,-328 220.05,-328.58 225.32,-329.48 230.48,-330.53"/>
<polygon fill="#000000" fill-opacity="0.200000" stroke="#000000" stroke-width="2" stroke-opacity="0.200000" points="229.73,-332.52 236.05,-331.76 230.64,-328.42 229.73,-332.52"/>
</g>
<!-- src/services/dom/parser.js -->
<g id="node17" class="node">
<title>src/services/dom/parser.js</title>
<g id="a_node17"><a xlink:href="src/services/dom/parser.js" xlink:title="parser.js">
<path fill="#ffffcc" stroke="black" d="M199.96,-381.88C199.96,-381.88 157.79,-381.88 157.79,-381.88 154.83,-381.88 151.88,-378.92 151.88,-375.96 151.88,-375.96 151.88,-370.04 151.88,-370.04 151.88,-367.08 154.83,-364.12 157.79,-364.12 157.79,-364.12 199.96,-364.12 199.96,-364.12 202.92,-364.12 205.88,-367.08 205.88,-370.04 205.88,-370.04 205.88,-375.96 205.88,-375.96 205.88,-378.92 202.92,-381.88 199.96,-381.88"/>
<text text-anchor="start" x="161.25" y="-369.32" font-family="Helvetica,sans-Serif" font-size="9.00">parser.js</text>
</a>
</g>
</g>
<!-- src/services/dom/index.js&#45;&gt;src/services/dom/parser.js -->
<g id="edge12" class="edge">
<title>src/services/dom/index.js&#45;&gt;src/services/dom/parser.js</title>
<path fill="none" stroke="#000000" stroke-width="2" stroke-opacity="0.200000" d="M94.2,-339.35C105.71,-345.06 120.93,-352.33 134.75,-358 137.55,-359.15 140.47,-360.29 143.42,-361.39"/>
<polygon fill="#000000" fill-opacity="0.200000" stroke="#000000" stroke-width="2" stroke-opacity="0.200000" points="142.5,-363.3 148.86,-363.38 143.94,-359.35 142.5,-363.3"/>
</g>
<!-- src/services/dom/types.js -->
<g id="node18" class="node">
<title>src/services/dom/types.js</title>
<g id="a_node18"><a xlink:href="src/services/dom/types.js" xlink:title="types.js">
<path fill="#ffffcc" stroke="black" d="M288.21,-315.88C288.21,-315.88 246.04,-315.88 246.04,-315.88 243.08,-315.88 240.12,-312.92 240.12,-309.96 240.12,-309.96 240.12,-304.04 240.12,-304.04 240.12,-301.08 243.08,-298.12 246.04,-298.12 246.04,-298.12 288.21,-298.12 288.21,-298.12 291.17,-298.12 294.12,-301.08 294.12,-304.04 294.12,-304.04 294.12,-309.96 294.12,-309.96 294.12,-312.92 291.17,-315.88 288.21,-315.88"/>
<text text-anchor="start" x="251.75" y="-303.32" font-family="Helvetica,sans-Serif" font-size="9.00">types.js</text>
</a>
</g>
</g>
<!-- src/services/dom/index.js&#45;&gt;src/services/dom/types.js -->
<g id="edge13" class="edge">
<title>src/services/dom/index.js&#45;&gt;src/services/dom/types.js</title>
<path fill="none" stroke="#000000" stroke-width="2" stroke-opacity="0.200000" d="M102.24,-326.3C112.39,-324.9 124.1,-323.33 134.75,-322 167.25,-317.94 204.33,-313.74 230.79,-310.83"/>
<polygon fill="#000000" fill-opacity="0.200000" stroke="#000000" stroke-width="2" stroke-opacity="0.200000" points="230.94,-312.92 236.67,-310.18 230.48,-308.75 230.94,-312.92"/>
</g>
<!-- src/services/dom/parser.js&#45;&gt;src/services/dom/errors.js -->
<g id="edge17" class="edge">
<title>src/services/dom/parser.js&#45;&gt;src/services/dom/errors.js</title>
<path fill="none" stroke="#000000" stroke-width="2" stroke-opacity="0.200000" d="M206.22,-377.28C214.01,-378.54 222.66,-379.94 230.91,-381.28"/>
<polygon fill="#000000" fill-opacity="0.200000" stroke="#000000" stroke-width="2" stroke-opacity="0.200000" points="230.4,-383.33 236.65,-382.22 231.07,-379.18 230.4,-383.33"/>
</g>
<!-- src/services/dom/parser.js&#45;&gt;src/services/dom/helpers.js -->
<g id="edge18" class="edge">
<title>src/services/dom/parser.js&#45;&gt;src/services/dom/helpers.js</title>
<path fill="none" stroke="#000000" stroke-width="2" stroke-opacity="0.200000" d="M204.36,-363.63C213.45,-360.15 223.91,-356.15 233.61,-352.44"/>
<polygon fill="#000000" fill-opacity="0.200000" stroke="#000000" stroke-width="2" stroke-opacity="0.200000" points="234.2,-354.46 239.05,-350.36 232.7,-350.54 234.2,-354.46"/>
</g>
<!-- src/services/dom/parser.js&#45;&gt;src/services/dom/types.js -->
<g id="edge19" class="edge">
<title>src/services/dom/parser.js&#45;&gt;src/services/dom/types.js</title>
<path fill="none" stroke="#000000" stroke-width="2" stroke-opacity="0.200000" d="M206.3,-365.03C209.57,-363.15 212.6,-360.83 215,-358 224.75,-346.48 213.2,-336.48 223,-325 225.56,-322 228.7,-319.5 232.11,-317.4"/>
<polygon fill="#000000" fill-opacity="0.200000" stroke="#000000" stroke-width="2" stroke-opacity="0.200000" points="232.79,-319.41 237.18,-314.81 230.88,-315.67 232.79,-319.41"/>
</g>
<!-- src/services/url.d.ts -->
<g id="node20" class="node">
<title>src/services/url.d.ts</title>
<g id="a_node20"><a xlink:href="src/services/url.d.ts" xlink:title="url.d.ts">
<path fill="#ddfeff" stroke="black" d="M379.83,-425.88C379.83,-425.88 337.67,-425.88 337.67,-425.88 334.71,-425.88 331.75,-422.92 331.75,-419.96 331.75,-419.96 331.75,-414.04 331.75,-414.04 331.75,-411.08 334.71,-408.12 337.67,-408.12 337.67,-408.12 379.83,-408.12 379.83,-408.12 382.79,-408.12 385.75,-411.08 385.75,-414.04 385.75,-414.04 385.75,-419.96 385.75,-419.96 385.75,-422.92 382.79,-425.88 379.83,-425.88"/>
<text text-anchor="start" x="345.25" y="-413.32" font-family="Helvetica,sans-Serif" font-size="9.00">url.d.ts</text>
</a>
</g>
</g>
<!-- src/services/dom/parser.js&#45;&gt;src/services/url.d.ts -->
<g id="edge20" class="edge">
<title>src/services/dom/parser.js&#45;&gt;src/services/url.d.ts</title>
<path fill="none" stroke="#000000" stroke-width="2" stroke-opacity="0.200000" d="M179.57,-382.08C179.31,-406.82 182.41,-475.56 223,-505 251.87,-525.94 275.91,-527.9 303.25,-505 328.51,-483.84 295.02,-457.2 316.25,-432 318.35,-429.51 320.89,-427.43 323.68,-425.7"/>
<polygon fill="#000000" fill-opacity="0.200000" stroke="#000000" stroke-width="2" stroke-opacity="0.200000" points="324.3,-427.74 328.76,-423.21 322.45,-423.97 324.3,-427.74"/>
</g>
<!-- src/services/dom/index.test.js -->
<g id="node19" class="node">
<title>src/services/dom/index.test.js</title>
<g id="a_node19"><a xlink:href="src/services/dom/index.test.js" xlink:title="index.test.js">
<path fill="#ffffcc" stroke="black" d="M204.96,-293.88C204.96,-293.88 152.79,-293.88 152.79,-293.88 149.83,-293.88 146.88,-290.92 146.88,-287.96 146.88,-287.96 146.88,-282.04 146.88,-282.04 146.88,-279.08 149.83,-276.12 152.79,-276.12 152.79,-276.12 204.96,-276.12 204.96,-276.12 207.92,-276.12 210.88,-279.08 210.88,-282.04 210.88,-282.04 210.88,-287.96 210.88,-287.96 210.88,-290.92 207.92,-293.88 204.96,-293.88"/>
<text text-anchor="start" x="154.88" y="-281.32" font-family="Helvetica,sans-Serif" font-size="9.00">index.test.js</text>
</a>
</g>
</g>
<!-- src/services/dom/index.test.js&#45;&gt;src/services/dom.d.ts -->
<g id="edge15" class="edge">
<title>src/services/dom/index.test.js&#45;&gt;src/services/dom.d.ts</title>
<path fill="none" stroke="#000000" stroke-width="2" stroke-opacity="0.200000" d="M184.69,-275.75C192.48,-260.31 207.72,-228.1 215,-199 219.23,-182.1 210.07,-132.68 223,-121 236.24,-109.05 285.69,-117.88 303.25,-121 311.94,-122.54 321.06,-125.37 329.31,-128.43"/>
<polygon fill="#000000" fill-opacity="0.200000" stroke="#000000" stroke-width="2" stroke-opacity="0.200000" points="328.35,-130.31 334.7,-130.54 329.88,-126.4 328.35,-130.31"/>
</g>
<!-- src/services/dom/index.test.js&#45;&gt;src/services/dom/types.js -->
<g id="edge14" class="edge">
<title>src/services/dom/index.test.js&#45;&gt;src/services/dom/types.js</title>
<path fill="none" stroke="#000000" stroke-width="2" stroke-opacity="0.200000" d="M211.01,-292.94C217.66,-294.64 224.73,-296.44 231.5,-298.17"/>
<polygon fill="#000000" fill-opacity="0.200000" stroke="#000000" stroke-width="2" stroke-opacity="0.200000" points="230.6,-300.11 236.93,-299.55 231.64,-296.04 230.6,-300.11"/>
</g>
<!-- src/services/dom/index.test.js&#45;&gt;src/services/url.d.ts -->
<g id="edge16" class="edge">
<title>src/services/dom/index.test.js&#45;&gt;src/services/url.d.ts</title>
<path fill="none" stroke="#000000" stroke-width="2" stroke-opacity="0.200000" d="M190.29,-294.07C198.65,-302.06 209.82,-314.5 215,-328 221.66,-345.34 209.55,-482.18 223,-495 235.91,-507.3 289.42,-506.26 303.25,-495 325.41,-476.94 297.53,-453.61 316.25,-432 318.38,-429.54 320.95,-427.48 323.75,-425.76"/>
<polygon fill="#000000" fill-opacity="0.200000" stroke="#000000" stroke-width="2" stroke-opacity="0.200000" points="324.37,-427.79 328.84,-423.28 322.53,-424.02 324.37,-427.79"/>
</g>
<!-- src/services/error/index.test.ts -->
<g id="node21" class="node">
<title>src/services/error/index.test.ts</title>
<g id="a_node21"><a xlink:href="src/services/error/index.test.ts" xlink:title="index.test.ts">
<path fill="#ddfeff" stroke="black" d="M384.83,-755.88C384.83,-755.88 332.67,-755.88 332.67,-755.88 329.71,-755.88 326.75,-752.92 326.75,-749.96 326.75,-749.96 326.75,-744.04 326.75,-744.04 326.75,-741.08 329.71,-738.12 332.67,-738.12 332.67,-738.12 384.83,-738.12 384.83,-738.12 387.79,-738.12 390.75,-741.08 390.75,-744.04 390.75,-744.04 390.75,-749.96 390.75,-749.96 390.75,-752.92 387.79,-755.88 384.83,-755.88"/>
<text text-anchor="start" x="334.75" y="-743.33" font-family="Helvetica,sans-Serif" font-size="9.00">index.test.ts</text>
</a>
</g>
</g>
<!-- src/services/error/index.ts -->
<g id="node22" class="node">
<title>src/services/error/index.ts</title>
<g id="a_node22"><a xlink:href="src/services/error/index.ts" xlink:title="index.ts">
<path fill="#ddfeff" stroke="black" d="M462.33,-755.88C462.33,-755.88 420.17,-755.88 420.17,-755.88 417.21,-755.88 414.25,-752.92 414.25,-749.96 414.25,-749.96 414.25,-744.04 414.25,-744.04 414.25,-741.08 417.21,-738.12 420.17,-738.12 420.17,-738.12 462.33,-738.12 462.33,-738.12 465.29,-738.12 468.25,-741.08 468.25,-744.04 468.25,-744.04 468.25,-749.96 468.25,-749.96 468.25,-752.92 465.29,-755.88 462.33,-755.88"/>
<text text-anchor="start" x="425.5" y="-743.33" font-family="Helvetica,sans-Serif" font-size="9.00">index.ts</text>
</a>
</g>
</g>
<!-- src/services/error/index.test.ts&#45;&gt;src/services/error/index.ts -->
<g id="edge21" class="edge">
<title>src/services/error/index.test.ts&#45;&gt;src/services/error/index.ts</title>
<path fill="none" stroke="#000000" stroke-width="2" stroke-opacity="0.200000" d="M391.1,-747C395.68,-747 400.41,-747 405.06,-747"/>
<polygon fill="#000000" fill-opacity="0.200000" stroke="#000000" stroke-width="2" stroke-opacity="0.200000" points="404.78,-749.1 410.78,-747 404.78,-744.9 404.78,-749.1"/>
</g>
<!-- src/services/events/index.d.ts -->
<g id="node23" class="node">
<title>src/services/events/index.d.ts</title>
<g id="a_node23"><a xlink:href="src/services/events/index.d.ts" xlink:title="index.d.ts">
<path fill="#ccffcc" stroke="black" d="M96.46,-920.88C96.46,-920.88 53.29,-920.88 53.29,-920.88 50.33,-920.88 47.38,-917.92 47.38,-914.96 47.38,-914.96 47.38,-909.04 47.38,-909.04 47.38,-906.08 50.33,-903.12 53.29,-903.12 53.29,-903.12 96.46,-903.12 96.46,-903.12 99.42,-903.12 102.38,-906.08 102.38,-909.04 102.38,-909.04 102.38,-914.96 102.38,-914.96 102.38,-917.92 99.42,-920.88 96.46,-920.88"/>
<text text-anchor="start" x="55.38" y="-908.33" font-family="Helvetica,sans-Serif" font-size="9.00">index.d.ts</text>
</a>
</g>
</g>
<!-- src/services/events/index.js -->
<g id="node24" class="node">
<title>src/services/events/index.js</title>
<g id="a_node24"><a xlink:href="src/services/events/index.js" xlink:title="index.js">
<path fill="#ccffcc" stroke="black" d="M95.96,-890.88C95.96,-890.88 53.79,-890.88 53.79,-890.88 50.83,-890.88 47.88,-887.92 47.88,-884.96 47.88,-884.96 47.88,-879.04 47.88,-879.04 47.88,-876.08 50.83,-873.12 53.79,-873.12 53.79,-873.12 95.96,-873.12 95.96,-873.12 98.92,-873.12 101.88,-876.08 101.88,-879.04 101.88,-879.04 101.88,-884.96 101.88,-884.96 101.88,-887.92 98.92,-890.88 95.96,-890.88"/>
<text text-anchor="start" x="59.12" y="-878.33" font-family="Helvetica,sans-Serif" font-size="9.00">index.js</text>
</a>
</g>
</g>
<!-- src/services/index.d.ts -->
<g id="node25" class="node">
<title>src/services/index.d.ts</title>
<g id="a_node25"><a xlink:href="src/services/index.d.ts" xlink:title="index.d.ts">
<path fill="#ccffcc" stroke="black" d="M96.46,-150.88C96.46,-150.88 53.29,-150.88 53.29,-150.88 50.33,-150.88 47.38,-147.92 47.38,-144.96 47.38,-144.96 47.38,-139.04 47.38,-139.04 47.38,-136.08 50.33,-133.12 53.29,-133.12 53.29,-133.12 96.46,-133.12 96.46,-133.12 99.42,-133.12 102.38,-136.08 102.38,-139.04 102.38,-139.04 102.38,-144.96 102.38,-144.96 102.38,-147.92 99.42,-150.88 96.46,-150.88"/>
<text text-anchor="start" x="55.38" y="-138.32" font-family="Helvetica,sans-Serif" font-size="9.00">index.d.ts</text>
</a>
</g>
</g>
<!-- src/services/index.test.js -->
<g id="node27" class="node">
<title>src/services/index.test.js</title>
<g id="a_node27"><a xlink:href="src/services/index.test.js" xlink:title="index.test.js">
<path fill="#ffffcc" stroke="black" d="M293.21,-545.88C293.21,-545.88 241.04,-545.88 241.04,-545.88 238.08,-545.88 235.12,-542.92 235.12,-539.96 235.12,-539.96 235.12,-534.04 235.12,-534.04 235.12,-531.08 238.08,-528.12 241.04,-528.12 241.04,-528.12 293.21,-528.12 293.21,-528.12 296.17,-528.12 299.12,-531.08 299.12,-534.04 299.12,-534.04 299.12,-539.96 299.12,-539.96 299.12,-542.92 296.17,-545.88 293.21,-545.88"/>
<text text-anchor="start" x="243.12" y="-533.33" font-family="Helvetica,sans-Serif" font-size="9.00">index.test.js</text>
</a>
</g>
</g>
<!-- src/services/index.test.js&#45;&gt;src/services/index.js -->
<g id="edge24" class="edge">
<title>src/services/index.test.js&#45;&gt;src/services/index.js</title>
<path fill="none" stroke="#000000" stroke-width="2" stroke-opacity="0.200000" d="M278.56,-527.75C286.7,-519.89 297.54,-507.86 303.25,-495 320.18,-456.85 289.96,-434.41 316.25,-402 318.3,-399.47 320.81,-397.37 323.58,-395.62"/>
<polygon fill="#000000" fill-opacity="0.200000" stroke="#000000" stroke-width="2" stroke-opacity="0.200000" points="324.19,-397.66 328.64,-393.12 322.33,-393.9 324.19,-397.66"/>
</g>
<!-- src/services/index.test.js&#45;&gt;src/services/components.d.ts -->
<g id="edge25" class="edge">
<title>src/services/index.test.js&#45;&gt;src/services/components.d.ts</title>
<path fill="none" stroke="#000000" stroke-width="2" stroke-opacity="0.200000" d="M291.54,-527.78C295.79,-525.37 299.92,-522.46 303.25,-519 311.28,-510.66 307.74,-502.98 316.63,-492.4"/>
<polygon fill="#000000" fill-opacity="0.200000" stroke="#000000" stroke-width="2" stroke-opacity="0.200000" points="317.99,-494 320.83,-488.31 315.06,-490.99 317.99,-494"/>
</g>
<!-- src/services/stylesheets.d.ts -->
<g id="node28" class="node">
<title>src/services/stylesheets.d.ts</title>
<g id="a_node28"><a xlink:href="src/services/stylesheets.d.ts" xlink:title="stylesheets.d.ts">
<path fill="#ddfeff" stroke="black" d="M391.96,-455.88C391.96,-455.88 325.54,-455.88 325.54,-455.88 322.58,-455.88 319.62,-452.92 319.62,-449.96 319.62,-449.96 319.62,-444.04 319.62,-444.04 319.62,-441.08 322.58,-438.12 325.54,-438.12 325.54,-438.12 391.96,-438.12 391.96,-438.12 394.92,-438.12 397.88,-441.08 397.88,-444.04 397.88,-444.04 397.88,-449.96 397.88,-449.96 397.88,-452.92 394.92,-455.88 391.96,-455.88"/>
<text text-anchor="start" x="327.62" y="-443.32" font-family="Helvetica,sans-Serif" font-size="9.00">stylesheets.d.ts</text>
</a>
</g>
</g>
<!-- src/services/index.test.js&#45;&gt;src/services/stylesheets.d.ts -->
<g id="edge26" class="edge">
<title>src/services/index.test.js&#45;&gt;src/services/stylesheets.d.ts</title>
<path fill="none" stroke="#000000" stroke-width="2" stroke-opacity="0.200000" d="M293.22,-527.66C297.02,-525.32 300.56,-522.46 303.25,-519 317.7,-500.41 302.5,-484.69 317.3,-463.22"/>
<polygon fill="#000000" fill-opacity="0.200000" stroke="#000000" stroke-width="2" stroke-opacity="0.200000" points="318.82,-464.67 321,-458.7 315.57,-462.01 318.82,-464.67"/>
</g>
<!-- src/services/inline&#45;context/helpers.js -->
<g id="node29" class="node">
<title>src/services/inline&#45;context/helpers.js</title>
<g id="a_node29"><a xlink:href="src/services/inline-context/helpers.js" xlink:title="helpers.js">
<path fill="#ffffcc" stroke="black" d="M380.71,-64.88C380.71,-64.88 336.79,-64.88 336.79,-64.88 333.83,-64.88 330.88,-61.92 330.88,-58.96 330.88,-58.96 330.88,-53.04 330.88,-53.04 330.88,-50.08 333.83,-47.12 336.79,-47.12 336.79,-47.12 380.71,-47.12 380.71,-47.12 383.67,-47.12 386.62,-50.08 386.62,-53.04 386.62,-53.04 386.62,-58.96 386.62,-58.96 386.62,-61.92 383.67,-64.88 380.71,-64.88"/>
<text text-anchor="start" x="338.88" y="-52.33" font-family="Helvetica,sans-Serif" font-size="9.00">helpers.js</text>
</a>
</g>
</g>
<!-- src/services/inline&#45;context/helpers.test.js -->
<g id="node30" class="node">
<title>src/services/inline&#45;context/helpers.test.js</title>
<g id="a_node30"><a xlink:href="src/services/inline-context/helpers.test.js" xlink:title="helpers.test.js">
<path fill="#ffffcc" stroke="black" d="M297.33,-49.88C297.33,-49.88 236.92,-49.88 236.92,-49.88 233.96,-49.88 231,-46.92 231,-43.96 231,-43.96 231,-38.04 231,-38.04 231,-35.08 233.96,-32.12 236.92,-32.12 236.92,-32.12 297.33,-32.12 297.33,-32.12 300.29,-32.12 303.25,-35.08 303.25,-38.04 303.25,-38.04 303.25,-43.96 303.25,-43.96 303.25,-46.92 300.29,-49.88 297.33,-49.88"/>
<text text-anchor="start" x="239" y="-37.33" font-family="Helvetica,sans-Serif" font-size="9.00">helpers.test.js</text>
</a>
</g>
</g>
<!-- src/services/inline&#45;context/helpers.test.js&#45;&gt;src/services/inline&#45;context/helpers.js -->
<g id="edge27" class="edge">
<title>src/services/inline&#45;context/helpers.test.js&#45;&gt;src/services/inline&#45;context/helpers.js</title>
<path fill="none" stroke="#000000" stroke-width="2" stroke-opacity="0.200000" d="M303.55,-46.93C309.6,-47.94 315.88,-48.99 321.94,-50.01"/>
<polygon fill="#000000" fill-opacity="0.200000" stroke="#000000" stroke-width="2" stroke-opacity="0.200000" points="321.35,-52.04 327.62,-50.96 322.04,-47.89 321.35,-52.04"/>
</g>
<!-- src/services/inline&#45;context/index.js -->
<g id="node31" class="node">
<title>src/services/inline&#45;context/index.js</title>
<g id="a_node31"><a xlink:href="src/services/inline-context/index.js" xlink:title="index.js">
<path fill="#ffffcc" stroke="black" d="M288.21,-79.88C288.21,-79.88 246.04,-79.88 246.04,-79.88 243.08,-79.88 240.12,-76.92 240.12,-73.96 240.12,-73.96 240.12,-68.04 240.12,-68.04 240.12,-65.08 243.08,-62.12 246.04,-62.12 246.04,-62.12 288.21,-62.12 288.21,-62.12 291.17,-62.12 294.12,-65.08 294.12,-68.04 294.12,-68.04 294.12,-73.96 294.12,-73.96 294.12,-76.92 291.17,-79.88 288.21,-79.88"/>
<text text-anchor="start" x="251.38" y="-67.33" font-family="Helvetica,sans-Serif" font-size="9.00">index.js</text>
</a>
</g>
</g>
<!-- src/services/inline&#45;context/index.js&#45;&gt;src/services/dom.d.ts -->
<g id="edge29" class="edge">
<title>src/services/inline&#45;context/index.js&#45;&gt;src/services/dom.d.ts</title>
<path fill="none" stroke="#000000" stroke-width="2" stroke-opacity="0.200000" d="M294.3,-78.17C297.53,-79.76 300.62,-81.68 303.25,-84 312.64,-92.28 308.21,-99.4 316.25,-109 321.74,-115.56 328.79,-121.62 335.52,-126.65"/>
<polygon fill="#000000" fill-opacity="0.200000" stroke="#000000" stroke-width="2" stroke-opacity="0.200000" points="334.03,-128.17 340.14,-129.94 336.47,-124.75 334.03,-128.17"/>
</g>
<!-- src/services/inline&#45;context/index.js&#45;&gt;src/services/inline&#45;context/helpers.js -->
<g id="edge28" class="edge">
<title>src/services/inline&#45;context/index.js&#45;&gt;src/services/inline&#45;context/helpers.js</title>
<path fill="none" stroke="#000000" stroke-width="2" stroke-opacity="0.200000" d="M294.53,-66.58C303.05,-65.15 312.64,-63.55 321.74,-62.03"/>
<polygon fill="#000000" fill-opacity="0.200000" stroke="#000000" stroke-width="2" stroke-opacity="0.200000" points="322.04,-64.11 327.62,-61.04 321.35,-59.96 322.04,-64.11"/>
</g>
<!-- src/services/inline&#45;context/index.test.js -->
<g id="node32" class="node">
<title>src/services/inline&#45;context/index.test.js</title>
<g id="a_node32"><a xlink:href="src/services/inline-context/index.test.js" xlink:title="index.test.js">
<path fill="#ffffcc" stroke="black" d="M204.96,-79.88C204.96,-79.88 152.79,-79.88 152.79,-79.88 149.83,-79.88 146.88,-76.92 146.88,-73.96 146.88,-73.96 146.88,-68.04 146.88,-68.04 146.88,-65.08 149.83,-62.12 152.79,-62.12 152.79,-62.12 204.96,-62.12 204.96,-62.12 207.92,-62.12 210.88,-65.08 210.88,-68.04 210.88,-68.04 210.88,-73.96 210.88,-73.96 210.88,-76.92 207.92,-79.88 204.96,-79.88"/>
<text text-anchor="start" x="154.88" y="-67.33" font-family="Helvetica,sans-Serif" font-size="9.00">index.test.js</text>
</a>
</g>
</g>
<!-- src/services/inline&#45;context/index.test.js&#45;&gt;src/services/inline&#45;context/index.js -->
<g id="edge30" class="edge">
<title>src/services/inline&#45;context/index.test.js&#45;&gt;src/services/inline&#45;context/index.js</title>
<path fill="none" stroke="#000000" stroke-width="2" stroke-opacity="0.200000" d="M211.01,-71C217.52,-71 224.41,-71 231.05,-71"/>
<polygon fill="#000000" fill-opacity="0.200000" stroke="#000000" stroke-width="2" stroke-opacity="0.200000" points="230.84,-73.1 236.84,-71 230.84,-68.9 230.84,-73.1"/>
</g>
<!-- src/services/keyboard/index.ts -->
<g id="node33" class="node">
<title>src/services/keyboard/index.ts</title>
<g id="a_node33"><a xlink:href="src/services/keyboard/index.ts" xlink:title="index.ts">
<path fill="#ccffcc" stroke="black" d="M95.96,-785.88C95.96,-785.88 53.79,-785.88 53.79,-785.88 50.83,-785.88 47.88,-782.92 47.88,-779.96 47.88,-779.96 47.88,-774.04 47.88,-774.04 47.88,-771.08 50.83,-768.12 53.79,-768.12 53.79,-768.12 95.96,-768.12 95.96,-768.12 98.92,-768.12 101.88,-771.08 101.88,-774.04 101.88,-774.04 101.88,-779.96 101.88,-779.96 101.88,-782.92 98.92,-785.88 95.96,-785.88"/>
<text text-anchor="start" x="59.12" y="-773.33" font-family="Helvetica,sans-Serif" font-size="9.00">index.ts</text>
</a>
</g>
</g>
<!-- src/services/namespaces/index.js -->
<g id="node34" class="node">
<title>src/services/namespaces/index.js</title>
<g id="a_node34"><a xlink:href="src/services/namespaces/index.js" xlink:title="index.js">
<path fill="#ccffcc" stroke="black" d="M95.96,-635.88C95.96,-635.88 53.79,-635.88 53.79,-635.88 50.83,-635.88 47.88,-632.92 47.88,-629.96 47.88,-629.96 47.88,-624.04 47.88,-624.04 47.88,-621.08 50.83,-618.12 53.79,-618.12 53.79,-618.12 95.96,-618.12 95.96,-618.12 98.92,-618.12 101.88,-621.08 101.88,-624.04 101.88,-624.04 101.88,-629.96 101.88,-629.96 101.88,-632.92 98.92,-635.88 95.96,-635.88"/>
<text text-anchor="start" x="59.12" y="-623.33" font-family="Helvetica,sans-Serif" font-size="9.00">index.js</text>
</a>
</g>
</g>
<!-- src/services/navigation/index.js -->
<g id="node35" class="node">
<title>src/services/navigation/index.js</title>
<g id="a_node35"><a xlink:href="src/services/navigation/index.js" xlink:title="index.js">
<path fill="#ffffcc" stroke="black" d="M288.21,-465.88C288.21,-465.88 246.04,-465.88 246.04,-465.88 243.08,-465.88 240.12,-462.92 240.12,-459.96 240.12,-459.96 240.12,-454.04 240.12,-454.04 240.12,-451.08 243.08,-448.12 246.04,-448.12 246.04,-448.12 288.21,-448.12 288.21,-448.12 291.17,-448.12 294.12,-451.08 294.12,-454.04 294.12,-454.04 294.12,-459.96 294.12,-459.96 294.12,-462.92 291.17,-465.88 288.21,-465.88"/>
<text text-anchor="start" x="251.38" y="-453.32" font-family="Helvetica,sans-Serif" font-size="9.00">index.js</text>
</a>
</g>
</g>
<!-- src/services/navigation/index.js&#45;&gt;src/services/index.js -->
<g id="edge31" class="edge">
<title>src/services/navigation/index.js&#45;&gt;src/services/index.js</title>
<path fill="none" stroke="#000000" stroke-width="2" stroke-opacity="0.200000" d="M294.36,-450.43C297.66,-448.75 300.75,-446.64 303.25,-444 316.69,-429.81 302.76,-416.14 316.25,-402 318.44,-399.7 321.01,-397.76 323.78,-396.11"/>
<polygon fill="#000000" fill-opacity="0.200000" stroke="#000000" stroke-width="2" stroke-opacity="0.200000" points="324.23,-398.22 328.72,-393.72 322.4,-394.44 324.23,-398.22"/>
</g>
<!-- src/services/navigation/index.js&#45;&gt;src/services/namespaces.d.ts -->
<g id="edge32" class="edge">
<title>src/services/navigation/index.js&#45;&gt;src/services/namespaces.d.ts</title>
<path fill="none" stroke="#000000" stroke-width="2" stroke-opacity="0.200000" d="M294.31,-450.89C297.7,-449.14 300.83,-446.89 303.25,-444 324.14,-419.08 307.24,-403.24 316.25,-372 325.23,-340.86 340.32,-306.2 349.61,-286.07"/>
<polygon fill="#000000" fill-opacity="0.200000" stroke="#000000" stroke-width="2" stroke-opacity="0.200000" points="351.4,-287.21 352.04,-280.89 347.59,-285.43 351.4,-287.21"/>
</g>
<!-- src/services/navigation/index.js&#45;&gt;src/services/url.d.ts -->
<g id="edge33" class="edge">
<title>src/services/navigation/index.js&#45;&gt;src/services/url.d.ts</title>
<path fill="none" stroke="#000000" stroke-width="2" stroke-opacity="0.200000" d="M294.37,-448.59C297.45,-447.23 300.48,-445.7 303.25,-444 309.95,-439.89 309.53,-436.08 316.25,-432 318.61,-430.57 321.12,-429.24 323.7,-428.02"/>
<polygon fill="#000000" fill-opacity="0.200000" stroke="#000000" stroke-width="2" stroke-opacity="0.200000" points="324.08,-430.14 328.77,-425.86 322.43,-426.28 324.08,-430.14"/>
</g>
<!-- src/services/navigator/errors.ts -->
<g id="node36" class="node">
<title>src/services/navigator/errors.ts</title>
<g id="a_node36"><a xlink:href="src/services/navigator/errors.ts" xlink:title="errors.ts">
<path fill="#ddfeff" stroke="black" d="M379.83,-626.88C379.83,-626.88 337.67,-626.88 337.67,-626.88 334.71,-626.88 331.75,-623.92 331.75,-620.96 331.75,-620.96 331.75,-615.04 331.75,-615.04 331.75,-612.08 334.71,-609.12 337.67,-609.12 337.67,-609.12 379.83,-609.12 379.83,-609.12 382.79,-609.12 385.75,-612.08 385.75,-615.04 385.75,-615.04 385.75,-620.96 385.75,-620.96 385.75,-623.92 382.79,-626.88 379.83,-626.88"/>
<text text-anchor="start" x="342.25" y="-614.33" font-family="Helvetica,sans-Serif" font-size="9.00">errors.ts</text>
</a>
</g>
</g>
<!-- src/services/navigator/errors.ts&#45;&gt;src/services/error/index.ts -->
<g id="edge34" class="edge">
<title>src/services/navigator/errors.ts&#45;&gt;src/services/error/index.ts</title>
<path fill="none" stroke="#000000" stroke-width="2" stroke-opacity="0.200000" d="M385.99,-625.5C391.59,-628.09 397.08,-631.52 401.25,-636 425.72,-662.28 434.97,-704.8 438.37,-728.87"/>
<polygon fill="#000000" fill-opacity="0.200000" stroke="#000000" stroke-width="2" stroke-opacity="0.200000" points="436.27,-728.98 439.09,-734.68 440.43,-728.46 436.27,-728.98"/>
</g>
<!-- src/services/navigator/helpers.test.ts -->
<g id="node37" class="node">
<title>src/services/navigator/helpers.test.ts</title>
<g id="a_node37"><a xlink:href="src/services/navigator/helpers.test.ts" xlink:title="helpers.test.ts">
<path fill="#ddfeff" stroke="black" d="M209.08,-590.88C209.08,-590.88 148.67,-590.88 148.67,-590.88 145.71,-590.88 142.75,-587.92 142.75,-584.96 142.75,-584.96 142.75,-579.04 142.75,-579.04 142.75,-576.08 145.71,-573.12 148.67,-573.12 148.67,-573.12 209.08,-573.12 209.08,-573.12 212.04,-573.12 215,-576.08 215,-579.04 215,-579.04 215,-584.96 215,-584.96 215,-587.92 212.04,-590.88 209.08,-590.88"/>
<text text-anchor="start" x="150.75" y="-578.33" font-family="Helvetica,sans-Serif" font-size="9.00">helpers.test.ts</text>
</a>
</g>
</g>
<!-- src/services/navigator/helpers.test.ts&#45;&gt;src/services/dom/errors.js -->
<g id="edge40" class="edge">
<title>src/services/navigator/helpers.test.ts&#45;&gt;src/services/dom/errors.js</title>
<path fill="none" stroke="#000000" stroke-width="2" stroke-opacity="0.200000" d="M181.9,-572.91C190.02,-536.53 219.93,-403.27 223,-400 225.46,-397.38 228.43,-395.29 231.64,-393.61"/>
<polygon fill="#000000" fill-opacity="0.200000" stroke="#000000" stroke-width="2" stroke-opacity="0.200000" points="232.4,-395.57 237.17,-391.38 230.82,-391.68 232.4,-395.57"/>
</g>
<!-- src/services/navigator/helpers.test.ts&#45;&gt;src/services/namespaces.d.ts -->
<g id="edge35" class="edge">
<title>src/services/navigator/helpers.test.ts&#45;&gt;src/services/namespaces.d.ts</title>
<path fill="none" stroke="#000000" stroke-width="2" stroke-opacity="0.200000" d="M179.51,-572.77C179.04,-546.86 181.56,-472.99 223,-437 250.23,-413.35 276.6,-449.3 303.25,-425 321.17,-408.66 308.81,-395.08 316.25,-372 326.15,-341.29 340.84,-306.71 349.83,-286.45"/>
<polygon fill="#000000" fill-opacity="0.200000" stroke="#000000" stroke-width="2" stroke-opacity="0.200000" points="351.75,-287.31 352.28,-280.97 347.91,-285.59 351.75,-287.31"/>
</g>
<!-- src/services/navigator/helpers.test.ts&#45;&gt;src/services/navigator/errors.ts -->
<g id="edge36" class="edge">
<title>src/services/navigator/helpers.test.ts&#45;&gt;src/services/navigator/errors.ts</title>
<path fill="none" stroke="#000000" stroke-width="2" stroke-opacity="0.200000" d="M215.28,-585.51C240.11,-588.37 273.97,-593.08 303.25,-600 310.07,-601.61 317.25,-603.69 324.09,-605.87"/>
<polygon fill="#000000" fill-opacity="0.200000" stroke="#000000" stroke-width="2" stroke-opacity="0.200000" points="323.27,-607.81 329.63,-607.7 324.59,-603.82 323.27,-607.81"/>
</g>
<!-- src/services/navigator/helpers.ts -->
<g id="node38" class="node">
<title>src/services/navigator/helpers.ts</title>
<g id="a_node38"><a xlink:href="src/services/navigator/helpers.ts" xlink:title="helpers.ts">
<path fill="#ddfeff" stroke="black" d="M289.08,-623.88C289.08,-623.88 245.17,-623.88 245.17,-623.88 242.21,-623.88 239.25,-620.92 239.25,-617.96 239.25,-617.96 239.25,-612.04 239.25,-612.04 239.25,-609.08 242.21,-606.12 245.17,-606.12 245.17,-606.12 289.08,-606.12 289.08,-606.12 292.04,-606.12 295,-609.08 295,-612.04 295,-612.04 295,-617.96 295,-617.96 295,-620.92 292.04,-623.88 289.08,-623.88"/>
<text text-anchor="start" x="247.25" y="-611.33" font-family="Helvetica,sans-Serif" font-size="9.00">helpers.ts</text>
</a>
</g>
</g>
<!-- src/services/navigator/helpers.test.ts&#45;&gt;src/services/navigator/helpers.ts -->
<g id="edge37" class="edge">
<title>src/services/navigator/helpers.test.ts&#45;&gt;src/services/navigator/helpers.ts</title>
<path fill="none" stroke="#000000" stroke-width="2" stroke-opacity="0.200000" d="M204.36,-591.37C213.45,-594.85 223.91,-598.85 233.61,-602.56"/>
<polygon fill="#000000" fill-opacity="0.200000" stroke="#000000" stroke-width="2" stroke-opacity="0.200000" points="232.7,-604.46 239.05,-604.64 234.2,-600.54 232.7,-604.46"/>
</g>
<!-- src/services/navigator/test.state.json -->
<g id="node39" class="node">
<title>src/services/navigator/test.state.json</title>
<g id="a_node39"><a xlink:href="src/services/navigator/test.state.json" xlink:title="test.state.json">
<path fill="#ffee44" stroke="black" d="M296.96,-579.88C296.96,-579.88 237.29,-579.88 237.29,-579.88 234.33,-579.88 231.38,-576.92 231.38,-573.96 231.38,-573.96 231.38,-568.04 231.38,-568.04 231.38,-565.08 234.33,-562.12 237.29,-562.12 237.29,-562.12 296.96,-562.12 296.96,-562.12 299.92,-562.12 302.88,-565.08 302.88,-568.04 302.88,-568.04 302.88,-573.96 302.88,-573.96 302.88,-576.92 299.92,-579.88 296.96,-579.88"/>
<text text-anchor="start" x="239.38" y="-567.33" font-family="Helvetica,sans-Serif" font-size="9.00">test.state.json</text>
</a>
</g>
</g>
<!-- src/services/navigator/helpers.test.ts&#45;&gt;src/services/navigator/test.state.json -->
<g id="edge38" class="edge">
<title>src/services/navigator/helpers.test.ts&#45;&gt;src/services/navigator/test.state.json</title>
<path fill="none" stroke="#000000" stroke-width="2" stroke-opacity="0.200000" d="M215.45,-577.46C217.69,-577.18 219.95,-576.89 222.21,-576.6"/>
<polygon fill="#000000" fill-opacity="0.200000" stroke="#000000" stroke-width="2" stroke-opacity="0.200000" points="222.22,-578.72 227.9,-575.87 221.69,-574.55 222.22,-578.72"/>
</g>
<!-- src/services/navigator/types.ts -->
<g id="node40" class="node">
<title>src/services/navigator/types.ts</title>
<g id="a_node40"><a xlink:href="src/services/navigator/types.ts" xlink:title="types.ts">
<path fill="#ddfeff" stroke="black" d="M379.83,-659.88C379.83,-659.88 337.67,-659.88 337.67,-659.88 334.71,-659.88 331.75,-656.92 331.75,-653.96 331.75,-653.96 331.75,-648.04 331.75,-648.04 331.75,-645.08 334.71,-642.12 337.67,-642.12 337.67,-642.12 379.83,-642.12 379.83,-642.12 382.79,-642.12 385.75,-645.08 385.75,-648.04 385.75,-648.04 385.75,-653.96 385.75,-653.96 385.75,-656.92 382.79,-659.88 379.83,-659.88"/>
<text text-anchor="start" x="343.38" y="-647.33" font-family="Helvetica,sans-Serif" font-size="9.00">types.ts</text>
</a>
</g>
</g>
<!-- src/services/navigator/helpers.test.ts&#45;&gt;src/services/navigator/types.ts -->
<g id="edge39" class="edge">
<title>src/services/navigator/helpers.test.ts&#45;&gt;src/services/navigator/types.ts</title>
<path fill="none" stroke="#000000" stroke-width="2" stroke-opacity="0.200000" d="M185.29,-591.15C192.42,-602.31 206.06,-620.82 223,-630 253.8,-646.7 294.02,-651.11 322.48,-651.86"/>
<polygon fill="#000000" fill-opacity="0.200000" stroke="#000000" stroke-width="2" stroke-opacity="0.200000" points="322.22,-653.95 328.25,-651.94 322.28,-649.75 322.22,-653.95"/>
</g>
<!-- src/services/navigator/helpers.ts&#45;&gt;src/services/url.d.ts -->
<g id="edge43" class="edge">
<title>src/services/navigator/helpers.ts&#45;&gt;src/services/url.d.ts</title>
<path fill="none" stroke="#000000" stroke-width="2" stroke-opacity="0.200000" d="M284.33,-605.76C291.38,-600.84 298.99,-594.13 303.25,-586 319.18,-555.58 295.35,-459.26 316.25,-432 318.28,-429.35 320.82,-427.17 323.64,-425.37"/>
<polygon fill="#000000" fill-opacity="0.200000" stroke="#000000" stroke-width="2" stroke-opacity="0.200000" points="324.42,-427.33 328.88,-422.8 322.57,-423.56 324.42,-427.33"/>
</g>
<!-- src/services/navigator/helpers.ts&#45;&gt;src/services/navigator/errors.ts -->
<g id="edge41" class="edge">
<title>src/services/navigator/helpers.ts&#45;&gt;src/services/navigator/errors.ts</title>
<path fill="none" stroke="#000000" stroke-width="2" stroke-opacity="0.200000" d="M295.02,-615.9C303.68,-616.19 313.41,-616.52 322.58,-616.82"/>
<polygon fill="#000000" fill-opacity="0.200000" stroke="#000000" stroke-width="2" stroke-opacity="0.200000" points="322.4,-618.92 328.47,-617.02 322.54,-614.72 322.4,-618.92"/>
</g>
<!-- src/services/navigator/helpers.ts&#45;&gt;src/services/navigator/types.ts -->
<g id="edge42" class="edge">
<title>src/services/navigator/helpers.ts&#45;&gt;src/services/navigator/types.ts</title>
<path fill="none" stroke="#000000" stroke-width="2" stroke-opacity="0.200000" d="M291.21,-624.27C301.89,-628.56 314.75,-633.73 326.3,-638.37"/>
<polygon fill="#000000" fill-opacity="0.200000" stroke="#000000" stroke-width="2" stroke-opacity="0.200000" points="325.28,-640.22 331.63,-640.51 326.84,-636.32 325.28,-640.22"/>
</g>
<!-- src/services/navigator/imports.ts -->
<g id="node41" class="node">
<title>src/services/navigator/imports.ts</title>
<g id="a_node41"><a xlink:href="src/services/navigator/imports.ts" xlink:title="imports.ts">
<path fill="#ddfeff" stroke="black" d="M288.71,-681.88C288.71,-681.88 245.54,-681.88 245.54,-681.88 242.58,-681.88 239.62,-678.92 239.62,-675.96 239.62,-675.96 239.62,-670.04 239.62,-670.04 239.62,-667.08 242.58,-664.12 245.54,-664.12 245.54,-664.12 288.71,-664.12 288.71,-664.12 291.67,-664.12 294.62,-667.08 294.62,-670.04 294.62,-670.04 294.62,-675.96 294.62,-675.96 294.62,-678.92 291.67,-681.88 288.71,-681.88"/>
<text text-anchor="start" x="247.62" y="-669.33" font-family="Helvetica,sans-Serif" font-size="9.00">imports.ts</text>
</a>
</g>
</g>
<!-- src/services/navigator/index.ts -->
<g id="node42" class="node">
<title>src/services/navigator/index.ts</title>
<g id="a_node42"><a xlink:href="src/services/navigator/index.ts" xlink:title="index.ts">
<path fill="#ddfeff" stroke="black" d="M199.96,-663.88C199.96,-663.88 157.79,-663.88 157.79,-663.88 154.83,-663.88 151.88,-660.92 151.88,-657.96 151.88,-657.96 151.88,-652.04 151.88,-652.04 151.88,-649.08 154.83,-646.12 157.79,-646.12 157.79,-646.12 199.96,-646.12 199.96,-646.12 202.92,-646.12 205.88,-649.08 205.88,-652.04 205.88,-652.04 205.88,-657.96 205.88,-657.96 205.88,-660.92 202.92,-663.88 199.96,-663.88"/>
<text text-anchor="start" x="163.12" y="-651.33" font-family="Helvetica,sans-Serif" font-size="9.00">index.ts</text>
</a>
</g>
</g>
<!-- src/services/navigator/index.ts&#45;&gt;src/services/navigator/errors.ts -->
<g id="edge44" class="edge">
<title>src/services/navigator/index.ts&#45;&gt;src/services/navigator/errors.ts</title>
<path fill="none" stroke="#000000" stroke-width="2" stroke-opacity="0.200000" d="M206.37,-649.76C231.38,-644.79 269.89,-637.05 303.25,-630 309.57,-628.66 316.3,-627.21 322.79,-625.79"/>
<polygon fill="#000000" fill-opacity="0.200000" stroke="#000000" stroke-width="2" stroke-opacity="0.200000" points="323.07,-627.88 328.48,-624.54 322.17,-623.78 323.07,-627.88"/>
</g>
<!-- src/services/navigator/index.ts&#45;&gt;src/services/navigator/helpers.ts -->
<g id="edge45" class="edge">
<title>src/services/navigator/index.ts&#45;&gt;src/services/navigator/helpers.ts</title>
<path fill="none" stroke="#000000" stroke-width="2" stroke-opacity="0.200000" d="M197.35,-645.7C205.14,-641.66 214.46,-636.95 223,-633 226.85,-631.22 230.92,-629.42 234.97,-627.67"/>
<polygon fill="#000000" fill-opacity="0.200000" stroke="#000000" stroke-width="2" stroke-opacity="0.200000" points="235.66,-629.66 240.37,-625.39 234.02,-625.79 235.66,-629.66"/>
</g>
<!-- src/services/navigator/index.ts&#45;&gt;src/services/navigator/types.ts -->
<g id="edge47" class="edge">
<title>src/services/navigator/index.ts&#45;&gt;src/services/navigator/types.ts</title>
<path fill="none" stroke="#000000" stroke-width="2" stroke-opacity="0.200000" d="M188.41,-664.32C196.44,-672.35 209.25,-683.34 223,-688 256.78,-699.44 269.16,-698.48 303.25,-688 317.5,-683.62 331.37,-674.11 341.55,-665.82"/>
<polygon fill="#000000" fill-opacity="0.200000" stroke="#000000" stroke-width="2" stroke-opacity="0.200000" points="342.76,-667.55 345.96,-662.06 340.03,-664.36 342.76,-667.55"/>
</g>
<!-- src/services/navigator/index.ts&#45;&gt;src/services/navigator/imports.ts -->
<g id="edge46" class="edge">
<title>src/services/navigator/index.ts&#45;&gt;src/services/navigator/imports.ts</title>
<path fill="none" stroke="#000000" stroke-width="2" stroke-opacity="0.200000" d="M206.22,-660.5C213.93,-662.11 222.5,-663.89 230.68,-665.6"/>
<polygon fill="#000000" fill-opacity="0.200000" stroke="#000000" stroke-width="2" stroke-opacity="0.200000" points="230.08,-667.62 236.38,-666.79 230.94,-663.51 230.08,-667.62"/>
</g>
<!-- src/services/render/index.d.ts -->
<g id="node43" class="node">
<title>src/services/render/index.d.ts</title>
<g id="a_node43"><a xlink:href="src/services/render/index.d.ts" xlink:title="index.d.ts">
<path fill="#ccffcc" stroke="black" d="M200.46,-169.88C200.46,-169.88 157.29,-169.88 157.29,-169.88 154.33,-169.88 151.38,-166.92 151.38,-163.96 151.38,-163.96 151.38,-158.04 151.38,-158.04 151.38,-155.08 154.33,-152.12 157.29,-152.12 157.29,-152.12 200.46,-152.12 200.46,-152.12 203.42,-152.12 206.38,-155.08 206.38,-158.04 206.38,-158.04 206.38,-163.96 206.38,-163.96 206.38,-166.92 203.42,-169.88 200.46,-169.88"/>
<text text-anchor="start" x="159.38" y="-157.32" font-family="Helvetica,sans-Serif" font-size="9.00">index.d.ts</text>
</a>
</g>
</g>
<!-- src/services/render/index.js -->
<g id="node44" class="node">
<title>src/services/render/index.js</title>
<g id="a_node44"><a xlink:href="src/services/render/index.js" xlink:title="index.js">
<path fill="#ffffcc" stroke="black" d="M199.96,-139.88C199.96,-139.88 157.79,-139.88 157.79,-139.88 154.83,-139.88 151.88,-136.92 151.88,-133.96 151.88,-133.96 151.88,-128.04 151.88,-128.04 151.88,-125.08 154.83,-122.12 157.79,-122.12 157.79,-122.12 199.96,-122.12 199.96,-122.12 202.92,-122.12 205.88,-125.08 205.88,-128.04 205.88,-128.04 205.88,-133.96 205.88,-133.96 205.88,-136.92 202.92,-139.88 199.96,-139.88"/>
<text text-anchor="start" x="163.12" y="-127.33" font-family="Helvetica,sans-Serif" font-size="9.00">index.js</text>
</a>
</g>
</g>
<!-- src/services/render/index.js&#45;&gt;src/services/namespaces.d.ts -->
<g id="edge49" class="edge">
<title>src/services/render/index.js&#45;&gt;src/services/namespaces.d.ts</title>
<path fill="none" stroke="#000000" stroke-width="2" stroke-opacity="0.200000" d="M206.3,-138.97C209.57,-140.85 212.6,-143.17 215,-146 224.75,-157.52 212.11,-168.55 223,-179 249.24,-204.18 272.56,-175.48 303.25,-195 325.12,-208.91 341.18,-234.95 349.99,-252.14"/>
<polygon fill="#000000" fill-opacity="0.200000" stroke="#000000" stroke-width="2" stroke-opacity="0.200000" points="347.88,-252.59 352.4,-257.05 351.65,-250.74 347.88,-252.59"/>
</g>
<!-- src/services/render/index.js&#45;&gt;src/services/inline&#45;context/index.js -->
<g id="edge48" class="edge">
<title>src/services/render/index.js&#45;&gt;src/services/inline&#45;context/index.js</title>
<path fill="none" stroke="#000000" stroke-width="2" stroke-opacity="0.200000" d="M200.02,-121.7C205.51,-118.35 211.03,-114.11 215,-109 222.16,-99.79 214.68,-92.18 223,-84 225.5,-81.54 228.45,-79.55 231.61,-77.93"/>
<polygon fill="#000000" fill-opacity="0.200000" stroke="#000000" stroke-width="2" stroke-opacity="0.200000" points="232.19,-79.95 236.97,-75.76 230.62,-76.06 232.19,-79.95"/>
</g>
<!-- src/services/stylesheets/index.js -->
<g id="node45" class="node">
<title>src/services/stylesheets/index.js</title>
<g id="a_node45"><a xlink:href="src/services/stylesheets/index.js" xlink:title="index.js">
<path fill="#ffffcc" stroke="black" d="M288.21,-149.88C288.21,-149.88 246.04,-149.88 246.04,-149.88 243.08,-149.88 240.12,-146.92 240.12,-143.96 240.12,-143.96 240.12,-138.04 240.12,-138.04 240.12,-135.08 243.08,-132.12 246.04,-132.12 246.04,-132.12 288.21,-132.12 288.21,-132.12 291.17,-132.12 294.12,-135.08 294.12,-138.04 294.12,-138.04 294.12,-143.96 294.12,-143.96 294.12,-146.92 291.17,-149.88 288.21,-149.88"/>
<text text-anchor="start" x="251.38" y="-137.32" font-family="Helvetica,sans-Serif" font-size="9.00">index.js</text>
</a>
</g>
</g>
<!-- src/services/stylesheets/index.js&#45;&gt;src/services/dom.d.ts -->
<g id="edge50" class="edge">
<title>src/services/stylesheets/index.js&#45;&gt;src/services/dom.d.ts</title>
<path fill="none" stroke="#000000" stroke-width="2" stroke-opacity="0.200000" d="M294.53,-141C303.37,-141 313.37,-141 322.77,-141"/>
<polygon fill="#000000" fill-opacity="0.200000" stroke="#000000" stroke-width="2" stroke-opacity="0.200000" points="322.51,-143.1 328.51,-141 322.51,-138.9 322.51,-143.1"/>
</g>
<!-- src/services/stylesheets/index.js&#45;&gt;src/services/namespaces.d.ts -->
<g id="edge51" class="edge">
<title>src/services/stylesheets/index.js&#45;&gt;src/services/namespaces.d.ts</title>
<path fill="none" stroke="#000000" stroke-width="2" stroke-opacity="0.200000" d="M294.38,-148.08C297.6,-149.68 300.66,-151.63 303.25,-154 332.44,-180.72 347.46,-226.35 353.85,-251.34"/>
<polygon fill="#000000" fill-opacity="0.200000" stroke="#000000" stroke-width="2" stroke-opacity="0.200000" points="351.74,-251.54 355.19,-256.89 355.83,-250.56 351.74,-251.54"/>
</g>
<!-- src/services/url/index.js -->
<g id="node46" class="node">
<title>src/services/url/index.js</title>
<g id="a_node46"><a xlink:href="src/services/url/index.js" xlink:title="index.js">
<path fill="#ffffcc" stroke="black" d="M288.21,-965.88C288.21,-965.88 246.04,-965.88 246.04,-965.88 243.08,-965.88 240.12,-962.92 240.12,-959.96 240.12,-959.96 240.12,-954.04 240.12,-954.04 240.12,-951.08 243.08,-948.12 246.04,-948.12 246.04,-948.12 288.21,-948.12 288.21,-948.12 291.17,-948.12 294.12,-951.08 294.12,-954.04 294.12,-954.04 294.12,-959.96 294.12,-959.96 294.12,-962.92 291.17,-965.88 288.21,-965.88"/>
<text text-anchor="start" x="251.38" y="-953.33" font-family="Helvetica,sans-Serif" font-size="9.00">index.js</text>
</a>
</g>
</g>
<!-- src/services/url/types.js -->
<g id="node47" class="node">
<title>src/services/url/types.js</title>
<g id="a_node47"><a xlink:href="src/services/url/types.js" xlink:title="types.js">
<path fill="#ffffcc" stroke="black" d="M379.83,-965.88C379.83,-965.88 337.67,-965.88 337.67,-965.88 334.71,-965.88 331.75,-962.92 331.75,-959.96 331.75,-959.96 331.75,-954.04 331.75,-954.04 331.75,-951.08 334.71,-948.12 337.67,-948.12 337.67,-948.12 379.83,-948.12 379.83,-948.12 382.79,-948.12 385.75,-951.08 385.75,-954.04 385.75,-954.04 385.75,-959.96 385.75,-959.96 385.75,-962.92 382.79,-965.88 379.83,-965.88"/>
<text text-anchor="start" x="343.38" y="-953.33" font-family="Helvetica,sans-Serif" font-size="9.00">types.js</text>
</a>
</g>
</g>
<!-- src/services/url/index.js&#45;&gt;src/services/url/types.js -->
<g id="edge52" class="edge">
<title>src/services/url/index.js&#45;&gt;src/services/url/types.js</title>
<path fill="none" stroke="#000000" stroke-width="2" stroke-opacity="0.200000" d="M294.53,-957C303.37,-957 313.37,-957 322.77,-957"/>
<polygon fill="#000000" fill-opacity="0.200000" stroke="#000000" stroke-width="2" stroke-opacity="0.200000" points="322.51,-959.1 328.51,-957 322.51,-954.9 322.51,-959.1"/>
</g>
<!-- src/services/url/index.test.js -->
<g id="node48" class="node">
<title>src/services/url/index.test.js</title>
<g id="a_node48"><a xlink:href="src/services/url/index.test.js" xlink:title="index.test.js">
<path fill="#ffffcc" stroke="black" d="M293.21,-935.88C293.21,-935.88 241.04,-935.88 241.04,-935.88 238.08,-935.88 235.12,-932.92 235.12,-929.96 235.12,-929.96 235.12,-924.04 235.12,-924.04 235.12,-921.08 238.08,-918.12 241.04,-918.12 241.04,-918.12 293.21,-918.12 293.21,-918.12 296.17,-918.12 299.12,-921.08 299.12,-924.04 299.12,-924.04 299.12,-929.96 299.12,-929.96 299.12,-932.92 296.17,-935.88 293.21,-935.88"/>
<text text-anchor="start" x="243.12" y="-923.33" font-family="Helvetica,sans-Serif" font-size="9.00">index.test.js</text>
</a>
</g>
</g>
<!-- src/services/url/index.test.js&#45;&gt;src/services/url.d.ts -->
<g id="edge53" class="edge">
<title>src/services/url/index.test.js&#45;&gt;src/services/url.d.ts</title>
<path fill="none" stroke="#000000" stroke-width="2" stroke-opacity="0.200000" d="M290.32,-917.66C295.44,-914.42 300.25,-910.25 303.25,-905 329.34,-859.36 285.46,-474.61 316.25,-432 318.2,-429.29 320.7,-427.08 323.48,-425.26"/>
<polygon fill="#000000" fill-opacity="0.200000" stroke="#000000" stroke-width="2" stroke-opacity="0.200000" points="324.25,-427.22 328.69,-422.66 322.38,-423.46 324.25,-427.22"/>
</g>
<!-- src/services/xml/index.test.js -->
<g id="node49" class="node">
<title>src/services/xml/index.test.js</title>
<g id="a_node49"><a xlink:href="src/services/xml/index.test.js" xlink:title="index.test.js">
<path fill="#ffffcc" stroke="black" d="M384.83,-519.88C384.83,-519.88 332.67,-519.88 332.67,-519.88 329.71,-519.88 326.75,-516.92 326.75,-513.96 326.75,-513.96 326.75,-508.04 326.75,-508.04 326.75,-505.08 329.71,-502.12 332.67,-502.12 332.67,-502.12 384.83,-502.12 384.83,-502.12 387.79,-502.12 390.75,-505.08 390.75,-508.04 390.75,-508.04 390.75,-513.96 390.75,-513.96 390.75,-516.92 387.79,-519.88 384.83,-519.88"/>
<text text-anchor="start" x="334.75" y="-507.32" font-family="Helvetica,sans-Serif" font-size="9.00">index.test.js</text>
</a>
</g>
</g>
<!-- src/services/xml/index.test.js&#45;&gt;src/services/xml/index.js -->
<g id="edge54" class="edge">
<title>src/services/xml/index.test.js&#45;&gt;src/services/xml/index.js</title>
<path fill="none" stroke="#000000" stroke-width="2" stroke-opacity="0.200000" d="M391.1,-511C395.68,-511 400.41,-511 405.06,-511"/>
<polygon fill="#000000" fill-opacity="0.200000" stroke="#000000" stroke-width="2" stroke-opacity="0.200000" points="404.78,-513.1 410.78,-511 404.78,-508.9 404.78,-513.1"/>
</g>
</g>
</svg>
