<svg width="32" height="32" viewBox="0 0 32 32" fill="none" xmlns="http://www.w3.org/2000/svg">
<path fill-rule="evenodd" clip-rule="evenodd" d="M14.561 15.492L19.777 26.885C19.9071 27.1276 20.1702 27.2682 20.4442 27.2415C20.7181 27.2149 20.9492 27.0261 21.03 26.763L22.557 22.554L26.766 21.028C27.029 20.9467 27.2175 20.7155 27.2441 20.4416C27.2708 20.1676 27.1304 19.9044 26.888 19.774L15.5 14.558C15.2324 14.4455 14.9234 14.5057 14.7176 14.7104C14.5118 14.9151 14.4499 15.2238 14.561 15.492Z" stroke="#8D9494" stroke-width="2" stroke-linecap="round" stroke-linejoin="round"/>
<path d="M25.723 16C25.741 15.7533 25.75 15.5033 25.75 15.25C25.75 9.45101 21.049 4.75 15.25 4.75C9.45101 4.75 4.75 9.45101 4.75 15.25C4.75 21.049 9.45101 25.75 15.25 25.75C15.503 25.75 15.75 25.741 16 25.724" stroke="#8D9494" stroke-width="2" stroke-linecap="round" stroke-linejoin="round"/>
<path d="M21.061 13.747C20.3287 10.9151 17.6612 9.02397 14.7466 9.27039C11.832 9.5168 9.5198 11.829 9.27339 14.7436C9.02697 17.6582 10.9181 20.3257 13.75 21.058" stroke="#8D9494" stroke-width="2" stroke-linecap="round" stroke-linejoin="round"/>
</svg>
