<svg
  width="16"
  height="16"
  viewBox="0 0 16 16"
  fill="none"
  xmlns="http://www.w3.org/2000/svg"
>
  <path
    fill-rule="evenodd"
    clip-rule="evenodd"
    d="M5.11594 13.1867L9.96816 7.99887L5.11594 2.81309C4.96135 2.62696 4.96135 2.32574 5.11594 2.1396C5.27911 1.95347 5.53675 1.95347 5.69992 2.1396L10.7497 7.54054C10.8012 7.56356 10.8441 7.59758 10.8871 7.64261C10.9644 7.74069 11.0073 7.86978 10.9987 7.99787C11.0073 8.12697 10.973 8.25806 10.8871 8.35714C10.8441 8.40417 10.8012 8.43819 10.7497 8.46121L5.69992 13.8611C5.53675 14.0463 5.27911 14.0463 5.11594 13.8611C4.96135 13.674 4.96135 13.3738 5.11594 13.1867Z"
    fill="#4E4D4D"
  />
</svg>
