<svg
  width="24"
  height="24"
  viewBox="0 0 24 24"
  fill="none"
  xmlns="http://www.w3.org/2000/svg"
>
  <path
    fill-rule="evenodd"
    clip-rule="evenodd"
    d="M21.7803 3.28033C22.0732 2.98744 22.0732 2.51256 21.7803 2.21967C21.4874 1.92678 21.0126 1.92678 20.7197 2.21967L12 10.9393L3.28033 2.21967C2.98744 1.92678 2.51256 1.92678 2.21967 2.21967C1.92678 2.51256 1.92678 2.98744 2.21967 3.28033L10.9393 12L2.21967 20.7197C1.92678 21.0126 1.92678 21.4874 2.21967 21.7803C2.51256 22.0732 2.98744 22.0732 3.28033 21.7803L12 13.0607L20.7197 21.7803C21.0126 22.0732 21.4874 22.0732 21.7803 21.7803C22.0732 21.4874 22.0732 21.0126 21.7803 20.7197L13.0607 12L21.7803 3.28033Z"
    fill="#4778FF"
  />
</svg>
