<svg width="32" height="32" viewBox="0 0 32 32" fill="none" xmlns="http://www.w3.org/2000/svg">
<path fill-rule="evenodd" clip-rule="evenodd" d="M4.75 23.498C4.75 23.0838 5.08579 22.748 5.5 22.748H17.5C17.9142 22.748 18.25 23.0838 18.25 23.498V26.498C18.25 26.9122 17.9142 27.248 17.5 27.248H5.5C5.08579 27.248 4.75 26.9122 4.75 26.498V23.498Z" stroke="#8D9494" stroke-width="2" stroke-linecap="round" stroke-linejoin="round"/>
<path fill-rule="evenodd" clip-rule="evenodd" d="M13.75 15.998C13.75 15.5838 14.0858 15.248 14.5 15.248H26.5C26.9142 15.248 27.25 15.5838 27.25 15.998V18.998C27.25 19.4122 26.9142 19.748 26.5 19.748H14.5C14.0858 19.748 13.75 19.4122 13.75 18.998V15.998Z" stroke="#8D9494" stroke-width="2" stroke-linecap="round" stroke-linejoin="round"/>
<path fill-rule="evenodd" clip-rule="evenodd" d="M4.75 5.498C4.75 5.08379 5.08579 4.748 5.5 4.748H17.5C17.9142 4.748 18.25 5.08379 18.25 5.498V8.498C18.25 8.91221 17.9142 9.248 17.5 9.248H5.5C5.08579 9.248 4.75 8.91221 4.75 8.498V5.498Z" stroke="#8D9494" stroke-width="2" stroke-linecap="round" stroke-linejoin="round"/>
<path d="M10.75 9.248V10.748C10.75 11.5764 11.4216 12.248 12.25 12.248H16.75C17.5784 12.248 18.25 12.9196 18.25 13.748V15.248" stroke="#8D9494" stroke-width="2" stroke-linecap="round" stroke-linejoin="round"/>
<path d="M22.75 19.748V24.248C22.75 25.0764 22.0784 25.748 21.25 25.748H18.25" stroke="#8D9494" stroke-width="2" stroke-linecap="round" stroke-linejoin="round"/>
</svg>
